<svg width="599" height="532" viewBox="0 0 599 532" fill="none" xmlns="http://www.w3.org/2000/svg">
<path d="M238.918 502.31C252.225 510.899 267.618 515.717 283.453 516.25C283.171 516.919 282.853 517.574 282.502 518.21C280.659 521.608 278.054 524.534 274.891 526.76C271.145 529.392 266.748 530.946 262.179 531.253C257.61 531.561 253.044 530.609 248.979 528.502C244.914 526.395 241.507 523.214 239.129 519.306C236.751 515.398 235.493 510.913 235.493 506.34V502.31H238.918Z" fill="#075985"/>
<path d="M332.324 503.49V506.34C332.326 511.889 330.477 517.28 327.068 521.661C323.66 526.043 318.886 529.166 313.502 530.537C308.117 531.907 302.429 531.447 297.336 529.229C292.242 527.012 288.034 523.162 285.376 518.29C285.01 517.638 284.679 516.967 284.384 516.28C285.115 516.3 285.837 516.31 286.568 516.31C302.712 516.329 318.547 511.892 332.324 503.49V503.49Z" fill="#075985"/>
<path d="M366.013 202.11C365.262 202 364.501 201.93 363.74 201.88C372.389 221.783 372.988 244.256 365.412 264.59C366.174 264.5 366.925 264.38 367.676 264.24C375.01 262.821 381.602 258.849 386.278 253.032C390.954 247.214 393.411 239.928 393.212 232.471C393.012 225.014 390.169 217.87 385.188 212.31C380.208 206.75 373.413 203.136 366.013 202.11V202.11Z" fill="#0C4A6E"/>
<path d="M209.395 201.88C208.635 201.93 207.873 202 207.122 202.11C199.723 203.136 192.928 206.75 187.947 212.31C182.967 217.87 180.123 225.014 179.924 232.471C179.724 239.928 182.181 247.214 186.857 253.032C191.534 258.849 198.125 262.821 205.46 264.24C206.211 264.38 206.962 264.5 207.723 264.59C200.148 244.256 200.747 221.783 209.395 201.88V201.88Z" fill="#0C4A6E"/>
<path d="M366.013 202.11C357.763 182.43 342.481 166.514 323.137 157.456C303.792 148.398 281.766 146.843 261.338 153.094C240.91 159.345 223.538 172.955 212.597 191.28C201.656 209.606 197.928 231.338 202.136 252.255C206.344 273.172 218.189 291.78 235.369 304.464C252.549 317.149 273.837 323.003 295.098 320.891C316.359 318.779 336.074 308.85 350.414 293.034C364.754 277.218 372.695 256.645 372.693 235.31C372.689 223.911 370.419 212.626 366.013 202.11V202.11ZM365.412 264.59C358.087 284.254 343.655 300.467 324.958 310.04C306.262 319.612 284.654 321.849 264.388 316.311C244.122 310.774 226.666 297.862 215.455 280.117C204.245 262.373 200.092 241.081 203.813 220.432C207.535 199.784 218.863 181.274 235.566 168.546C252.269 155.818 273.138 149.795 294.066 151.66C314.994 153.526 334.464 163.146 348.645 178.627C362.826 194.109 370.69 214.329 370.69 235.31C370.687 245.305 368.9 255.22 365.412 264.59V264.59Z" fill="#075985" stroke="#075985" stroke-width="5"/>
<path d="M330.632 215.81H242.504C237.856 215.81 233.398 217.654 230.111 220.936C226.825 224.218 224.978 228.669 224.978 233.31C224.978 237.951 226.825 242.403 230.111 245.684C233.398 248.966 237.856 250.81 242.504 250.81H330.632C335.28 250.81 339.738 248.966 343.024 245.684C346.311 242.403 348.157 237.951 348.157 233.31C348.157 228.669 346.311 224.218 343.024 220.936C339.738 217.654 335.28 215.81 330.632 215.81V215.81Z" fill="#0369A1"/>
<path d="M286.568 338.31C263.024 338.321 240.418 347.531 223.587 363.97C206.756 380.409 197.035 402.772 196.504 426.276C195.973 449.78 204.673 472.558 220.745 489.739C236.816 506.92 258.982 517.139 282.502 518.21C283.453 518.26 284.415 518.29 285.376 518.29C285.777 518.31 286.167 518.31 286.568 518.31C310.472 518.31 333.397 508.828 350.3 491.95C367.203 475.071 376.699 452.18 376.699 428.31C376.699 404.441 367.203 381.549 350.3 364.67C333.397 347.792 310.472 338.31 286.568 338.31V338.31ZM332.324 503.49C318.547 511.892 302.712 516.329 286.568 516.31C285.837 516.31 285.115 516.3 284.384 516.28C284.074 516.28 283.764 516.27 283.453 516.25C262.291 515.516 242.1 507.201 226.57 492.827C211.041 478.452 201.21 458.978 198.875 437.962C196.54 416.947 201.856 395.794 213.852 378.37C225.848 360.945 243.723 348.414 264.21 343.065C284.696 337.716 306.426 339.907 325.428 349.238C344.43 358.568 359.435 374.415 367.701 393.882C375.966 413.349 376.94 435.137 370.445 455.262C363.949 475.387 350.418 492.506 332.324 503.49Z" fill="#075985" stroke="#075985" stroke-width="5"/>
<path d="M296.484 408.333V447.667C296.484 450.275 295.446 452.776 293.599 454.62C291.752 456.464 289.247 457.5 286.635 457.5C284.023 457.5 281.518 456.464 279.671 454.62C277.824 452.776 276.787 450.275 276.787 447.667V408.333C276.787 405.726 277.824 403.225 279.671 401.38C281.518 399.536 284.023 398.5 286.635 398.5C289.247 398.5 291.752 399.536 293.599 401.38C295.446 403.225 296.484 405.726 296.484 408.333Z" fill="#0369A1" stroke="#0369A1"/>
<path d="M291.887 445.045C291.887 442.148 289.536 439.8 286.635 439.8C283.734 439.8 281.383 442.148 281.383 445.045C281.383 447.941 283.734 450.289 286.635 450.289C289.536 450.289 291.887 447.941 291.887 445.045Z" fill="#F2F2F2"/>
<path d="M291.887 428C291.887 425.104 289.536 422.756 286.635 422.756C283.734 422.756 281.383 425.104 281.383 428C281.383 430.897 283.734 433.245 286.635 433.245C289.536 433.245 291.887 430.897 291.887 428Z" fill="#F2F2F2"/>
<path d="M291.887 410.956C291.887 408.059 289.536 405.711 286.635 405.711C283.734 405.711 281.383 408.059 281.383 410.956C281.383 413.852 283.734 416.2 286.635 416.2C289.536 416.2 291.887 413.852 291.887 410.956Z" fill="black"/>
<ellipse cx="262.394" cy="233.5" rx="13.3942" ry="13.5" fill="white"/>
<ellipse cx="306.606" cy="233.5" rx="13.3942" ry="13.5" fill="white"/>
<ellipse cx="262.285" cy="233.5" rx="3.48466" ry="3.66102" fill="black"/>
<ellipse cx="306.715" cy="233.5" rx="3.48466" ry="3.66102" fill="black"/>
<path d="M251.25 268C251.454 272.048 253.101 275.858 255.851 278.648C258.601 281.438 262.247 282.995 266.038 283H306.565C310.356 282.995 314.001 281.438 316.751 278.648C319.502 275.858 321.148 272.048 321.352 268H251.25Z" fill="#0369A1"/>
<mask id="path-17-inside-1_1_145" fill="white">
<path d="M133.985 328.666C135.808 316.437 130.517 304.209 119.276 294.672L111.805 298.866C121.434 307.036 125.966 317.51 124.404 327.986L133.985 328.666Z"/>
</mask>
<path d="M133.985 328.666C135.808 316.437 130.517 304.209 119.276 294.672L111.805 298.866C121.434 307.036 125.966 317.51 124.404 327.986L133.985 328.666Z" fill="#075985" stroke="#075985" stroke-width="10" stroke-linejoin="round" mask="url(#path-17-inside-1_1_145)"/>
<mask id="path-18-inside-2_1_145" fill="white">
<path d="M103.577 317.15C106.669 328.934 115.922 336.061 129.3 336.964L134.168 328.442C122.708 327.669 114.782 321.564 112.133 311.469L103.577 317.15Z"/>
</mask>
<path d="M103.577 317.15C106.669 328.934 115.922 336.061 129.3 336.964L134.168 328.442C122.708 327.669 114.782 321.564 112.133 311.469L103.577 317.15Z" fill="#075985" stroke="#075985" stroke-width="10" stroke-linejoin="round" mask="url(#path-18-inside-2_1_145)"/>
<mask id="path-19-inside-3_1_145" fill="white">
<path d="M203.431 400C187.475 400 171.822 393.454 158.164 381.068C144.505 368.683 133.36 350.929 125.931 329.724L132.972 324.162C139.725 343.441 149.858 359.582 162.276 370.842C174.694 382.102 188.924 388.054 203.431 388.054V400Z"/>
</mask>
<path d="M203.431 400C187.475 400 171.822 393.454 158.164 381.068C144.505 368.683 133.36 350.929 125.931 329.724L132.972 324.162C139.725 343.441 149.858 359.582 162.276 370.842C174.694 382.102 188.924 388.054 203.431 388.054V400Z" fill="#075985" stroke="#075985" stroke-width="20" stroke-linejoin="round" mask="url(#path-19-inside-3_1_145)"/>
<rect x="366.497" y="5" width="227.503" height="140.521" rx="55" fill="white" stroke="#0284C7" stroke-width="10" stroke-linejoin="round"/>
<g filter="url(#filter0_d_1_145)">
<path d="M396.754 170.107C389.271 175.73 378.074 171.935 373.816 162.333V162.333C368.266 149.817 378.212 137.474 390.492 141.637V141.637C402.773 145.799 406.507 162.779 396.754 170.107V170.107Z" fill="white"/>
<path d="M399.812 174.411C412.716 164.715 407.776 142.252 391.529 136.745C375.282 131.239 362.124 147.568 369.467 164.125C375.1 176.828 389.913 181.848 399.812 174.411Z" stroke="#0284C7" stroke-width="10" stroke-linejoin="round"/>
</g>
<path d="M400.585 40V26.9091H402.17V32.7386H409.151V26.9091H410.736V40H409.151V34.1449H402.17V40H400.585ZM417.821 40.2045C416.875 40.2045 416.059 39.9957 415.373 39.5781C414.691 39.1562 414.165 38.5682 413.794 37.8139C413.428 37.0554 413.245 36.1733 413.245 35.1676C413.245 34.1619 413.428 33.2756 413.794 32.5085C414.165 31.7372 414.681 31.1364 415.341 30.706C416.006 30.2713 416.782 30.054 417.668 30.054C418.179 30.054 418.684 30.1392 419.183 30.3097C419.681 30.4801 420.135 30.7571 420.544 31.1406C420.953 31.5199 421.279 32.0227 421.522 32.6491C421.765 33.2756 421.887 34.0469 421.887 34.9631V35.6023H414.319V34.2983H420.353C420.353 33.7443 420.242 33.25 420.02 32.8153C419.803 32.3807 419.492 32.0376 419.087 31.7862C418.686 31.5348 418.213 31.4091 417.668 31.4091C417.067 31.4091 416.547 31.5582 416.108 31.8565C415.674 32.1506 415.339 32.5341 415.105 33.0071C414.87 33.4801 414.753 33.9872 414.753 34.5284V35.3977C414.753 36.1392 414.881 36.7678 415.137 37.2834C415.397 37.7947 415.757 38.1847 416.217 38.4531C416.677 38.7173 417.212 38.8494 417.821 38.8494C418.218 38.8494 418.576 38.794 418.895 38.6832C419.219 38.5682 419.498 38.3977 419.733 38.1719C419.967 37.9418 420.148 37.6562 420.276 37.3153L421.733 37.7244C421.58 38.2188 421.322 38.6534 420.96 39.0284C420.598 39.3991 420.15 39.6889 419.618 39.8977C419.085 40.1023 418.486 40.2045 417.821 40.2045ZM425.69 26.9091V40H424.181V26.9091H425.69ZM429.961 26.9091V40H428.453V26.9091H429.961ZM436.713 40.2045C435.827 40.2045 435.049 39.9936 434.38 39.5717C433.715 39.1499 433.195 38.5597 432.82 37.8011C432.45 37.0426 432.264 36.1562 432.264 35.142C432.264 34.1193 432.45 33.2266 432.82 32.4638C433.195 31.701 433.715 31.1087 434.38 30.6868C435.049 30.2649 435.827 30.054 436.713 30.054C437.599 30.054 438.375 30.2649 439.04 30.6868C439.709 31.1087 440.229 31.701 440.599 32.4638C440.974 33.2266 441.162 34.1193 441.162 35.142C441.162 36.1562 440.974 37.0426 440.599 37.8011C440.229 38.5597 439.709 39.1499 439.04 39.5717C438.375 39.9936 437.599 40.2045 436.713 40.2045ZM436.713 38.8494C437.386 38.8494 437.94 38.6768 438.375 38.3317C438.81 37.9865 439.131 37.5327 439.34 36.9702C439.549 36.4077 439.653 35.7983 439.653 35.142C439.653 34.4858 439.549 33.8743 439.34 33.3075C439.131 32.7408 438.81 32.2827 438.375 31.9332C437.94 31.5838 437.386 31.4091 436.713 31.4091C436.04 31.4091 435.486 31.5838 435.051 31.9332C434.616 32.2827 434.295 32.7408 434.086 33.3075C433.877 33.8743 433.773 34.4858 433.773 35.142C433.773 35.7983 433.877 36.4077 434.086 36.9702C434.295 37.5327 434.616 37.9865 435.051 38.3317C435.486 38.6768 436.04 38.8494 436.713 38.8494ZM450.521 26.9091L450.394 36.3182H448.911L448.783 26.9091H450.521ZM449.652 40.1023C449.337 40.1023 449.066 39.9893 448.84 39.7635C448.615 39.5376 448.502 39.267 448.502 38.9517C448.502 38.6364 448.615 38.3658 448.84 38.1399C449.066 37.9141 449.337 37.8011 449.652 37.8011C449.968 37.8011 450.238 37.9141 450.464 38.1399C450.69 38.3658 450.803 38.6364 450.803 38.9517C450.803 39.1605 450.749 39.3523 450.643 39.527C450.541 39.7017 450.402 39.8423 450.227 39.9489C450.057 40.0511 449.865 40.1023 449.652 40.1023ZM458.804 26.9091H460.696L465.145 37.7756H465.298L469.747 26.9091H471.639V40H470.156V30.054H470.028L465.938 40H464.506L460.415 30.054H460.287V40H458.804V26.9091ZM475.585 43.6818C475.329 43.6818 475.101 43.6605 474.901 43.6179C474.7 43.5795 474.562 43.5412 474.485 43.5028L474.869 42.1733C475.235 42.267 475.559 42.3011 475.84 42.2756C476.122 42.25 476.371 42.1243 476.588 41.8984C476.81 41.6768 477.012 41.3168 477.195 40.8182L477.477 40.0511L473.846 30.1818H475.482L478.193 38.0057H478.295L481.005 30.1818H482.642L478.474 41.4318C478.286 41.9389 478.054 42.3587 477.777 42.6911C477.5 43.0277 477.178 43.277 476.812 43.4389C476.45 43.6009 476.041 43.6818 475.585 43.6818ZM491.204 34.0938V40H489.695V30.1818H491.153V31.7159H491.28C491.51 31.2173 491.86 30.8168 492.329 30.5142C492.797 30.2074 493.403 30.054 494.144 30.054C494.809 30.054 495.39 30.1903 495.889 30.4631C496.388 30.7315 496.775 31.1406 497.052 31.6903C497.329 32.2358 497.468 32.9261 497.468 33.7614V40H495.959V33.8636C495.959 33.0923 495.759 32.4915 495.358 32.0611C494.958 31.6264 494.408 31.4091 493.709 31.4091C493.228 31.4091 492.797 31.5135 492.418 31.7223C492.043 31.9311 491.747 32.2358 491.53 32.6364C491.312 33.0369 491.204 33.5227 491.204 34.0938ZM503.114 40.2301C502.491 40.2301 501.927 40.1129 501.42 39.8786C500.913 39.6399 500.51 39.2969 500.212 38.8494C499.913 38.3977 499.764 37.8523 499.764 37.2131C499.764 36.6506 499.875 36.1946 500.097 35.8452C500.318 35.4915 500.614 35.2145 500.985 35.0142C501.356 34.8139 501.765 34.6648 502.212 34.5668C502.664 34.4645 503.118 34.3835 503.574 34.3239C504.17 34.2472 504.654 34.1896 505.025 34.1513C505.4 34.1087 505.673 34.0384 505.843 33.9403C506.018 33.8423 506.105 33.6719 506.105 33.429V33.3778C506.105 32.7472 505.933 32.2571 505.587 31.9077C505.246 31.5582 504.729 31.3835 504.034 31.3835C503.314 31.3835 502.749 31.5412 502.34 31.8565C501.931 32.1719 501.643 32.5085 501.477 32.8665L500.045 32.3551C500.301 31.7585 500.642 31.294 501.068 30.9616C501.499 30.625 501.967 30.3906 502.474 30.2585C502.986 30.1222 503.489 30.054 503.983 30.054C504.298 30.054 504.661 30.0923 505.07 30.169C505.483 30.2415 505.881 30.3928 506.265 30.6229C506.653 30.853 506.974 31.2003 507.23 31.6648C507.486 32.1293 507.614 32.7514 507.614 33.5312V40H506.105V38.6705H506.028C505.926 38.8835 505.756 39.1115 505.517 39.3544C505.278 39.5973 504.961 39.804 504.565 39.9744C504.168 40.1449 503.685 40.2301 503.114 40.2301ZM503.344 38.875C503.94 38.875 504.443 38.7578 504.852 38.5234C505.266 38.2891 505.577 37.9865 505.786 37.6158C505.999 37.245 506.105 36.8551 506.105 36.446V35.0653C506.041 35.142 505.901 35.2124 505.683 35.2763C505.47 35.3359 505.223 35.3892 504.942 35.4361C504.665 35.4787 504.394 35.517 504.13 35.5511C503.87 35.581 503.659 35.6065 503.497 35.6278C503.105 35.679 502.739 35.7621 502.398 35.8771C502.061 35.9879 501.788 36.1562 501.58 36.3821C501.375 36.6037 501.273 36.9062 501.273 37.2898C501.273 37.8139 501.467 38.2102 501.854 38.4787C502.246 38.7429 502.743 38.875 503.344 38.875ZM510.367 40V30.1818H511.824V31.7159H511.952C512.157 31.1918 512.487 30.7848 512.943 30.495C513.399 30.201 513.947 30.054 514.586 30.054C515.233 30.054 515.773 30.201 516.203 30.495C516.638 30.7848 516.976 31.1918 517.219 31.7159H517.322C517.573 31.2088 517.95 30.8061 518.453 30.5078C518.956 30.2053 519.559 30.054 520.262 30.054C521.14 30.054 521.858 30.3288 522.416 30.8786C522.974 31.424 523.253 32.2741 523.253 33.429V40H521.745V33.429C521.745 32.7045 521.547 32.1868 521.15 31.8757C520.754 31.5646 520.287 31.4091 519.751 31.4091C519.06 31.4091 518.525 31.6179 518.146 32.0355C517.767 32.4489 517.577 32.973 517.577 33.608V40H516.043V33.2756C516.043 32.7173 515.862 32.2678 515.5 31.9268C515.138 31.5817 514.671 31.4091 514.1 31.4091C513.708 31.4091 513.341 31.5135 513.001 31.7223C512.664 31.9311 512.391 32.2209 512.182 32.5916C511.978 32.9581 511.876 33.3821 511.876 33.8636V40H510.367ZM530.128 40.2045C529.182 40.2045 528.366 39.9957 527.68 39.5781C526.998 39.1562 526.472 38.5682 526.101 37.8139C525.735 37.0554 525.551 36.1733 525.551 35.1676C525.551 34.1619 525.735 33.2756 526.101 32.5085C526.472 31.7372 526.987 31.1364 527.648 30.706C528.313 30.2713 529.088 30.054 529.975 30.054C530.486 30.054 530.991 30.1392 531.49 30.3097C531.988 30.4801 532.442 30.7571 532.851 31.1406C533.26 31.5199 533.586 32.0227 533.829 32.6491C534.072 33.2756 534.193 34.0469 534.193 34.9631V35.6023H526.625V34.2983H532.659C532.659 33.7443 532.548 33.25 532.327 32.8153C532.11 32.3807 531.798 32.0376 531.394 31.7862C530.993 31.5348 530.52 31.4091 529.975 31.4091C529.374 31.4091 528.854 31.5582 528.415 31.8565C527.98 32.1506 527.646 32.5341 527.411 33.0071C527.177 33.4801 527.06 33.9872 527.06 34.5284V35.3977C527.06 36.1392 527.188 36.7678 527.443 37.2834C527.703 37.7947 528.063 38.1847 528.524 38.4531C528.984 38.7173 529.519 38.8494 530.128 38.8494C530.524 38.8494 530.882 38.794 531.202 38.6832C531.526 38.5682 531.805 38.3977 532.039 38.1719C532.274 37.9418 532.455 37.6562 532.583 37.3153L534.04 37.7244C533.887 38.2188 533.629 38.6534 533.267 39.0284C532.904 39.3991 532.457 39.6889 531.924 39.8977C531.392 40.1023 530.793 40.2045 530.128 40.2045ZM541.551 40V30.1818H543.059V40H541.551ZM542.318 28.5455C542.024 28.5455 541.77 28.4453 541.557 28.245C541.348 28.0447 541.244 27.804 541.244 27.5227C541.244 27.2415 541.348 27.0007 541.557 26.8004C541.77 26.6001 542.024 26.5 542.318 26.5C542.612 26.5 542.863 26.6001 543.072 26.8004C543.285 27.0007 543.392 27.2415 543.392 27.5227C543.392 27.804 543.285 28.0447 543.072 28.245C542.863 28.4453 542.612 28.5455 542.318 28.5455ZM552.777 32.3807L551.422 32.7642C551.336 32.5384 551.211 32.3189 551.044 32.1058C550.882 31.8885 550.661 31.7095 550.38 31.5689C550.098 31.4283 549.738 31.358 549.299 31.358C548.699 31.358 548.198 31.4964 547.797 31.7734C547.401 32.0462 547.203 32.3935 547.203 32.8153C547.203 33.1903 547.339 33.4865 547.612 33.7038C547.885 33.9212 548.311 34.1023 548.89 34.2472L550.348 34.6051C551.225 34.8182 551.88 35.1442 552.31 35.5831C552.74 36.0178 552.956 36.5781 552.956 37.2642C552.956 37.8267 552.794 38.3295 552.47 38.7727C552.15 39.2159 551.703 39.5653 551.127 39.821C550.552 40.0767 549.883 40.2045 549.12 40.2045C548.119 40.2045 547.29 39.9872 546.634 39.5526C545.978 39.1179 545.562 38.483 545.387 37.6477L546.819 37.2898C546.956 37.8182 547.213 38.2145 547.593 38.4787C547.976 38.7429 548.477 38.875 549.095 38.875C549.798 38.875 550.356 38.7259 550.77 38.4276C551.187 38.125 551.396 37.7628 551.396 37.3409C551.396 37 551.277 36.7145 551.038 36.4844C550.799 36.25 550.433 36.0753 549.939 35.9602L548.302 35.5767C547.403 35.3636 546.743 35.0334 546.321 34.5859C545.903 34.1342 545.694 33.5696 545.694 32.892C545.694 32.3381 545.85 31.848 546.161 31.4219C546.476 30.9957 546.904 30.6612 547.446 30.4183C547.991 30.1754 548.609 30.054 549.299 30.054C550.271 30.054 551.034 30.267 551.588 30.6932C552.146 31.1193 552.542 31.6818 552.777 32.3807ZM407.744 52.1818C407.668 51.5341 407.357 51.0312 406.811 50.6733C406.266 50.3153 405.597 50.1364 404.804 50.1364C404.224 50.1364 403.717 50.2301 403.283 50.4176C402.852 50.6051 402.516 50.8629 402.273 51.1911C402.034 51.5192 401.915 51.892 401.915 52.3097C401.915 52.6591 401.998 52.9595 402.164 53.2109C402.335 53.4581 402.552 53.6648 402.816 53.831C403.08 53.9929 403.357 54.1271 403.647 54.2337C403.937 54.3359 404.203 54.419 404.446 54.483L405.776 54.8409C406.116 54.9304 406.496 55.054 406.913 55.2116C407.335 55.3693 407.738 55.5845 408.121 55.8572C408.509 56.1257 408.829 56.4709 409.08 56.8928C409.332 57.3146 409.457 57.8324 409.457 58.446C409.457 59.1534 409.272 59.7926 408.901 60.3636C408.535 60.9347 407.998 61.3885 407.29 61.7251C406.587 62.0618 405.733 62.2301 404.727 62.2301C403.79 62.2301 402.978 62.0788 402.292 61.7763C401.61 61.4737 401.073 61.0518 400.681 60.5107C400.293 59.9695 400.074 59.3409 400.023 58.625H401.659C401.702 59.1193 401.868 59.5284 402.158 59.8523C402.452 60.1719 402.822 60.4105 403.27 60.5682C403.722 60.7216 404.207 60.7983 404.727 60.7983C405.332 60.7983 405.876 60.7003 406.357 60.5043C406.839 60.304 407.22 60.027 407.501 59.6733C407.783 59.3153 407.923 58.8977 407.923 58.4205C407.923 57.9858 407.802 57.6321 407.559 57.3594C407.316 57.0866 406.996 56.8651 406.6 56.6946C406.204 56.5241 405.776 56.375 405.315 56.2472L403.705 55.7869C402.682 55.4929 401.872 55.0732 401.276 54.5277C400.679 53.9822 400.381 53.2685 400.381 52.3864C400.381 51.6534 400.579 51.0142 400.975 50.4688C401.376 49.919 401.913 49.4929 402.586 49.1903C403.263 48.8835 404.02 48.7301 404.855 48.7301C405.699 48.7301 406.449 48.8814 407.105 49.1839C407.761 49.4822 408.281 49.8913 408.665 50.4112C409.053 50.9311 409.257 51.5213 409.278 52.1818H407.744ZM416.129 52.1818V53.4602H411.041V52.1818H416.129ZM412.524 49.8295H414.032V59.1875C414.032 59.6136 414.094 59.9332 414.218 60.1463C414.346 60.3551 414.508 60.4957 414.704 60.5682C414.904 60.6364 415.115 60.6705 415.336 60.6705C415.503 60.6705 415.639 60.6619 415.746 60.6449C415.852 60.6236 415.937 60.6065 416.001 60.5938L416.308 61.9489C416.206 61.9872 416.063 62.0256 415.88 62.0639C415.697 62.1065 415.464 62.1278 415.183 62.1278C414.757 62.1278 414.339 62.0362 413.93 61.853C413.525 61.6697 413.189 61.3906 412.92 61.0156C412.656 60.6406 412.524 60.1676 412.524 59.5966V49.8295ZM418.398 62V52.1818H419.907V62H418.398ZM419.165 50.5455C418.871 50.5455 418.618 50.4453 418.405 50.245C418.196 50.0447 418.091 49.804 418.091 49.5227C418.091 49.2415 418.196 49.0007 418.405 48.8004C418.618 48.6001 418.871 48.5 419.165 48.5C419.459 48.5 419.711 48.6001 419.92 48.8004C420.133 49.0007 420.239 49.2415 420.239 49.5227C420.239 49.804 420.133 50.0447 419.92 50.245C419.711 50.4453 419.459 50.5455 419.165 50.5455ZM426.658 62.2045C425.738 62.2045 424.945 61.9872 424.281 61.5526C423.616 61.1179 423.104 60.5192 422.746 59.7564C422.388 58.9936 422.21 58.1222 422.21 57.142C422.21 56.1449 422.393 55.2649 422.759 54.5021C423.13 53.7351 423.646 53.1364 424.306 52.706C424.971 52.2713 425.746 52.054 426.633 52.054C427.323 52.054 427.945 52.1818 428.499 52.4375C429.053 52.6932 429.507 53.0511 429.861 53.5114C430.214 53.9716 430.434 54.5085 430.519 55.1222H429.011C428.896 54.6747 428.64 54.2784 428.244 53.9332C427.852 53.5838 427.323 53.4091 426.658 53.4091C426.07 53.4091 425.555 53.5625 425.112 53.8693C424.673 54.1719 424.33 54.6001 424.082 55.1541C423.839 55.7038 423.718 56.3494 423.718 57.0909C423.718 57.8494 423.837 58.5099 424.076 59.0724C424.319 59.6349 424.66 60.0717 425.099 60.3828C425.542 60.6939 426.062 60.8494 426.658 60.8494C427.05 60.8494 427.406 60.7812 427.726 60.6449C428.045 60.5085 428.316 60.3125 428.538 60.0568C428.759 59.8011 428.917 59.4943 429.011 59.1364H430.519C430.434 59.7159 430.223 60.2379 429.886 60.7024C429.554 61.1626 429.113 61.5291 428.563 61.8018C428.018 62.0703 427.383 62.2045 426.658 62.2045ZM439.679 54.3807L438.324 54.7642C438.239 54.5384 438.113 54.3189 437.947 54.1058C437.785 53.8885 437.563 53.7095 437.282 53.5689C437.001 53.4283 436.641 53.358 436.202 53.358C435.601 53.358 435.1 53.4964 434.7 53.7734C434.303 54.0462 434.105 54.3935 434.105 54.8153C434.105 55.1903 434.241 55.4865 434.514 55.7038C434.787 55.9212 435.213 56.1023 435.793 56.2472L437.25 56.6051C438.128 56.8182 438.782 57.1442 439.212 57.5831C439.643 58.0178 439.858 58.5781 439.858 59.2642C439.858 59.8267 439.696 60.3295 439.372 60.7727C439.053 61.2159 438.605 61.5653 438.03 61.821C437.455 62.0767 436.786 62.2045 436.023 62.2045C435.021 62.2045 434.192 61.9872 433.536 61.5526C432.88 61.1179 432.464 60.483 432.29 59.6477L433.722 59.2898C433.858 59.8182 434.116 60.2145 434.495 60.4787C434.879 60.7429 435.379 60.875 435.997 60.875C436.7 60.875 437.259 60.7259 437.672 60.4276C438.089 60.125 438.298 59.7628 438.298 59.3409C438.298 59 438.179 58.7145 437.94 58.4844C437.702 58.25 437.335 58.0753 436.841 57.9602L435.205 57.5767C434.305 57.3636 433.645 57.0334 433.223 56.5859C432.805 56.1342 432.597 55.5696 432.597 54.892C432.597 54.3381 432.752 53.848 433.063 53.4219C433.379 52.9957 433.807 52.6612 434.348 52.4183C434.893 52.1754 435.511 52.054 436.202 52.054C437.173 52.054 437.936 52.267 438.49 52.6932C439.048 53.1193 439.445 53.6818 439.679 54.3807ZM444.123 48.9091L443.995 58.3182H442.512L442.384 48.9091H444.123ZM443.254 62.1023C442.938 62.1023 442.668 61.9893 442.442 61.7635C442.216 61.5376 442.103 61.267 442.103 60.9517C442.103 60.6364 442.216 60.3658 442.442 60.1399C442.668 59.9141 442.938 59.8011 443.254 59.8011C443.569 59.8011 443.84 59.9141 444.066 60.1399C444.291 60.3658 444.404 60.6364 444.404 60.9517C444.404 61.1605 444.351 61.3523 444.244 61.527C444.142 61.7017 444.004 61.8423 443.829 61.9489C443.659 62.0511 443.467 62.1023 443.254 62.1023ZM453.991 48.9091V62H452.406V48.9091H453.991ZM464.916 62.2301C464.294 62.2301 463.73 62.1129 463.222 61.8786C462.715 61.6399 462.313 61.2969 462.014 60.8494C461.716 60.3977 461.567 59.8523 461.567 59.2131C461.567 58.6506 461.678 58.1946 461.899 57.8452C462.121 57.4915 462.417 57.2145 462.788 57.0142C463.159 56.8139 463.568 56.6648 464.015 56.5668C464.467 56.4645 464.921 56.3835 465.377 56.3239C465.973 56.2472 466.457 56.1896 466.828 56.1513C467.203 56.1087 467.475 56.0384 467.646 55.9403C467.82 55.8423 467.908 55.6719 467.908 55.429V55.3778C467.908 54.7472 467.735 54.2571 467.39 53.9077C467.049 53.5582 466.531 53.3835 465.837 53.3835C465.117 53.3835 464.552 53.5412 464.143 53.8565C463.734 54.1719 463.446 54.5085 463.28 54.8665L461.848 54.3551C462.104 53.7585 462.445 53.294 462.871 52.9616C463.301 52.625 463.77 52.3906 464.277 52.2585C464.789 52.1222 465.291 52.054 465.786 52.054C466.101 52.054 466.463 52.0923 466.872 52.169C467.286 52.2415 467.684 52.3928 468.068 52.6229C468.455 52.853 468.777 53.2003 469.033 53.6648C469.289 54.1293 469.416 54.7514 469.416 55.5312V62H467.908V60.6705H467.831C467.729 60.8835 467.558 61.1115 467.32 61.3544C467.081 61.5973 466.764 61.804 466.367 61.9744C465.971 62.1449 465.487 62.2301 464.916 62.2301ZM465.146 60.875C465.743 60.875 466.246 60.7578 466.655 60.5234C467.068 60.2891 467.379 59.9865 467.588 59.6158C467.801 59.245 467.908 58.8551 467.908 58.446V57.0653C467.844 57.142 467.703 57.2124 467.486 57.2763C467.273 57.3359 467.026 57.3892 466.744 57.4361C466.468 57.4787 466.197 57.517 465.933 57.5511C465.673 57.581 465.462 57.6065 465.3 57.6278C464.908 57.679 464.541 57.7621 464.2 57.8771C463.864 57.9879 463.591 58.1562 463.382 58.3821C463.178 58.6037 463.075 58.9062 463.075 59.2898C463.075 59.8139 463.269 60.2102 463.657 60.4787C464.049 60.7429 464.546 60.875 465.146 60.875ZM472.17 62V52.1818H473.627V53.7159H473.755C473.96 53.1918 474.29 52.7848 474.746 52.495C475.202 52.201 475.749 52.054 476.388 52.054C477.036 52.054 477.575 52.201 478.006 52.495C478.44 52.7848 478.779 53.1918 479.022 53.7159H479.124C479.376 53.2088 479.753 52.8061 480.256 52.5078C480.759 52.2053 481.362 52.054 482.065 52.054C482.942 52.054 483.661 52.3288 484.219 52.8786C484.777 53.424 485.056 54.2741 485.056 55.429V62H483.548V55.429C483.548 54.7045 483.349 54.1868 482.953 53.8757C482.557 53.5646 482.09 53.4091 481.553 53.4091C480.863 53.4091 480.328 53.6179 479.949 54.0355C479.57 54.4489 479.38 54.973 479.38 55.608V62H477.846V55.2756C477.846 54.7173 477.665 54.2678 477.303 53.9268C476.94 53.5817 476.474 53.4091 475.903 53.4091C475.511 53.4091 475.144 53.5135 474.803 53.7223C474.467 53.9311 474.194 54.2209 473.985 54.5916C473.781 54.9581 473.678 55.3821 473.678 55.8636V62H472.17ZM494.385 56.0938V62H492.877V48.9091H494.385V53.7159H494.513C494.743 53.2088 495.088 52.8061 495.549 52.5078C496.013 52.2053 496.631 52.054 497.402 52.054C498.071 52.054 498.657 52.1882 499.16 52.4567C499.663 52.7209 500.053 53.1278 500.33 53.6776C500.611 54.223 500.752 54.9176 500.752 55.7614V62H499.243V55.8636C499.243 55.0838 499.041 54.4808 498.636 54.0547C498.235 53.6243 497.679 53.4091 496.968 53.4091C496.473 53.4091 496.03 53.5135 495.638 53.7223C495.25 53.9311 494.944 54.2358 494.718 54.6364C494.496 55.0369 494.385 55.5227 494.385 56.0938ZM507.628 62.2045C506.682 62.2045 505.866 61.9957 505.18 61.5781C504.498 61.1562 503.972 60.5682 503.601 59.8139C503.235 59.0554 503.051 58.1733 503.051 57.1676C503.051 56.1619 503.235 55.2756 503.601 54.5085C503.972 53.7372 504.487 53.1364 505.148 52.706C505.813 52.2713 506.588 52.054 507.475 52.054C507.986 52.054 508.491 52.1392 508.99 52.3097C509.488 52.4801 509.942 52.7571 510.351 53.1406C510.76 53.5199 511.086 54.0227 511.329 54.6491C511.572 55.2756 511.693 56.0469 511.693 56.9631V57.6023H504.125V56.2983H510.159C510.159 55.7443 510.048 55.25 509.827 54.8153C509.61 54.3807 509.298 54.0376 508.894 53.7862C508.493 53.5348 508.02 53.4091 507.475 53.4091C506.874 53.4091 506.354 53.5582 505.915 53.8565C505.48 54.1506 505.146 54.5341 504.911 55.0071C504.677 55.4801 504.56 55.9872 504.56 56.5284V57.3977C504.56 58.1392 504.688 58.7678 504.943 59.2834C505.203 59.7947 505.563 60.1847 506.024 60.4531C506.484 60.7173 507.019 60.8494 507.628 60.8494C508.024 60.8494 508.382 60.794 508.702 60.6832C509.026 60.5682 509.305 60.3977 509.539 60.1719C509.774 59.9418 509.955 59.6562 510.083 59.3153L511.54 59.7244C511.387 60.2188 511.129 60.6534 510.767 61.0284C510.404 61.3991 509.957 61.6889 509.424 61.8977C508.892 62.1023 508.293 62.2045 507.628 62.2045ZM513.988 62V52.1818H515.445V53.6648H515.548C515.727 53.179 516.051 52.7848 516.519 52.4822C516.988 52.1797 517.517 52.0284 518.105 52.0284C518.215 52.0284 518.354 52.0305 518.52 52.0348C518.686 52.0391 518.812 52.0455 518.897 52.054V53.5881C518.846 53.5753 518.729 53.5561 518.546 53.5305C518.367 53.5007 518.177 53.4858 517.977 53.4858C517.499 53.4858 517.073 53.5859 516.698 53.7862C516.328 53.9822 516.034 54.255 515.816 54.6044C515.603 54.9496 515.497 55.3437 515.497 55.7869V62H513.988ZM524.503 62.2045C523.557 62.2045 522.741 61.9957 522.055 61.5781C521.373 61.1562 520.847 60.5682 520.476 59.8139C520.11 59.0554 519.926 58.1733 519.926 57.1676C519.926 56.1619 520.11 55.2756 520.476 54.5085C520.847 53.7372 521.362 53.1364 522.023 52.706C522.688 52.2713 523.463 52.054 524.35 52.054C524.861 52.054 525.366 52.1392 525.865 52.3097C526.363 52.4801 526.817 52.7571 527.226 53.1406C527.635 53.5199 527.961 54.0227 528.204 54.6491C528.447 55.2756 528.568 56.0469 528.568 56.9631V57.6023H521V56.2983H527.034C527.034 55.7443 526.923 55.25 526.702 54.8153C526.485 54.3807 526.173 54.0376 525.769 53.7862C525.368 53.5348 524.895 53.4091 524.35 53.4091C523.749 53.4091 523.229 53.5582 522.79 53.8565C522.355 54.1506 522.021 54.5341 521.786 55.0071C521.552 55.4801 521.435 55.9872 521.435 56.5284V57.3977C521.435 58.1392 521.563 58.7678 521.818 59.2834C522.078 59.7947 522.438 60.1847 522.899 60.4531C523.359 60.7173 523.894 60.8494 524.503 60.8494C524.899 60.8494 525.257 60.794 525.577 60.6832C525.901 60.5682 526.18 60.3977 526.414 60.1719C526.649 59.9418 526.83 59.6562 526.958 59.3153L528.415 59.7244C528.262 60.2188 528.004 60.6534 527.642 61.0284C527.279 61.3991 526.832 61.6889 526.299 61.8977C525.767 62.1023 525.168 62.2045 524.503 62.2045ZM540.195 52.1818V53.4602H535.107V52.1818H540.195ZM536.59 49.8295H538.099V59.1875C538.099 59.6136 538.161 59.9332 538.284 60.1463C538.412 60.3551 538.574 60.4957 538.77 60.5682C538.97 60.6364 539.181 60.6705 539.403 60.6705C539.569 60.6705 539.705 60.6619 539.812 60.6449C539.919 60.6236 540.004 60.6065 540.068 60.5938L540.374 61.9489C540.272 61.9872 540.129 62.0256 539.946 62.0639C539.763 62.1065 539.531 62.1278 539.249 62.1278C538.823 62.1278 538.406 62.0362 537.997 61.853C537.592 61.6697 537.255 61.3906 536.987 61.0156C536.722 60.6406 536.59 60.1676 536.59 59.5966V49.8295ZM546.348 62.2045C545.461 62.2045 544.684 61.9936 544.015 61.5717C543.35 61.1499 542.83 60.5597 542.455 59.8011C542.084 59.0426 541.899 58.1562 541.899 57.142C541.899 56.1193 542.084 55.2266 542.455 54.4638C542.83 53.701 543.35 53.1087 544.015 52.6868C544.684 52.2649 545.461 52.054 546.348 52.054C547.234 52.054 548.01 52.2649 548.675 52.6868C549.344 53.1087 549.863 53.701 550.234 54.4638C550.609 55.2266 550.797 56.1193 550.797 57.142C550.797 58.1562 550.609 59.0426 550.234 59.8011C549.863 60.5597 549.344 61.1499 548.675 61.5717C548.01 61.9936 547.234 62.2045 546.348 62.2045ZM546.348 60.8494C547.021 60.8494 547.575 60.6768 548.01 60.3317C548.444 59.9865 548.766 59.5327 548.975 58.9702C549.184 58.4077 549.288 57.7983 549.288 57.142C549.288 56.4858 549.184 55.8743 548.975 55.3075C548.766 54.7408 548.444 54.2827 548.01 53.9332C547.575 53.5838 547.021 53.4091 546.348 53.4091C545.675 53.4091 545.121 53.5838 544.686 53.9332C544.251 54.2827 543.93 54.7408 543.721 55.3075C543.512 55.8743 543.407 56.4858 543.407 57.142C543.407 57.7983 543.512 58.4077 543.721 58.9702C543.93 59.5327 544.251 59.9865 544.686 60.3317C545.121 60.6768 545.675 60.8494 546.348 60.8494ZM403.27 84.2301C402.648 84.2301 402.083 84.1129 401.576 83.8786C401.069 83.6399 400.666 83.2969 400.368 82.8494C400.07 82.3977 399.92 81.8523 399.92 81.2131C399.92 80.6506 400.031 80.1946 400.253 79.8452C400.474 79.4915 400.771 79.2145 401.141 79.0142C401.512 78.8139 401.921 78.6648 402.369 78.5668C402.82 78.4645 403.274 78.3835 403.73 78.3239C404.327 78.2472 404.81 78.1896 405.181 78.1513C405.556 78.1087 405.829 78.0384 405.999 77.9403C406.174 77.8423 406.261 77.6719 406.261 77.429V77.3778C406.261 76.7472 406.089 76.2571 405.744 75.9077C405.403 75.5582 404.885 75.3835 404.19 75.3835C403.47 75.3835 402.906 75.5412 402.496 75.8565C402.087 76.1719 401.8 76.5085 401.634 76.8665L400.202 76.3551C400.457 75.7585 400.798 75.294 401.224 74.9616C401.655 74.625 402.124 74.3906 402.631 74.2585C403.142 74.1222 403.645 74.054 404.139 74.054C404.455 74.054 404.817 74.0923 405.226 74.169C405.639 74.2415 406.038 74.3928 406.421 74.6229C406.809 74.853 407.131 75.2003 407.386 75.6648C407.642 76.1293 407.77 76.7514 407.77 77.5312V84H406.261V82.6705H406.185C406.082 82.8835 405.912 83.1115 405.673 83.3544C405.435 83.5973 405.117 83.804 404.721 83.9744C404.325 84.1449 403.841 84.2301 403.27 84.2301ZM403.5 82.875C404.097 82.875 404.599 82.7578 405.009 82.5234C405.422 82.2891 405.733 81.9865 405.942 81.6158C406.155 81.245 406.261 80.8551 406.261 80.446V79.0653C406.197 79.142 406.057 79.2124 405.839 79.2763C405.626 79.3359 405.379 79.3892 405.098 79.4361C404.821 79.4787 404.55 79.517 404.286 79.5511C404.026 79.581 403.815 79.6065 403.653 79.6278C403.261 79.679 402.895 79.7621 402.554 79.8771C402.217 79.9879 401.945 80.1562 401.736 80.3821C401.531 80.6037 401.429 80.9062 401.429 81.2898C401.429 81.8139 401.623 82.2102 402.011 82.4787C402.403 82.7429 402.899 82.875 403.5 82.875ZM417.478 76.3807L416.123 76.7642C416.037 76.5384 415.912 76.3189 415.746 76.1058C415.584 75.8885 415.362 75.7095 415.081 75.5689C414.8 75.4283 414.439 75.358 414.001 75.358C413.4 75.358 412.899 75.4964 412.498 75.7734C412.102 76.0462 411.904 76.3935 411.904 76.8153C411.904 77.1903 412.04 77.4865 412.313 77.7038C412.586 77.9212 413.012 78.1023 413.591 78.2472L415.049 78.6051C415.927 78.8182 416.581 79.1442 417.011 79.5831C417.442 80.0178 417.657 80.5781 417.657 81.2642C417.657 81.8267 417.495 82.3295 417.171 82.7727C416.851 83.2159 416.404 83.5653 415.829 83.821C415.253 84.0767 414.584 84.2045 413.822 84.2045C412.82 84.2045 411.991 83.9872 411.335 83.5526C410.679 83.1179 410.263 82.483 410.089 81.6477L411.52 81.2898C411.657 81.8182 411.915 82.2145 412.294 82.4787C412.677 82.7429 413.178 82.875 413.796 82.875C414.499 82.875 415.057 82.7259 415.471 82.4276C415.888 82.125 416.097 81.7628 416.097 81.3409C416.097 81 415.978 80.7145 415.739 80.4844C415.501 80.25 415.134 80.0753 414.64 79.9602L413.003 79.5767C412.104 79.3636 411.444 79.0334 411.022 78.5859C410.604 78.1342 410.395 77.5696 410.395 76.892C410.395 76.3381 410.551 75.848 410.862 75.4219C411.177 74.9957 411.606 74.6612 412.147 74.4183C412.692 74.1754 413.31 74.054 414.001 74.054C414.972 74.054 415.735 74.267 416.289 74.6932C416.847 75.1193 417.243 75.6818 417.478 76.3807ZM426.882 76.3807L425.527 76.7642C425.442 76.5384 425.316 76.3189 425.15 76.1058C424.988 75.8885 424.766 75.7095 424.485 75.5689C424.204 75.4283 423.844 75.358 423.405 75.358C422.804 75.358 422.303 75.4964 421.903 75.7734C421.506 76.0462 421.308 76.3935 421.308 76.8153C421.308 77.1903 421.445 77.4865 421.717 77.7038C421.99 77.9212 422.416 78.1023 422.996 78.2472L424.453 78.6051C425.331 78.8182 425.985 79.1442 426.415 79.5831C426.846 80.0178 427.061 80.5781 427.061 81.2642C427.061 81.8267 426.899 82.3295 426.575 82.7727C426.256 83.2159 425.808 83.5653 425.233 83.821C424.658 84.0767 423.989 84.2045 423.226 84.2045C422.224 84.2045 421.396 83.9872 420.739 83.5526C420.083 83.1179 419.668 82.483 419.493 81.6477L420.925 81.2898C421.061 81.8182 421.319 82.2145 421.698 82.4787C422.082 82.7429 422.582 82.875 423.2 82.875C423.903 82.875 424.462 82.7259 424.875 82.4276C425.293 82.125 425.501 81.7628 425.501 81.3409C425.501 81 425.382 80.7145 425.143 80.4844C424.905 80.25 424.538 80.0753 424.044 79.9602L422.408 79.5767C421.509 79.3636 420.848 79.0334 420.426 78.5859C420.009 78.1342 419.8 77.5696 419.8 76.892C419.8 76.3381 419.955 75.848 420.266 75.4219C420.582 74.9957 421.01 74.6612 421.551 74.4183C422.097 74.1754 422.714 74.054 423.405 74.054C424.376 74.054 425.139 74.267 425.693 74.6932C426.251 75.1193 426.648 75.6818 426.882 76.3807ZM429.332 84V74.1818H430.84V84H429.332ZM430.099 72.5455C429.805 72.5455 429.551 72.4453 429.338 72.245C429.129 72.0447 429.025 71.804 429.025 71.5227C429.025 71.2415 429.129 71.0007 429.338 70.8004C429.551 70.6001 429.805 70.5 430.099 70.5C430.393 70.5 430.644 70.6001 430.853 70.8004C431.066 71.0007 431.173 71.2415 431.173 71.5227C431.173 71.804 431.066 72.0447 430.853 72.245C430.644 72.4453 430.393 72.5455 430.099 72.5455ZM440.558 76.3807L439.203 76.7642C439.118 76.5384 438.992 76.3189 438.826 76.1058C438.664 75.8885 438.442 75.7095 438.161 75.5689C437.88 75.4283 437.52 75.358 437.081 75.358C436.48 75.358 435.979 75.4964 435.578 75.7734C435.182 76.0462 434.984 76.3935 434.984 76.8153C434.984 77.1903 435.12 77.4865 435.393 77.7038C435.666 77.9212 436.092 78.1023 436.672 78.2472L438.129 78.6051C439.007 78.8182 439.661 79.1442 440.091 79.5831C440.522 80.0178 440.737 80.5781 440.737 81.2642C440.737 81.8267 440.575 82.3295 440.251 82.7727C439.931 83.2159 439.484 83.5653 438.909 83.821C438.333 84.0767 437.664 84.2045 436.902 84.2045C435.9 84.2045 435.071 83.9872 434.415 83.5526C433.759 83.1179 433.343 82.483 433.169 81.6477L434.6 81.2898C434.737 81.8182 434.995 82.2145 435.374 82.4787C435.757 82.7429 436.258 82.875 436.876 82.875C437.579 82.875 438.137 82.7259 438.551 82.4276C438.968 82.125 439.177 81.7628 439.177 81.3409C439.177 81 439.058 80.7145 438.819 80.4844C438.581 80.25 438.214 80.0753 437.72 79.9602L436.083 79.5767C435.184 79.3636 434.524 79.0334 434.102 78.5859C433.684 78.1342 433.475 77.5696 433.475 76.892C433.475 76.3381 433.631 75.848 433.942 75.4219C434.257 74.9957 434.686 74.6612 435.227 74.4183C435.772 74.1754 436.39 74.054 437.081 74.054C438.052 74.054 438.815 74.267 439.369 74.6932C439.927 75.1193 440.324 75.6818 440.558 76.3807ZM447.278 74.1818V75.4602H442.189V74.1818H447.278ZM443.672 71.8295H445.181V81.1875C445.181 81.6136 445.243 81.9332 445.366 82.1463C445.494 82.3551 445.656 82.4957 445.852 82.5682C446.052 82.6364 446.263 82.6705 446.485 82.6705C446.651 82.6705 446.787 82.6619 446.894 82.6449C447.001 82.6236 447.086 82.6065 447.15 82.5938L447.456 83.9489C447.354 83.9872 447.211 84.0256 447.028 84.0639C446.845 84.1065 446.613 84.1278 446.331 84.1278C445.905 84.1278 445.488 84.0362 445.079 83.853C444.674 83.6697 444.337 83.3906 444.069 83.0156C443.805 82.6406 443.672 82.1676 443.672 81.5966V71.8295ZM455.581 87.6818C455.325 87.6818 455.097 87.6605 454.897 87.6179C454.697 87.5795 454.558 87.5412 454.481 87.5028L454.865 86.1733C455.231 86.267 455.555 86.3011 455.836 86.2756C456.118 86.25 456.367 86.1243 456.584 85.8984C456.806 85.6768 457.008 85.3168 457.192 84.8182L457.473 84.0511L453.842 74.1818H455.479L458.189 82.0057H458.291L461.001 74.1818H462.638L458.47 85.4318C458.282 85.9389 458.05 86.3587 457.773 86.6911C457.496 87.0277 457.175 87.277 456.808 87.4389C456.446 87.6009 456.037 87.6818 455.581 87.6818ZM468.266 84.2045C467.379 84.2045 466.602 83.9936 465.933 83.5717C465.268 83.1499 464.748 82.5597 464.373 81.8011C464.002 81.0426 463.817 80.1562 463.817 79.142C463.817 78.1193 464.002 77.2266 464.373 76.4638C464.748 75.701 465.268 75.1087 465.933 74.6868C466.602 74.2649 467.379 74.054 468.266 74.054C469.152 74.054 469.928 74.2649 470.593 74.6868C471.262 75.1087 471.781 75.701 472.152 76.4638C472.527 77.2266 472.715 78.1193 472.715 79.142C472.715 80.1562 472.527 81.0426 472.152 81.8011C471.781 82.5597 471.262 83.1499 470.593 83.5717C469.928 83.9936 469.152 84.2045 468.266 84.2045ZM468.266 82.8494C468.939 82.8494 469.493 82.6768 469.928 82.3317C470.362 81.9865 470.684 81.5327 470.893 80.9702C471.102 80.4077 471.206 79.7983 471.206 79.142C471.206 78.4858 471.102 77.8743 470.893 77.3075C470.684 76.7408 470.362 76.2827 469.928 75.9332C469.493 75.5838 468.939 75.4091 468.266 75.4091C467.593 75.4091 467.039 75.5838 466.604 75.9332C466.169 76.2827 465.847 76.7408 465.639 77.3075C465.43 77.8743 465.325 78.4858 465.325 79.142C465.325 79.7983 465.43 80.4077 465.639 80.9702C465.847 81.5327 466.169 81.9865 466.604 82.3317C467.039 82.6768 467.593 82.8494 468.266 82.8494ZM481.205 79.9858V74.1818H482.713V84H481.205V82.3381H481.103C480.873 82.8366 480.515 83.2607 480.029 83.6101C479.543 83.9553 478.929 84.1278 478.188 84.1278C477.574 84.1278 477.029 83.9936 476.551 83.7251C476.074 83.4524 475.699 83.0433 475.426 82.4979C475.154 81.9482 475.017 81.2557 475.017 80.4205V74.1818H476.526V80.3182C476.526 81.0341 476.726 81.6051 477.127 82.0312C477.532 82.4574 478.047 82.6705 478.674 82.6705C479.049 82.6705 479.43 82.5746 479.818 82.3828C480.21 82.1911 480.538 81.897 480.802 81.5007C481.071 81.1044 481.205 80.5994 481.205 79.9858ZM404.651 96.1818V97.4602H399.562V96.1818H404.651ZM401.045 93.8295H402.554V103.188C402.554 103.614 402.616 103.933 402.739 104.146C402.867 104.355 403.029 104.496 403.225 104.568C403.425 104.636 403.636 104.67 403.858 104.67C404.024 104.67 404.161 104.662 404.267 104.645C404.374 104.624 404.459 104.607 404.523 104.594L404.83 105.949C404.727 105.987 404.585 106.026 404.401 106.064C404.218 106.107 403.986 106.128 403.705 106.128C403.278 106.128 402.861 106.036 402.452 105.853C402.047 105.67 401.71 105.391 401.442 105.016C401.178 104.641 401.045 104.168 401.045 103.597V93.8295ZM408.639 100.094V106H407.131V92.9091H408.639V97.7159H408.767C408.997 97.2088 409.342 96.8061 409.803 96.5078C410.267 96.2053 410.885 96.054 411.656 96.054C412.325 96.054 412.911 96.1882 413.414 96.4567C413.917 96.7209 414.307 97.1278 414.584 97.6776C414.865 98.223 415.006 98.9176 415.006 99.7614V106H413.497V99.8636C413.497 99.0838 413.295 98.4808 412.89 98.0547C412.489 97.6243 411.933 97.4091 411.222 97.4091C410.727 97.4091 410.284 97.5135 409.892 97.7223C409.504 97.9311 409.197 98.2358 408.972 98.6364C408.75 99.0369 408.639 99.5227 408.639 100.094ZM417.765 106V96.1818H419.223V97.6648H419.325C419.504 97.179 419.828 96.7848 420.297 96.4822C420.765 96.1797 421.294 96.0284 421.882 96.0284C421.993 96.0284 422.131 96.0305 422.297 96.0348C422.464 96.0391 422.589 96.0455 422.675 96.054V97.5881C422.623 97.5753 422.506 97.5561 422.323 97.5305C422.144 97.5007 421.954 97.4858 421.754 97.4858C421.277 97.4858 420.851 97.5859 420.476 97.7862C420.105 97.9822 419.811 98.255 419.594 98.6044C419.381 98.9496 419.274 99.3437 419.274 99.7869V106H417.765ZM428.153 106.205C427.266 106.205 426.488 105.994 425.819 105.572C425.155 105.15 424.635 104.56 424.26 103.801C423.889 103.043 423.704 102.156 423.704 101.142C423.704 100.119 423.889 99.2266 424.26 98.4638C424.635 97.701 425.155 97.1087 425.819 96.6868C426.488 96.2649 427.266 96.054 428.153 96.054C429.039 96.054 429.814 96.2649 430.479 96.6868C431.148 97.1087 431.668 97.701 432.039 98.4638C432.414 99.2266 432.601 100.119 432.601 101.142C432.601 102.156 432.414 103.043 432.039 103.801C431.668 104.56 431.148 105.15 430.479 105.572C429.814 105.994 429.039 106.205 428.153 106.205ZM428.153 104.849C428.826 104.849 429.38 104.677 429.814 104.332C430.249 103.987 430.571 103.533 430.78 102.97C430.988 102.408 431.093 101.798 431.093 101.142C431.093 100.486 430.988 99.8743 430.78 99.3075C430.571 98.7408 430.249 98.2827 429.814 97.9332C429.38 97.5838 428.826 97.4091 428.153 97.4091C427.479 97.4091 426.925 97.5838 426.491 97.9332C426.056 98.2827 425.734 98.7408 425.525 99.3075C425.317 99.8743 425.212 100.486 425.212 101.142C425.212 101.798 425.317 102.408 425.525 102.97C425.734 103.533 426.056 103.987 426.491 104.332C426.925 104.677 427.479 104.849 428.153 104.849ZM441.092 101.986V96.1818H442.6V106H441.092V104.338H440.989C440.759 104.837 440.401 105.261 439.915 105.61C439.43 105.955 438.816 106.128 438.075 106.128C437.461 106.128 436.915 105.994 436.438 105.725C435.961 105.452 435.586 105.043 435.313 104.498C435.04 103.948 434.904 103.256 434.904 102.42V96.1818H436.413V102.318C436.413 103.034 436.613 103.605 437.013 104.031C437.418 104.457 437.934 104.67 438.56 104.67C438.935 104.67 439.317 104.575 439.705 104.383C440.097 104.191 440.425 103.897 440.689 103.501C440.957 103.104 441.092 102.599 441.092 101.986ZM449.326 109.886C448.597 109.886 447.971 109.793 447.447 109.605C446.923 109.422 446.486 109.179 446.137 108.876C445.791 108.578 445.517 108.259 445.312 107.918L446.514 107.074C446.65 107.253 446.823 107.457 447.031 107.688C447.24 107.922 447.526 108.124 447.888 108.295C448.254 108.469 448.734 108.557 449.326 108.557C450.119 108.557 450.773 108.365 451.289 107.982C451.804 107.598 452.062 106.997 452.062 106.179V104.185H451.934C451.823 104.364 451.666 104.585 451.461 104.849C451.261 105.109 450.971 105.342 450.592 105.546C450.217 105.746 449.71 105.847 449.07 105.847C448.278 105.847 447.566 105.659 446.936 105.284C446.309 104.909 445.813 104.364 445.446 103.648C445.084 102.932 444.903 102.062 444.903 101.04C444.903 100.034 445.08 99.1584 445.433 98.4126C445.787 97.6626 446.279 97.0831 446.91 96.674C447.541 96.2607 448.269 96.054 449.096 96.054C449.735 96.054 450.242 96.1605 450.617 96.3736C450.997 96.5824 451.286 96.821 451.487 97.0895C451.691 97.3537 451.849 97.571 451.96 97.7415H452.113V96.1818H453.57V106.281C453.57 107.125 453.379 107.811 452.995 108.339C452.616 108.872 452.105 109.262 451.461 109.509C450.822 109.761 450.11 109.886 449.326 109.886ZM449.275 104.491C449.88 104.491 450.392 104.353 450.809 104.076C451.227 103.799 451.544 103.401 451.762 102.881C451.979 102.361 452.088 101.739 452.088 101.014C452.088 100.307 451.981 99.6825 451.768 99.1413C451.555 98.6001 451.24 98.1761 450.822 97.8693C450.404 97.5625 449.889 97.4091 449.275 97.4091C448.636 97.4091 448.103 97.571 447.677 97.8949C447.255 98.2187 446.938 98.6534 446.725 99.1989C446.516 99.7443 446.411 100.349 446.411 101.014C446.411 101.696 446.518 102.299 446.731 102.823C446.948 103.343 447.268 103.752 447.69 104.05C448.116 104.344 448.644 104.491 449.275 104.491ZM457.84 100.094V106H456.332V92.9091H457.84V97.7159H457.968C458.198 97.2088 458.544 96.8061 459.004 96.5078C459.468 96.2053 460.086 96.054 460.857 96.054C461.526 96.054 462.112 96.1882 462.615 96.4567C463.118 96.7209 463.508 97.1278 463.785 97.6776C464.066 98.223 464.207 98.9176 464.207 99.7614V106H462.698V99.8636C462.698 99.0838 462.496 98.4808 462.091 98.0547C461.691 97.6243 461.134 97.4091 460.423 97.4091C459.928 97.4091 459.485 97.5135 459.093 97.7223C458.705 97.9311 458.399 98.2358 458.173 98.6364C457.951 99.0369 457.84 99.5227 457.84 100.094ZM470.955 106.205C470.069 106.205 469.291 105.994 468.622 105.572C467.957 105.15 467.438 104.56 467.062 103.801C466.692 103.043 466.506 102.156 466.506 101.142C466.506 100.119 466.692 99.2266 467.062 98.4638C467.438 97.701 467.957 97.1087 468.622 96.6868C469.291 96.2649 470.069 96.054 470.955 96.054C471.842 96.054 472.617 96.2649 473.282 96.6868C473.951 97.1087 474.471 97.701 474.842 98.4638C475.217 99.2266 475.404 100.119 475.404 101.142C475.404 102.156 475.217 103.043 474.842 103.801C474.471 104.56 473.951 105.15 473.282 105.572C472.617 105.994 471.842 106.205 470.955 106.205ZM470.955 104.849C471.629 104.849 472.183 104.677 472.617 104.332C473.052 103.987 473.374 103.533 473.582 102.97C473.791 102.408 473.896 101.798 473.896 101.142C473.896 100.486 473.791 99.8743 473.582 99.3075C473.374 98.7408 473.052 98.2827 472.617 97.9332C472.183 97.5838 471.629 97.4091 470.955 97.4091C470.282 97.4091 469.728 97.5838 469.293 97.9332C468.859 98.2827 468.537 98.7408 468.328 99.3075C468.119 99.8743 468.015 100.486 468.015 101.142C468.015 101.798 468.119 102.408 468.328 102.97C468.537 103.533 468.859 103.987 469.293 104.332C469.728 104.677 470.282 104.849 470.955 104.849ZM483.894 101.986V96.1818H485.403V106H483.894V104.338H483.792C483.562 104.837 483.204 105.261 482.718 105.61C482.232 105.955 481.619 106.128 480.877 106.128C480.264 106.128 479.718 105.994 479.241 105.725C478.764 105.452 478.389 105.043 478.116 104.498C477.843 103.948 477.707 103.256 477.707 102.42V96.1818H479.215V102.318C479.215 103.034 479.416 103.605 479.816 104.031C480.221 104.457 480.737 104.67 481.363 104.67C481.738 104.67 482.119 104.575 482.507 104.383C482.899 104.191 483.227 103.897 483.492 103.501C483.76 103.104 483.894 102.599 483.894 101.986ZM492.436 96.1818V97.4602H487.348V96.1818H492.436ZM488.831 93.8295H490.339V103.188C490.339 103.614 490.401 103.933 490.525 104.146C490.652 104.355 490.814 104.496 491.01 104.568C491.211 104.636 491.422 104.67 491.643 104.67C491.809 104.67 491.946 104.662 492.052 104.645C492.159 104.624 492.244 104.607 492.308 104.594L492.615 105.949C492.512 105.987 492.37 106.026 492.186 106.064C492.003 106.107 491.771 106.128 491.49 106.128C491.064 106.128 490.646 106.036 490.237 105.853C489.832 105.67 489.495 105.391 489.227 105.016C488.963 104.641 488.831 104.168 488.831 103.597V93.8295ZM500.739 109.682C500.483 109.682 500.255 109.661 500.055 109.618C499.855 109.58 499.716 109.541 499.64 109.503L500.023 108.173C500.39 108.267 500.713 108.301 500.995 108.276C501.276 108.25 501.525 108.124 501.743 107.898C501.964 107.677 502.167 107.317 502.35 106.818L502.631 106.051L499 96.1818H500.637L503.347 104.006H503.449L506.159 96.1818H507.796L503.628 107.432C503.441 107.939 503.208 108.359 502.931 108.691C502.654 109.028 502.333 109.277 501.966 109.439C501.604 109.601 501.195 109.682 500.739 109.682ZM513.424 106.205C512.538 106.205 511.76 105.994 511.091 105.572C510.426 105.15 509.906 104.56 509.531 103.801C509.161 103.043 508.975 102.156 508.975 101.142C508.975 100.119 509.161 99.2266 509.531 98.4638C509.906 97.701 510.426 97.1087 511.091 96.6868C511.76 96.2649 512.538 96.054 513.424 96.054C514.31 96.054 515.086 96.2649 515.751 96.6868C516.42 97.1087 516.94 97.701 517.31 98.4638C517.685 99.2266 517.873 100.119 517.873 101.142C517.873 102.156 517.685 103.043 517.31 103.801C516.94 104.56 516.42 105.15 515.751 105.572C515.086 105.994 514.31 106.205 513.424 106.205ZM513.424 104.849C514.097 104.849 514.651 104.677 515.086 104.332C515.521 103.987 515.842 103.533 516.051 102.97C516.26 102.408 516.364 101.798 516.364 101.142C516.364 100.486 516.26 99.8743 516.051 99.3075C515.842 98.7408 515.521 98.2827 515.086 97.9332C514.651 97.5838 514.097 97.4091 513.424 97.4091C512.751 97.4091 512.197 97.5838 511.762 97.9332C511.327 98.2827 511.006 98.7408 510.797 99.3075C510.588 99.8743 510.484 100.486 510.484 101.142C510.484 101.798 510.588 102.408 510.797 102.97C511.006 103.533 511.327 103.987 511.762 104.332C512.197 104.677 512.751 104.849 513.424 104.849ZM526.363 101.986V96.1818H527.872V106H526.363V104.338H526.261C526.031 104.837 525.673 105.261 525.187 105.61C524.701 105.955 524.088 106.128 523.346 106.128C522.732 106.128 522.187 105.994 521.71 105.725C521.232 105.452 520.857 105.043 520.585 104.498C520.312 103.948 520.176 103.256 520.176 102.42V96.1818H521.684V102.318C521.684 103.034 521.884 103.605 522.285 104.031C522.69 104.457 523.205 104.67 523.832 104.67C524.207 104.67 524.588 104.575 524.976 104.383C525.368 104.191 525.696 103.897 525.96 103.501C526.229 103.104 526.363 102.599 526.363 101.986ZM530.635 106V96.1818H532.092V97.6648H532.194C532.373 97.179 532.697 96.7848 533.166 96.4822C533.635 96.1797 534.163 96.0284 534.751 96.0284C534.862 96.0284 535 96.0305 535.167 96.0348C535.333 96.0391 535.458 96.0455 535.544 96.054V97.5881C535.493 97.5753 535.375 97.5561 535.192 97.5305C535.013 97.5007 534.824 97.4858 534.623 97.4858C534.146 97.4858 533.72 97.5859 533.345 97.7862C532.974 97.9822 532.68 98.255 532.463 98.6044C532.25 98.9496 532.143 99.3437 532.143 99.7869V106H530.635ZM400.381 118.182H401.889V128.716C401.889 129.321 401.785 129.845 401.576 130.288C401.371 130.732 401.06 131.075 400.643 131.317C400.229 131.56 399.707 131.682 399.077 131.682C399.026 131.682 398.974 131.682 398.923 131.682C398.872 131.682 398.821 131.682 398.77 131.682V130.276C398.821 130.276 398.868 130.276 398.911 130.276C398.953 130.276 399 130.276 399.051 130.276C399.511 130.276 399.848 130.139 400.061 129.866C400.274 129.598 400.381 129.214 400.381 128.716V118.182ZM401.122 116.545C400.828 116.545 400.575 116.445 400.362 116.245C400.153 116.045 400.048 115.804 400.048 115.523C400.048 115.241 400.153 115.001 400.362 114.8C400.575 114.6 400.828 114.5 401.122 114.5C401.416 114.5 401.668 114.6 401.876 114.8C402.089 115.001 402.196 115.241 402.196 115.523C402.196 115.804 402.089 116.045 401.876 116.245C401.668 116.445 401.416 116.545 401.122 116.545ZM408.641 128.205C407.754 128.205 406.977 127.994 406.308 127.572C405.643 127.15 405.123 126.56 404.748 125.801C404.377 125.043 404.192 124.156 404.192 123.142C404.192 122.119 404.377 121.227 404.748 120.464C405.123 119.701 405.643 119.109 406.308 118.687C406.977 118.265 407.754 118.054 408.641 118.054C409.527 118.054 410.303 118.265 410.968 118.687C411.637 119.109 412.156 119.701 412.527 120.464C412.902 121.227 413.09 122.119 413.09 123.142C413.09 124.156 412.902 125.043 412.527 125.801C412.156 126.56 411.637 127.15 410.968 127.572C410.303 127.994 409.527 128.205 408.641 128.205ZM408.641 126.849C409.314 126.849 409.868 126.677 410.303 126.332C410.737 125.987 411.059 125.533 411.268 124.97C411.477 124.408 411.581 123.798 411.581 123.142C411.581 122.486 411.477 121.874 411.268 121.308C411.059 120.741 410.737 120.283 410.303 119.933C409.868 119.584 409.314 119.409 408.641 119.409C407.968 119.409 407.414 119.584 406.979 119.933C406.544 120.283 406.222 120.741 406.014 121.308C405.805 121.874 405.7 122.486 405.7 123.142C405.7 123.798 405.805 124.408 406.014 124.97C406.222 125.533 406.544 125.987 406.979 126.332C407.414 126.677 407.968 126.849 408.641 126.849ZM421.58 123.986V118.182H423.088V128H421.58V126.338H421.478C421.248 126.837 420.89 127.261 420.404 127.61C419.918 127.955 419.304 128.128 418.563 128.128C417.949 128.128 417.404 127.994 416.926 127.725C416.449 127.452 416.074 127.043 415.801 126.498C415.529 125.948 415.392 125.256 415.392 124.42V118.182H416.901V124.318C416.901 125.034 417.101 125.605 417.502 126.031C417.907 126.457 418.422 126.67 419.049 126.67C419.424 126.67 419.805 126.575 420.193 126.383C420.585 126.191 420.913 125.897 421.177 125.501C421.446 125.104 421.58 124.599 421.58 123.986ZM425.851 128V118.182H427.309V119.665H427.411C427.59 119.179 427.914 118.785 428.383 118.482C428.851 118.18 429.38 118.028 429.968 118.028C430.079 118.028 430.217 118.031 430.383 118.035C430.55 118.039 430.675 118.045 430.76 118.054V119.588C430.709 119.575 430.592 119.556 430.409 119.531C430.23 119.501 430.04 119.486 429.84 119.486C429.363 119.486 428.937 119.586 428.562 119.786C428.191 119.982 427.897 120.255 427.68 120.604C427.466 120.95 427.36 121.344 427.36 121.787V128H425.851ZM434.057 122.094V128H432.549V118.182H434.006V119.716H434.134C434.364 119.217 434.713 118.817 435.182 118.514C435.651 118.207 436.256 118.054 436.998 118.054C437.662 118.054 438.244 118.19 438.743 118.463C439.241 118.732 439.629 119.141 439.906 119.69C440.183 120.236 440.321 120.926 440.321 121.761V128H438.813V121.864C438.813 121.092 438.613 120.491 438.212 120.061C437.811 119.626 437.262 119.409 436.563 119.409C436.081 119.409 435.651 119.513 435.272 119.722C434.897 119.931 434.6 120.236 434.383 120.636C434.166 121.037 434.057 121.523 434.057 122.094ZM447.194 128.205C446.248 128.205 445.432 127.996 444.746 127.578C444.064 127.156 443.538 126.568 443.167 125.814C442.801 125.055 442.618 124.173 442.618 123.168C442.618 122.162 442.801 121.276 443.167 120.509C443.538 119.737 444.054 119.136 444.714 118.706C445.379 118.271 446.155 118.054 447.041 118.054C447.552 118.054 448.057 118.139 448.556 118.31C449.055 118.48 449.508 118.757 449.917 119.141C450.327 119.52 450.653 120.023 450.895 120.649C451.138 121.276 451.26 122.047 451.26 122.963V123.602H443.692V122.298H449.726C449.726 121.744 449.615 121.25 449.393 120.815C449.176 120.381 448.865 120.038 448.46 119.786C448.059 119.535 447.586 119.409 447.041 119.409C446.44 119.409 445.92 119.558 445.481 119.857C445.047 120.151 444.712 120.534 444.478 121.007C444.243 121.48 444.126 121.987 444.126 122.528V123.398C444.126 124.139 444.254 124.768 444.51 125.283C444.77 125.795 445.13 126.185 445.59 126.453C446.05 126.717 446.585 126.849 447.194 126.849C447.591 126.849 447.949 126.794 448.268 126.683C448.592 126.568 448.871 126.398 449.106 126.172C449.34 125.942 449.521 125.656 449.649 125.315L451.106 125.724C450.953 126.219 450.695 126.653 450.333 127.028C449.971 127.399 449.523 127.689 448.991 127.898C448.458 128.102 447.859 128.205 447.194 128.205ZM454.227 131.682C453.972 131.682 453.744 131.661 453.543 131.618C453.343 131.58 453.205 131.541 453.128 131.503L453.511 130.173C453.878 130.267 454.202 130.301 454.483 130.276C454.764 130.25 455.013 130.124 455.231 129.898C455.452 129.677 455.655 129.317 455.838 128.818L456.119 128.051L452.489 118.182H454.125L456.835 126.006H456.938L459.648 118.182H461.284L457.116 129.432C456.929 129.939 456.697 130.359 456.42 130.691C456.143 131.028 455.821 131.277 455.455 131.439C455.092 131.601 454.683 131.682 454.227 131.682ZM470.332 114.909L470.204 124.318H468.721L468.593 114.909H470.332ZM469.463 128.102C469.147 128.102 468.877 127.989 468.651 127.763C468.425 127.538 468.312 127.267 468.312 126.952C468.312 126.636 468.425 126.366 468.651 126.14C468.877 125.914 469.147 125.801 469.463 125.801C469.778 125.801 470.049 125.914 470.275 126.14C470.5 126.366 470.613 126.636 470.613 126.952C470.613 127.161 470.56 127.352 470.453 127.527C470.351 127.702 470.213 127.842 470.038 127.949C469.868 128.051 469.676 128.102 469.463 128.102Z" fill="black"/>
<defs>
<filter id="filter0_d_1_145" x="358.522" y="130.498" width="57.4836" height="60.5322" filterUnits="userSpaceOnUse" color-interpolation-filters="sRGB">
<feFlood flood-opacity="0" result="BackgroundImageFix"/>
<feColorMatrix in="SourceAlpha" type="matrix" values="0 0 0 0 0 0 0 0 0 0 0 0 0 0 0 0 0 0 127 0" result="hardAlpha"/>
<feOffset dy="4"/>
<feGaussianBlur stdDeviation="2"/>
<feComposite in2="hardAlpha" operator="out"/>
<feColorMatrix type="matrix" values="0 0 0 0 0 0 0 0 0 0 0 0 0 0 0 0 0 0 0.25 0"/>
<feBlend mode="normal" in2="BackgroundImageFix" result="effect1_dropShadow_1_145"/>
<feBlend mode="normal" in="SourceGraphic" in2="effect1_dropShadow_1_145" result="shape"/>
</filter>
</defs>
</svg>
