<svg width="599" height="532" viewBox="0 0 599 532" fill="none" xmlns="http://www.w3.org/2000/svg">
<path d="M238.918 502.31C252.225 510.899 267.618 515.717 283.453 516.25C283.171 516.919 282.853 517.574 282.502 518.21C280.659 521.608 278.054 524.534 274.891 526.76C271.145 529.392 266.748 530.946 262.179 531.253C257.61 531.561 253.044 530.609 248.979 528.502C244.914 526.395 241.507 523.214 239.129 519.306C236.751 515.398 235.493 510.913 235.493 506.34V502.31H238.918Z" fill="#075985"/>
<path d="M332.324 503.49V506.34C332.326 511.889 330.477 517.28 327.068 521.661C323.66 526.043 318.886 529.166 313.502 530.537C308.117 531.907 302.429 531.447 297.336 529.229C292.242 527.012 288.034 523.162 285.376 518.29C285.01 517.638 284.679 516.967 284.384 516.28C285.115 516.3 285.837 516.31 286.568 516.31C302.712 516.329 318.547 511.892 332.324 503.49V503.49Z" fill="#075985"/>
<path d="M366.013 202.11C365.262 202 364.501 201.93 363.74 201.88C372.389 221.783 372.988 244.256 365.412 264.59C366.174 264.5 366.925 264.38 367.676 264.24C375.01 262.821 381.602 258.849 386.278 253.032C390.954 247.214 393.411 239.928 393.212 232.471C393.012 225.014 390.169 217.87 385.188 212.31C380.208 206.75 373.413 203.136 366.013 202.11V202.11Z" fill="#0C4A6E"/>
<path d="M209.395 201.88C208.635 201.93 207.873 202 207.122 202.11C199.723 203.136 192.928 206.75 187.947 212.31C182.967 217.87 180.123 225.014 179.924 232.471C179.724 239.928 182.181 247.214 186.857 253.032C191.534 258.849 198.125 262.821 205.46 264.24C206.211 264.38 206.962 264.5 207.723 264.59C200.148 244.256 200.747 221.783 209.395 201.88V201.88Z" fill="#0C4A6E"/>
<path d="M366.013 202.11C357.763 182.43 342.481 166.514 323.137 157.456C303.792 148.398 281.766 146.843 261.338 153.094C240.91 159.345 223.538 172.955 212.597 191.28C201.656 209.606 197.928 231.338 202.136 252.255C206.344 273.172 218.189 291.78 235.369 304.464C252.549 317.149 273.837 323.003 295.098 320.891C316.359 318.779 336.074 308.85 350.414 293.034C364.754 277.218 372.695 256.645 372.693 235.31C372.689 223.911 370.419 212.626 366.013 202.11V202.11ZM365.412 264.59C358.087 284.254 343.655 300.467 324.958 310.04C306.262 319.612 284.654 321.849 264.388 316.311C244.122 310.774 226.666 297.862 215.455 280.117C204.245 262.373 200.092 241.081 203.813 220.432C207.535 199.784 218.863 181.274 235.566 168.546C252.269 155.818 273.138 149.795 294.066 151.66C314.994 153.526 334.464 163.146 348.645 178.627C362.826 194.109 370.69 214.329 370.69 235.31C370.687 245.305 368.9 255.22 365.412 264.59V264.59Z" fill="#075985" stroke="#075985" stroke-width="5"/>
<path d="M330.632 215.81H242.504C237.856 215.81 233.398 217.654 230.111 220.936C226.825 224.218 224.978 228.669 224.978 233.31C224.978 237.951 226.825 242.403 230.111 245.684C233.398 248.966 237.856 250.81 242.504 250.81H330.632C335.28 250.81 339.738 248.966 343.024 245.684C346.311 242.403 348.157 237.951 348.157 233.31C348.157 228.669 346.311 224.218 343.024 220.936C339.738 217.654 335.28 215.81 330.632 215.81V215.81Z" fill="#0369A1"/>
<path d="M286.568 338.31C263.024 338.321 240.418 347.531 223.587 363.97C206.756 380.409 197.035 402.772 196.504 426.276C195.973 449.78 204.673 472.558 220.745 489.739C236.816 506.92 258.982 517.139 282.502 518.21C283.453 518.26 284.415 518.29 285.376 518.29C285.777 518.31 286.167 518.31 286.568 518.31C310.472 518.31 333.397 508.828 350.3 491.95C367.203 475.071 376.699 452.18 376.699 428.31C376.699 404.441 367.203 381.549 350.3 364.67C333.397 347.792 310.472 338.31 286.568 338.31V338.31ZM332.324 503.49C318.547 511.892 302.712 516.329 286.568 516.31C285.837 516.31 285.115 516.3 284.384 516.28C284.074 516.28 283.764 516.27 283.453 516.25C262.291 515.516 242.1 507.201 226.57 492.827C211.041 478.452 201.21 458.978 198.875 437.962C196.54 416.947 201.856 395.794 213.852 378.37C225.848 360.945 243.723 348.414 264.21 343.065C284.696 337.716 306.426 339.907 325.428 349.238C344.43 358.568 359.435 374.415 367.701 393.882C375.966 413.349 376.94 435.137 370.445 455.262C363.949 475.387 350.418 492.506 332.324 503.49Z" fill="#075985" stroke="#075985" stroke-width="5"/>
<path d="M296.484 408.333V447.667C296.484 450.275 295.446 452.776 293.599 454.62C291.752 456.464 289.247 457.5 286.635 457.5C284.023 457.5 281.518 456.464 279.671 454.62C277.824 452.776 276.787 450.275 276.787 447.667V408.333C276.787 405.726 277.824 403.225 279.671 401.38C281.518 399.536 284.023 398.5 286.635 398.5C289.247 398.5 291.752 399.536 293.599 401.38C295.446 403.225 296.484 405.726 296.484 408.333Z" fill="#0369A1" stroke="#0369A1"/>
<path d="M291.887 445.045C291.887 442.148 289.536 439.8 286.635 439.8C283.734 439.8 281.383 442.148 281.383 445.045C281.383 447.941 283.734 450.289 286.635 450.289C289.536 450.289 291.887 447.941 291.887 445.045Z" fill="#F2F2F2"/>
<path d="M291.887 428C291.887 425.104 289.536 422.756 286.635 422.756C283.734 422.756 281.383 425.104 281.383 428C281.383 430.897 283.734 433.245 286.635 433.245C289.536 433.245 291.887 430.897 291.887 428Z" fill="#F2F2F2"/>
<path d="M291.887 410.956C291.887 408.059 289.536 405.711 286.635 405.711C283.734 405.711 281.383 408.059 281.383 410.956C281.383 413.852 283.734 416.2 286.635 416.2C289.536 416.2 291.887 413.852 291.887 410.956Z" fill="black"/>
<ellipse cx="262.394" cy="233.5" rx="13.3942" ry="13.5" fill="white"/>
<ellipse cx="306.606" cy="233.5" rx="13.3942" ry="13.5" fill="white"/>
<ellipse cx="262.285" cy="233.5" rx="3.48466" ry="3.66102" fill="black"/>
<ellipse cx="306.715" cy="233.5" rx="3.48466" ry="3.66102" fill="black"/>
<path d="M251.25 268C251.454 272.048 253.101 275.858 255.851 278.648C258.601 281.438 262.247 282.995 266.038 283H306.565C310.356 282.995 314.001 281.438 316.751 278.648C319.502 275.858 321.148 272.048 321.352 268H251.25Z" fill="#0369A1"/>
<mask id="path-17-inside-1_1_145" fill="white">
<path d="M133.985 328.666C135.808 316.437 130.517 304.209 119.276 294.672L111.805 298.866C121.434 307.036 125.966 317.51 124.404 327.986L133.985 328.666Z"/>
</mask>
<path d="M133.985 328.666C135.808 316.437 130.517 304.209 119.276 294.672L111.805 298.866C121.434 307.036 125.966 317.51 124.404 327.986L133.985 328.666Z" fill="#075985" stroke="#075985" stroke-width="10" stroke-linejoin="round" mask="url(#path-17-inside-1_1_145)"/>
<mask id="path-18-inside-2_1_145" fill="white">
<path d="M103.577 317.15C106.669 328.934 115.922 336.061 129.3 336.964L134.168 328.442C122.708 327.669 114.782 321.564 112.133 311.469L103.577 317.15Z"/>
</mask>
<path d="M103.577 317.15C106.669 328.934 115.922 336.061 129.3 336.964L134.168 328.442C122.708 327.669 114.782 321.564 112.133 311.469L103.577 317.15Z" fill="#075985" stroke="#075985" stroke-width="10" stroke-linejoin="round" mask="url(#path-18-inside-2_1_145)"/>
<mask id="path-19-inside-3_1_145" fill="white">
<path d="M203.431 400C187.475 400 171.822 393.454 158.164 381.068C144.505 368.683 133.36 350.929 125.931 329.724L132.972 324.162C139.725 343.441 149.858 359.582 162.276 370.842C174.694 382.102 188.924 388.054 203.431 388.054V400Z"/>
</mask>
<path d="M203.431 400C187.475 400 171.822 393.454 158.164 381.068C144.505 368.683 133.36 350.929 125.931 329.724L132.972 324.162C139.725 343.441 149.858 359.582 162.276 370.842C174.694 382.102 188.924 388.054 203.431 388.054V400Z" fill="#075985" stroke="#075985" stroke-width="20" stroke-linejoin="round" mask="url(#path-19-inside-3_1_145)"/>
<rect x="366.497" y="5" width="227.503" height="140.521" rx="55" fill="white" stroke="#075985" stroke-width="10" stroke-linejoin="round"/>
<path d="M399.812 174.411C412.716 164.715 407.776 142.252 391.529 136.745C375.282 131.239 362.124 147.568 369.467 164.125C375.1 176.828 389.913 181.848 399.812 174.411Z" fill="white" stroke="#075985" stroke-width="10" stroke-linejoin="round"/>
<path d="M415.88 52.424C415.88 52.8293 415.896 53.16 415.928 53.416C415.971 53.6613 416.051 53.8533 416.168 53.992C416.296 54.12 416.467 54.2107 416.68 54.264C416.904 54.3173 417.197 54.3493 417.56 54.36V55H411.688V54.36C412.083 54.3493 412.397 54.3173 412.632 54.264C412.877 54.2107 413.064 54.12 413.192 53.992C413.331 53.864 413.421 53.6827 413.464 53.448C413.507 53.2133 413.528 52.9093 413.528 52.536V49.192H407.592V52.424C407.592 52.8293 407.613 53.16 407.656 53.416C407.699 53.6613 407.784 53.8533 407.912 53.992C408.04 54.12 408.221 54.2107 408.456 54.264C408.701 54.3173 409.021 54.3493 409.416 54.36V55H403.56V54.36C403.923 54.3493 404.211 54.3173 404.424 54.264C404.648 54.2107 404.819 54.12 404.936 53.992C405.053 53.864 405.133 53.6827 405.176 53.448C405.219 53.2133 405.24 52.9093 405.24 52.536V45.144C405.24 44.7707 405.219 44.472 405.176 44.248C405.144 44.0133 405.075 43.832 404.968 43.704C404.861 43.5653 404.707 43.4747 404.504 43.432C404.312 43.3787 404.056 43.3413 403.736 43.32V42.68H409.256V43.32C408.893 43.3307 408.6 43.3627 408.376 43.416C408.163 43.4693 407.997 43.5653 407.88 43.704C407.763 43.8427 407.683 44.0347 407.64 44.28C407.608 44.5253 407.592 44.8507 407.592 45.256V48.2H413.528V45.144C413.528 44.7707 413.507 44.472 413.464 44.248C413.421 44.0133 413.341 43.832 413.224 43.704C413.107 43.5653 412.936 43.4747 412.712 43.432C412.499 43.3787 412.211 43.3413 411.848 43.32V42.68H417.384V43.32C417.064 43.3307 416.803 43.3627 416.6 43.416C416.408 43.4693 416.259 43.5653 416.152 43.704C416.045 43.8427 415.971 44.0347 415.928 44.28C415.896 44.5253 415.88 44.8507 415.88 45.256V52.424ZM426.406 53.512C425.435 54.6107 424.224 55.16 422.774 55.16C422.112 55.16 421.51 55.0587 420.966 54.856C420.432 54.6427 419.974 54.3493 419.59 53.976C419.206 53.592 418.907 53.1387 418.694 52.616C418.48 52.0933 418.374 51.512 418.374 50.872C418.374 50.2107 418.486 49.608 418.71 49.064C418.934 48.5093 419.248 48.0347 419.654 47.64C420.07 47.2347 420.555 46.92 421.11 46.696C421.675 46.472 422.294 46.36 422.966 46.36C424.096 46.36 424.976 46.664 425.606 47.272C426.235 47.88 426.55 48.7333 426.55 49.832C426.55 50.0027 426.523 50.1093 426.47 50.152C426.416 50.184 426.267 50.2 426.022 50.2H420.87C420.827 50.296 420.806 50.472 420.806 50.728C420.806 51.7733 421.03 52.6 421.478 53.208C421.936 53.816 422.555 54.12 423.334 54.12C423.782 54.12 424.224 54.0187 424.662 53.816C425.11 53.6133 425.542 53.3253 425.958 52.952L426.406 53.512ZM423.302 49.304C423.728 49.304 424 49.2827 424.118 49.24C424.246 49.1867 424.31 49.0693 424.31 48.888C424.31 48.4187 424.176 48.0347 423.91 47.736C423.643 47.4373 423.307 47.288 422.902 47.288C422.443 47.288 422.032 47.48 421.67 47.864C421.318 48.2373 421.088 48.7173 420.982 49.304H423.302ZM431.077 52.376C431.077 52.8027 431.093 53.144 431.125 53.4C431.157 53.656 431.221 53.8533 431.317 53.992C431.413 54.1307 431.552 54.2267 431.733 54.28C431.914 54.3227 432.16 54.3493 432.469 54.36V55H427.429V54.36C427.728 54.3493 427.968 54.3173 428.149 54.264C428.341 54.2 428.485 54.104 428.581 53.976C428.688 53.8373 428.757 53.6507 428.789 53.416C428.832 53.1707 428.853 52.8613 428.853 52.488V45.88C428.853 45.2613 428.842 44.7547 428.821 44.36C428.8 43.9547 428.773 43.6773 428.741 43.528C428.688 43.2613 428.565 43.0853 428.373 43C428.192 42.9147 427.856 42.872 427.365 42.872V42.328L431.077 41.72V52.376ZM436.765 52.376C436.765 52.8027 436.781 53.144 436.812 53.4C436.845 53.656 436.909 53.8533 437.005 53.992C437.101 54.1307 437.239 54.2267 437.421 54.28C437.602 54.3227 437.847 54.3493 438.157 54.36V55H433.117V54.36C433.415 54.3493 433.655 54.3173 433.837 54.264C434.029 54.2 434.173 54.104 434.269 53.976C434.375 53.8373 434.445 53.6507 434.477 53.416C434.519 53.1707 434.541 52.8613 434.541 52.488V45.88C434.541 45.2613 434.53 44.7547 434.509 44.36C434.487 43.9547 434.461 43.6773 434.429 43.528C434.375 43.2613 434.253 43.0853 434.061 43C433.879 42.9147 433.543 42.872 433.053 42.872V42.328L436.765 41.72V52.376ZM443.748 46.36C444.388 46.36 444.991 46.472 445.556 46.696C446.132 46.9093 446.633 47.208 447.06 47.592C447.497 47.976 447.839 48.4347 448.084 48.968C448.34 49.4907 448.468 50.0667 448.468 50.696C448.468 51.3467 448.34 51.944 448.084 52.488C447.839 53.032 447.497 53.5013 447.06 53.896C446.633 54.2907 446.132 54.6 445.556 54.824C444.991 55.048 444.388 55.16 443.748 55.16C443.119 55.16 442.521 55.0533 441.956 54.84C441.391 54.616 440.895 54.3067 440.468 53.912C440.041 53.5173 439.705 53.048 439.46 52.504C439.215 51.9493 439.092 51.3467 439.092 50.696C439.092 50.0667 439.215 49.4853 439.46 48.952C439.705 48.4187 440.041 47.96 440.468 47.576C440.895 47.192 441.391 46.8933 441.956 46.68C442.521 46.4667 443.119 46.36 443.748 46.36ZM443.748 47.288C443.428 47.288 443.135 47.3733 442.868 47.544C442.601 47.704 442.372 47.9333 442.18 48.232C441.999 48.5307 441.855 48.8933 441.748 49.32C441.652 49.736 441.604 50.2 441.604 50.712C441.604 51.2453 441.652 51.7253 441.748 52.152C441.855 52.5787 441.999 52.9413 442.18 53.24C442.372 53.5387 442.596 53.7733 442.852 53.944C443.119 54.104 443.417 54.184 443.748 54.184C444.079 54.184 444.377 54.104 444.644 53.944C444.921 53.7733 445.156 53.5387 445.348 53.24C445.54 52.9307 445.689 52.5627 445.796 52.136C445.903 51.7093 445.956 51.2347 445.956 50.712C445.956 50.2 445.903 49.736 445.796 49.32C445.689 48.904 445.54 48.5467 445.348 48.248C445.156 47.9387 444.921 47.704 444.644 47.544C444.377 47.3733 444.079 47.288 443.748 47.288ZM449.543 56.808C450.119 56.424 450.54 56.0773 450.807 55.768C451.084 55.4587 451.223 55.16 451.223 54.872C451.169 54.904 451.095 54.936 450.999 54.968C450.913 54.9893 450.828 55 450.743 55C450.519 55 450.327 54.8987 450.167 54.696C450.007 54.4933 449.927 54.2533 449.927 53.976C449.927 53.624 450.039 53.3307 450.263 53.096C450.497 52.8613 450.785 52.744 451.127 52.744C451.5 52.744 451.799 52.8773 452.023 53.144C452.247 53.4107 452.359 53.7733 452.359 54.232C452.359 54.808 452.167 55.3573 451.783 55.88C451.399 56.4133 450.807 56.9467 450.007 57.48L449.543 56.808ZM461.628 52.36C461.628 52.808 461.639 53.16 461.66 53.416C461.681 53.672 461.74 53.8693 461.836 54.008C461.932 54.136 462.071 54.2213 462.252 54.264C462.433 54.3067 462.684 54.3387 463.004 54.36V55H457.948V54.36C458.268 54.3387 458.524 54.3067 458.716 54.264C458.908 54.2213 459.052 54.136 459.148 54.008C459.244 53.88 459.308 53.6987 459.34 53.464C459.372 53.2187 459.388 52.8933 459.388 52.488V50.504C459.388 49.896 459.377 49.3893 459.356 48.984C459.345 48.5787 459.319 48.3013 459.276 48.152C459.244 48.0133 459.201 47.9067 459.148 47.832C459.105 47.7467 459.031 47.6827 458.924 47.64C458.828 47.5867 458.7 47.5547 458.54 47.544C458.38 47.5227 458.172 47.512 457.916 47.512V46.968L461.004 46.36L461.196 47.752H461.292C461.74 47.2507 462.188 46.8933 462.636 46.68C463.095 46.4667 463.623 46.36 464.22 46.36C464.924 46.36 465.505 46.4827 465.964 46.728C466.423 46.9733 466.769 47.3253 467.004 47.784H467.068C467.452 47.336 467.911 46.9893 468.444 46.744C468.977 46.488 469.548 46.36 470.156 46.36C470.796 46.36 471.351 46.44 471.82 46.6C472.3 46.76 472.673 46.9893 472.94 47.288C473.153 47.5333 473.308 47.8533 473.404 48.248C473.511 48.6427 473.564 49.192 473.564 49.896V52.36C473.564 52.7973 473.575 53.144 473.596 53.4C473.628 53.656 473.692 53.8533 473.788 53.992C473.884 54.1307 474.023 54.2213 474.204 54.264C474.385 54.3067 474.636 54.3387 474.956 54.36V55H469.9V54.36C470.22 54.3493 470.471 54.3227 470.652 54.28C470.844 54.2267 470.988 54.136 471.084 54.008C471.191 53.8693 471.255 53.6827 471.276 53.448C471.308 53.2133 471.324 52.8933 471.324 52.488V50.392C471.324 49.8373 471.292 49.368 471.228 48.984C471.164 48.6 471.063 48.2907 470.924 48.056C470.785 47.8213 470.599 47.656 470.364 47.56C470.14 47.4533 469.863 47.4 469.532 47.4C469.159 47.4 468.849 47.4907 468.604 47.672C468.369 47.8533 468.172 48.088 468.012 48.376C467.735 48.8773 467.596 49.5013 467.596 50.248V52.36C467.596 52.7973 467.607 53.144 467.628 53.4C467.649 53.656 467.708 53.8533 467.804 53.992C467.9 54.1307 468.039 54.2213 468.22 54.264C468.412 54.3067 468.673 54.3387 469.004 54.36V55H463.932V54.36C464.252 54.3387 464.503 54.3067 464.684 54.264C464.876 54.2213 465.02 54.136 465.116 54.008C465.223 53.88 465.287 53.6987 465.308 53.464C465.34 53.2187 465.356 52.8933 465.356 52.488V50.392C465.356 49.8373 465.324 49.368 465.26 48.984C465.196 48.6 465.089 48.2907 464.94 48.056C464.801 47.8213 464.615 47.656 464.38 47.56C464.145 47.4533 463.852 47.4 463.5 47.4C463.148 47.4 462.855 47.4853 462.62 47.656C462.396 47.8267 462.209 48.056 462.06 48.344C461.921 48.6 461.815 48.8933 461.74 49.224C461.665 49.5547 461.628 49.896 461.628 50.248V52.36ZM479.389 57.512C479.272 57.7467 479.122 57.9653 478.941 58.168C478.77 58.3707 478.573 58.5413 478.349 58.68C478.136 58.8293 477.912 58.9467 477.677 59.032C477.442 59.1173 477.208 59.16 476.973 59.16C476.621 59.16 476.338 59.0747 476.125 58.904C475.912 58.7333 475.805 58.504 475.805 58.216C475.805 57.9493 475.896 57.7413 476.077 57.592C476.269 57.4427 476.573 57.352 476.989 57.32C477.938 57.2453 478.552 56.9467 478.829 56.424L479.261 55.592L476.429 48.584C476.301 48.2747 476.189 48.0293 476.093 47.848C476.008 47.6667 475.912 47.528 475.805 47.432C475.698 47.3253 475.576 47.256 475.437 47.224C475.298 47.192 475.128 47.1707 474.925 47.16V46.52H479.773V47.16C479.357 47.16 479.064 47.2027 478.893 47.288C478.733 47.3627 478.653 47.5067 478.653 47.72C478.653 47.8053 478.664 47.9067 478.685 48.024C478.717 48.1307 478.754 48.2427 478.797 48.36L480.429 53.032H480.493L481.869 49.912C482.008 49.5813 482.125 49.3093 482.221 49.096C482.317 48.872 482.386 48.6853 482.429 48.536C482.482 48.376 482.52 48.248 482.541 48.152C482.562 48.056 482.573 47.96 482.573 47.864C482.573 47.5867 482.493 47.4 482.333 47.304C482.184 47.208 481.874 47.16 481.405 47.16V46.52H485.261V47.16C485.048 47.16 484.866 47.192 484.717 47.256C484.568 47.3093 484.413 47.4267 484.253 47.608C484.104 47.7893 483.933 48.0613 483.741 48.424C483.56 48.776 483.33 49.2453 483.053 49.832L479.389 57.512ZM493.018 52.392C493.018 52.8293 493.029 53.176 493.05 53.432C493.082 53.6773 493.141 53.8693 493.226 54.008C493.322 54.136 493.461 54.2213 493.642 54.264C493.834 54.3067 494.09 54.3387 494.41 54.36V55H489.37V54.36C489.68 54.3387 489.925 54.3067 490.106 54.264C490.298 54.2213 490.442 54.136 490.538 54.008C490.645 53.88 490.714 53.6987 490.746 53.464C490.778 53.2293 490.794 52.9093 490.794 52.504V50.504C490.794 49.8747 490.784 49.368 490.762 48.984C490.741 48.5893 490.714 48.3227 490.682 48.184C490.65 48.0453 490.608 47.9333 490.554 47.848C490.501 47.752 490.421 47.6827 490.314 47.64C490.208 47.5867 490.074 47.5547 489.914 47.544C489.754 47.5227 489.552 47.512 489.306 47.512V46.968L492.394 46.36L492.602 47.768H492.666C493.018 47.32 493.434 46.9733 493.914 46.728C494.394 46.4827 494.922 46.36 495.498 46.36C496.181 46.36 496.73 46.456 497.146 46.648C497.573 46.8293 497.952 47.1387 498.282 47.576C498.464 47.8213 498.624 48.1413 498.762 48.536C498.901 48.92 498.97 49.4533 498.97 50.136V52.392C498.97 52.8293 498.981 53.176 499.002 53.432C499.034 53.6773 499.093 53.8693 499.178 54.008C499.274 54.136 499.413 54.2213 499.594 54.264C499.776 54.3067 500.021 54.3387 500.33 54.36V55H495.322V54.36C495.642 54.3493 495.893 54.3227 496.074 54.28C496.266 54.2267 496.41 54.136 496.506 54.008C496.602 53.88 496.666 53.6987 496.698 53.464C496.73 53.2187 496.746 52.8987 496.746 52.504V50.328C496.746 49.784 496.714 49.3253 496.65 48.952C496.586 48.5787 496.48 48.28 496.33 48.056C496.192 47.8213 496.005 47.656 495.77 47.56C495.536 47.4533 495.242 47.4 494.89 47.4C494.549 47.4 494.256 47.496 494.01 47.688C493.765 47.88 493.552 48.1467 493.37 48.488C493.274 48.68 493.189 48.9307 493.114 49.24C493.05 49.5387 493.018 49.8533 493.018 50.184V52.392ZM506.035 50.44C505.139 50.8453 504.462 51.224 504.003 51.576C503.555 51.9173 503.331 52.2747 503.331 52.648C503.331 52.9573 503.417 53.2027 503.587 53.384C503.758 53.5653 503.971 53.656 504.227 53.656C504.483 53.656 504.723 53.6133 504.947 53.528C505.171 53.432 505.363 53.3093 505.523 53.16C505.683 53.0107 505.806 52.8347 505.891 52.632C505.987 52.4187 506.035 52.1947 506.035 51.96V50.44ZM506.035 49.592V48.92C506.035 48.3013 505.923 47.8533 505.699 47.576C505.486 47.288 505.15 47.144 504.691 47.144C504.382 47.144 504.147 47.2293 503.987 47.4C503.827 47.56 503.678 47.832 503.539 48.216C503.443 48.4827 503.305 48.6907 503.123 48.84C502.953 48.9893 502.713 49.064 502.403 49.064C502.105 49.064 501.875 48.9733 501.715 48.792C501.555 48.6107 501.475 48.3547 501.475 48.024C501.475 47.512 501.753 47.1067 502.307 46.808C502.873 46.5093 503.721 46.36 504.851 46.36C506.046 46.36 506.899 46.5787 507.411 47.016C507.923 47.4427 508.179 48.1627 508.179 49.176V52.68C508.179 53.5867 508.361 54.04 508.723 54.04C508.926 54.04 509.113 53.9707 509.283 53.832L509.523 54.296C509.374 54.5627 509.139 54.776 508.819 54.936C508.51 55.0853 508.158 55.16 507.763 55.16C507.273 55.16 506.899 55.0107 506.643 54.712C506.387 54.4133 506.259 53.992 506.259 53.448H506.179C505.87 54.0027 505.47 54.424 504.979 54.712C504.489 55 503.929 55.144 503.299 55.144C502.627 55.144 502.089 54.9573 501.683 54.584C501.278 54.2 501.075 53.704 501.075 53.096C501.075 52.6267 501.283 52.1893 501.699 51.784C502.115 51.368 502.809 50.9627 503.779 50.568L506.035 49.592ZM513.847 52.36C513.847 52.808 513.857 53.16 513.879 53.416C513.9 53.672 513.959 53.8693 514.055 54.008C514.151 54.136 514.289 54.2213 514.471 54.264C514.652 54.3067 514.903 54.3387 515.223 54.36V55H510.167V54.36C510.487 54.3387 510.743 54.3067 510.935 54.264C511.127 54.2213 511.271 54.136 511.367 54.008C511.463 53.88 511.527 53.6987 511.559 53.464C511.591 53.2187 511.607 52.8933 511.607 52.488V50.504C511.607 49.896 511.596 49.3893 511.575 48.984C511.564 48.5787 511.537 48.3013 511.495 48.152C511.463 48.0133 511.42 47.9067 511.367 47.832C511.324 47.7467 511.249 47.6827 511.143 47.64C511.047 47.5867 510.919 47.5547 510.759 47.544C510.599 47.5227 510.391 47.512 510.135 47.512V46.968L513.223 46.36L513.415 47.752H513.511C513.959 47.2507 514.407 46.8933 514.855 46.68C515.313 46.4667 515.841 46.36 516.439 46.36C517.143 46.36 517.724 46.4827 518.183 46.728C518.641 46.9733 518.988 47.3253 519.223 47.784H519.287C519.671 47.336 520.129 46.9893 520.663 46.744C521.196 46.488 521.767 46.36 522.375 46.36C523.015 46.36 523.569 46.44 524.039 46.6C524.519 46.76 524.892 46.9893 525.159 47.288C525.372 47.5333 525.527 47.8533 525.623 48.248C525.729 48.6427 525.783 49.192 525.783 49.896V52.36C525.783 52.7973 525.793 53.144 525.815 53.4C525.847 53.656 525.911 53.8533 526.007 53.992C526.103 54.1307 526.241 54.2213 526.423 54.264C526.604 54.3067 526.855 54.3387 527.175 54.36V55H522.119V54.36C522.439 54.3493 522.689 54.3227 522.871 54.28C523.063 54.2267 523.207 54.136 523.303 54.008C523.409 53.8693 523.473 53.6827 523.495 53.448C523.527 53.2133 523.543 52.8933 523.543 52.488V50.392C523.543 49.8373 523.511 49.368 523.447 48.984C523.383 48.6 523.281 48.2907 523.143 48.056C523.004 47.8213 522.817 47.656 522.583 47.56C522.359 47.4533 522.081 47.4 521.751 47.4C521.377 47.4 521.068 47.4907 520.823 47.672C520.588 47.8533 520.391 48.088 520.231 48.376C519.953 48.8773 519.815 49.5013 519.815 50.248V52.36C519.815 52.7973 519.825 53.144 519.847 53.4C519.868 53.656 519.927 53.8533 520.023 53.992C520.119 54.1307 520.257 54.2213 520.439 54.264C520.631 54.3067 520.892 54.3387 521.223 54.36V55H516.151V54.36C516.471 54.3387 516.721 54.3067 516.903 54.264C517.095 54.2213 517.239 54.136 517.335 54.008C517.441 53.88 517.505 53.6987 517.527 53.464C517.559 53.2187 517.575 52.8933 517.575 52.488V50.392C517.575 49.8373 517.543 49.368 517.479 48.984C517.415 48.6 517.308 48.2907 517.159 48.056C517.02 47.8213 516.833 47.656 516.599 47.56C516.364 47.4533 516.071 47.4 515.719 47.4C515.367 47.4 515.073 47.4853 514.839 47.656C514.615 47.8267 514.428 48.056 514.279 48.344C514.14 48.6 514.033 48.8933 513.959 49.224C513.884 49.5547 513.847 49.896 513.847 50.248V52.36ZM536.062 53.512C535.091 54.6107 533.881 55.16 532.43 55.16C531.769 55.16 531.166 55.0587 530.622 54.856C530.089 54.6427 529.63 54.3493 529.246 53.976C528.862 53.592 528.563 53.1387 528.35 52.616C528.137 52.0933 528.03 51.512 528.03 50.872C528.03 50.2107 528.142 49.608 528.366 49.064C528.59 48.5093 528.905 48.0347 529.31 47.64C529.726 47.2347 530.211 46.92 530.766 46.696C531.331 46.472 531.95 46.36 532.622 46.36C533.753 46.36 534.633 46.664 535.262 47.272C535.891 47.88 536.206 48.7333 536.206 49.832C536.206 50.0027 536.179 50.1093 536.126 50.152C536.073 50.184 535.923 50.2 535.678 50.2H530.526C530.483 50.296 530.462 50.472 530.462 50.728C530.462 51.7733 530.686 52.6 531.134 53.208C531.593 53.816 532.211 54.12 532.99 54.12C533.438 54.12 533.881 54.0187 534.318 53.816C534.766 53.6133 535.198 53.3253 535.614 52.952L536.062 53.512ZM532.958 49.304C533.385 49.304 533.657 49.2827 533.774 49.24C533.902 49.1867 533.966 49.0693 533.966 48.888C533.966 48.4187 533.833 48.0347 533.566 47.736C533.299 47.4373 532.963 47.288 532.558 47.288C532.099 47.288 531.689 47.48 531.326 47.864C530.974 48.2373 530.745 48.7173 530.638 49.304H532.958ZM545.143 52.376C545.143 52.8027 545.159 53.144 545.191 53.4C545.223 53.656 545.287 53.8533 545.383 53.992C545.479 54.1307 545.618 54.2267 545.799 54.28C545.981 54.3227 546.226 54.3493 546.535 54.36V55H541.495V54.36C541.794 54.3493 542.034 54.3173 542.215 54.264C542.407 54.2 542.551 54.104 542.647 53.976C542.754 53.8373 542.823 53.6507 542.855 53.416C542.898 53.1707 542.919 52.8613 542.919 52.488V50.52C542.919 49.9013 542.909 49.3947 542.887 49C542.866 48.5947 542.839 48.3173 542.807 48.168C542.754 47.9013 542.631 47.7253 542.439 47.64C542.258 47.5547 541.922 47.512 541.431 47.512V46.968L545.143 46.36V52.376ZM542.791 42.968C542.791 42.616 542.909 42.3227 543.143 42.088C543.389 41.8427 543.682 41.72 544.023 41.72C544.375 41.72 544.669 41.8427 544.903 42.088C545.149 42.3227 545.271 42.616 545.271 42.968C545.271 43.3093 545.149 43.6027 544.903 43.848C544.669 44.0827 544.375 44.2 544.023 44.2C543.682 44.2 543.389 44.0827 543.143 43.848C542.909 43.6027 542.791 43.3093 542.791 42.968ZM548.173 55H547.677V52.088H548.349C548.53 52.856 548.791 53.416 549.133 53.768C549.474 54.12 549.917 54.296 550.461 54.296C550.855 54.296 551.159 54.216 551.373 54.056C551.597 53.8853 551.709 53.656 551.709 53.368C551.709 53.0693 551.575 52.7813 551.309 52.504C551.042 52.216 550.61 51.912 550.013 51.592C549.202 51.1547 548.621 50.7227 548.269 50.296C547.917 49.8587 547.741 49.368 547.741 48.824C547.741 48.472 547.805 48.1467 547.933 47.848C548.071 47.5387 548.253 47.272 548.477 47.048C548.711 46.824 548.989 46.6533 549.309 46.536C549.629 46.408 549.975 46.344 550.349 46.344C550.679 46.344 551.005 46.392 551.325 46.488C551.655 46.584 551.943 46.7173 552.189 46.888L552.477 46.504H552.893V48.92H552.269C552.023 48.312 551.767 47.8747 551.501 47.608C551.245 47.3413 550.93 47.208 550.557 47.208C550.258 47.208 550.018 47.288 549.837 47.448C549.666 47.608 549.581 47.8213 549.581 48.088C549.581 48.3867 549.709 48.6693 549.965 48.936C550.231 49.2027 550.669 49.496 551.277 49.816C551.703 50.0507 552.071 50.28 552.381 50.504C552.69 50.728 552.941 50.9573 553.133 51.192C553.325 51.416 553.463 51.656 553.549 51.912C553.645 52.1573 553.693 52.424 553.693 52.712C553.693 53.0853 553.623 53.4213 553.485 53.72C553.346 54.0187 553.149 54.2747 552.893 54.488C552.637 54.7013 552.327 54.8667 551.965 54.984C551.613 55.1013 551.218 55.16 550.781 55.16C550.322 55.16 549.895 55.1013 549.501 54.984C549.106 54.856 548.781 54.6747 548.525 54.44L548.173 55ZM403.864 70.92H404.488C404.637 71.9333 405.043 72.7333 405.704 73.32C406.365 73.896 407.181 74.184 408.152 74.184C408.547 74.184 408.909 74.136 409.24 74.04C409.571 73.944 409.853 73.8107 410.088 73.64C410.323 73.4587 410.504 73.2507 410.632 73.016C410.76 72.7707 410.824 72.4987 410.824 72.2C410.824 71.944 410.781 71.7253 410.696 71.544C410.621 71.352 410.472 71.1707 410.248 71C410.024 70.8187 409.715 70.6373 409.32 70.456C408.936 70.2747 408.435 70.0667 407.816 69.832C406.568 69.352 405.645 68.7973 405.048 68.168C404.451 67.528 404.152 66.776 404.152 65.912C404.152 65.4107 404.248 64.952 404.44 64.536C404.632 64.12 404.899 63.7627 405.24 63.464C405.592 63.1653 406.008 62.936 406.488 62.776C406.979 62.6053 407.517 62.52 408.104 62.52C408.648 62.52 409.16 62.6053 409.64 62.776C410.12 62.9467 410.595 63.2027 411.064 63.544L411.352 62.744H411.736L411.912 66.2H411.288C411.032 65.3253 410.632 64.6587 410.088 64.2C409.544 63.7307 408.915 63.496 408.2 63.496C407.539 63.496 407 63.6613 406.584 63.992C406.179 64.312 405.976 64.728 405.976 65.24C405.976 65.464 406.013 65.6667 406.088 65.848C406.163 66.0187 406.301 66.184 406.504 66.344C406.707 66.504 406.984 66.6693 407.336 66.84C407.688 67 408.141 67.1813 408.696 67.384C409.443 67.672 410.077 67.9653 410.6 68.264C411.133 68.552 411.565 68.8667 411.896 69.208C412.237 69.5387 412.488 69.8907 412.648 70.264C412.808 70.6373 412.888 71.048 412.888 71.496C412.888 72.04 412.771 72.536 412.536 72.984C412.301 73.432 411.971 73.816 411.544 74.136C411.128 74.456 410.627 74.7067 410.04 74.888C409.464 75.0693 408.824 75.16 408.12 75.16C407.48 75.16 406.904 75.0747 406.392 74.904C405.88 74.7227 405.352 74.4347 404.808 74.04L404.488 75H404.104L403.864 70.92ZM413.916 67.4V66.68C414.556 66.4987 415.089 66.2267 415.516 65.864C415.953 65.4907 416.278 65.064 416.492 64.584H417.308V66.52H419.148V67.4H417.308V72.312C417.308 72.9733 417.377 73.4427 417.516 73.72C417.665 73.9973 417.91 74.136 418.252 74.136C418.668 74.136 418.982 73.944 419.196 73.56L419.532 74.024C419.233 74.7813 418.529 75.16 417.42 75.16C416.684 75.16 416.108 74.9893 415.692 74.648C415.286 74.3067 415.084 73.8267 415.084 73.208V67.4H413.916ZM423.737 72.376C423.737 72.8027 423.753 73.144 423.785 73.4C423.817 73.656 423.881 73.8533 423.977 73.992C424.073 74.1307 424.212 74.2267 424.393 74.28C424.574 74.3227 424.82 74.3493 425.129 74.36V75H420.089V74.36C420.388 74.3493 420.628 74.3173 420.809 74.264C421.001 74.2 421.145 74.104 421.241 73.976C421.348 73.8373 421.417 73.6507 421.449 73.416C421.492 73.1707 421.513 72.8613 421.513 72.488V70.52C421.513 69.9013 421.502 69.3947 421.481 69C421.46 68.5947 421.433 68.3173 421.401 68.168C421.348 67.9013 421.225 67.7253 421.033 67.64C420.852 67.5547 420.516 67.512 420.025 67.512V66.968L423.737 66.36V72.376ZM421.385 62.968C421.385 62.616 421.502 62.3227 421.737 62.088C421.982 61.8427 422.276 61.72 422.617 61.72C422.969 61.72 423.262 61.8427 423.497 62.088C423.742 62.3227 423.865 62.616 423.865 62.968C423.865 63.3093 423.742 63.6027 423.497 63.848C423.262 64.0827 422.969 64.2 422.617 64.2C422.276 64.2 421.982 64.0827 421.737 63.848C421.502 63.6027 421.385 63.3093 421.385 62.968ZM433.854 73.672C433.449 74.12 432.942 74.4667 432.334 74.712C431.737 74.9573 431.086 75.08 430.382 75.08C429.732 75.08 429.14 74.9787 428.606 74.776C428.073 74.5627 427.614 74.2693 427.23 73.896C426.846 73.5227 426.548 73.0747 426.334 72.552C426.132 72.0187 426.03 71.432 426.03 70.792C426.03 70.1307 426.142 69.528 426.366 68.984C426.59 68.44 426.905 67.976 427.31 67.592C427.716 67.1973 428.201 66.8933 428.766 66.68C429.332 66.4667 429.956 66.36 430.638 66.36C431.118 66.36 431.561 66.408 431.966 66.504C432.382 66.6 432.734 66.7333 433.022 66.904C433.321 67.0747 433.556 67.2773 433.726 67.512C433.897 67.736 433.982 67.9813 433.982 68.248C433.982 68.5573 433.892 68.8027 433.71 68.984C433.54 69.1653 433.305 69.256 433.006 69.256C432.761 69.256 432.542 69.192 432.35 69.064C432.169 68.936 431.988 68.728 431.806 68.44C431.646 68.184 431.508 67.9813 431.39 67.832C431.284 67.6827 431.182 67.5707 431.086 67.496C430.99 67.4107 430.894 67.3573 430.798 67.336C430.702 67.304 430.585 67.288 430.446 67.288C429.828 67.288 429.348 67.576 429.006 68.152C428.665 68.728 428.494 69.5333 428.494 70.568C428.494 71.6773 428.697 72.5307 429.102 73.128C429.518 73.7253 430.11 74.024 430.878 74.024C431.316 74.024 431.753 73.944 432.19 73.784C432.628 73.6133 433.044 73.3733 433.438 73.064L433.854 73.672ZM435.798 75H435.302V72.088H435.974C436.155 72.856 436.416 73.416 436.758 73.768C437.099 74.12 437.542 74.296 438.086 74.296C438.48 74.296 438.784 74.216 438.998 74.056C439.222 73.8853 439.334 73.656 439.334 73.368C439.334 73.0693 439.2 72.7813 438.934 72.504C438.667 72.216 438.235 71.912 437.638 71.592C436.827 71.1547 436.246 70.7227 435.894 70.296C435.542 69.8587 435.366 69.368 435.366 68.824C435.366 68.472 435.43 68.1467 435.558 67.848C435.696 67.5387 435.878 67.272 436.102 67.048C436.336 66.824 436.614 66.6533 436.934 66.536C437.254 66.408 437.6 66.344 437.974 66.344C438.304 66.344 438.63 66.392 438.95 66.488C439.28 66.584 439.568 66.7173 439.814 66.888L440.102 66.504H440.518V68.92H439.894C439.648 68.312 439.392 67.8747 439.126 67.608C438.87 67.3413 438.555 67.208 438.182 67.208C437.883 67.208 437.643 67.288 437.462 67.448C437.291 67.608 437.206 67.8213 437.206 68.088C437.206 68.3867 437.334 68.6693 437.59 68.936C437.856 69.2027 438.294 69.496 438.902 69.816C439.328 70.0507 439.696 70.28 440.006 70.504C440.315 70.728 440.566 70.9573 440.758 71.192C440.95 71.416 441.088 71.656 441.174 71.912C441.27 72.1573 441.318 72.424 441.318 72.712C441.318 73.0853 441.248 73.4213 441.11 73.72C440.971 74.0187 440.774 74.2747 440.518 74.488C440.262 74.7013 439.952 74.8667 439.59 74.984C439.238 75.1013 438.843 75.16 438.406 75.16C437.947 75.16 437.52 75.1013 437.126 74.984C436.731 74.856 436.406 74.6747 436.15 74.44L435.798 75ZM451.645 70.44C450.749 70.8453 450.071 71.224 449.613 71.576C449.165 71.9173 448.941 72.2747 448.941 72.648C448.941 72.9573 449.026 73.2027 449.197 73.384C449.367 73.5653 449.581 73.656 449.837 73.656C450.093 73.656 450.333 73.6133 450.557 73.528C450.781 73.432 450.973 73.3093 451.133 73.16C451.293 73.0107 451.415 72.8347 451.501 72.632C451.597 72.4187 451.645 72.1947 451.645 71.96V70.44ZM451.645 69.592V68.92C451.645 68.3013 451.533 67.8533 451.309 67.576C451.095 67.288 450.759 67.144 450.301 67.144C449.991 67.144 449.757 67.2293 449.597 67.4C449.437 67.56 449.287 67.832 449.149 68.216C449.053 68.4827 448.914 68.6907 448.733 68.84C448.562 68.9893 448.322 69.064 448.013 69.064C447.714 69.064 447.485 68.9733 447.325 68.792C447.165 68.6107 447.085 68.3547 447.085 68.024C447.085 67.512 447.362 67.1067 447.917 66.808C448.482 66.5093 449.33 66.36 450.461 66.36C451.655 66.36 452.509 66.5787 453.021 67.016C453.533 67.4427 453.789 68.1627 453.789 69.176V72.68C453.789 73.5867 453.97 74.04 454.333 74.04C454.535 74.04 454.722 73.9707 454.893 73.832L455.133 74.296C454.983 74.5627 454.749 74.776 454.429 74.936C454.119 75.0853 453.767 75.16 453.373 75.16C452.882 75.16 452.509 75.0107 452.253 74.712C451.997 74.4133 451.869 73.992 451.869 73.448H451.789C451.479 74.0027 451.079 74.424 450.589 74.712C450.098 75 449.538 75.144 448.909 75.144C448.237 75.144 447.698 74.9573 447.293 74.584C446.887 74.2 446.685 73.704 446.685 73.096C446.685 72.6267 446.893 72.1893 447.309 71.784C447.725 71.368 448.418 70.9627 449.389 70.568L451.645 69.592ZM459.44 72.392C459.44 72.8293 459.451 73.176 459.472 73.432C459.504 73.6773 459.563 73.8693 459.648 74.008C459.744 74.136 459.883 74.2213 460.064 74.264C460.256 74.3067 460.512 74.3387 460.832 74.36V75H455.792V74.36C456.101 74.3387 456.347 74.3067 456.528 74.264C456.72 74.2213 456.864 74.136 456.96 74.008C457.067 73.88 457.136 73.6987 457.168 73.464C457.2 73.2293 457.216 72.9093 457.216 72.504V70.504C457.216 69.8747 457.205 69.368 457.184 68.984C457.163 68.5893 457.136 68.3227 457.104 68.184C457.072 68.0453 457.029 67.9333 456.976 67.848C456.923 67.752 456.843 67.6827 456.736 67.64C456.629 67.5867 456.496 67.5547 456.336 67.544C456.176 67.5227 455.973 67.512 455.728 67.512V66.968L458.816 66.36L459.024 67.768H459.088C459.44 67.32 459.856 66.9733 460.336 66.728C460.816 66.4827 461.344 66.36 461.92 66.36C462.603 66.36 463.152 66.456 463.568 66.648C463.995 66.8293 464.373 67.1387 464.704 67.576C464.885 67.8213 465.045 68.1413 465.184 68.536C465.323 68.92 465.392 69.4533 465.392 70.136V72.392C465.392 72.8293 465.403 73.176 465.424 73.432C465.456 73.6773 465.515 73.8693 465.6 74.008C465.696 74.136 465.835 74.2213 466.016 74.264C466.197 74.3067 466.443 74.3387 466.752 74.36V75H461.744V74.36C462.064 74.3493 462.315 74.3227 462.496 74.28C462.688 74.2267 462.832 74.136 462.928 74.008C463.024 73.88 463.088 73.6987 463.12 73.464C463.152 73.2187 463.168 72.8987 463.168 72.504V70.328C463.168 69.784 463.136 69.3253 463.072 68.952C463.008 68.5787 462.901 68.28 462.752 68.056C462.613 67.8213 462.427 67.656 462.192 67.56C461.957 67.4533 461.664 67.4 461.312 67.4C460.971 67.4 460.677 67.496 460.432 67.688C460.187 67.88 459.973 68.1467 459.792 68.488C459.696 68.68 459.611 68.9307 459.536 69.24C459.472 69.5387 459.44 69.8533 459.44 70.184V72.392ZM474.649 73.976H474.585C473.849 74.7653 472.894 75.16 471.721 75.16C471.113 75.16 470.553 75.0533 470.041 74.84C469.54 74.6267 469.102 74.328 468.729 73.944C468.366 73.56 468.084 73.1067 467.881 72.584C467.678 72.0507 467.577 71.464 467.577 70.824C467.577 70.184 467.678 69.592 467.881 69.048C468.094 68.504 468.377 68.0347 468.729 67.64C469.092 67.2347 469.518 66.92 470.009 66.696C470.51 66.472 471.049 66.36 471.625 66.36C472.158 66.36 472.628 66.44 473.033 66.6C473.449 66.76 473.812 67.032 474.121 67.416H474.185V66.056C474.185 65.4267 474.174 64.888 474.153 64.44C474.142 63.9813 474.121 63.6827 474.089 63.544C474.036 63.32 473.87 63.16 473.593 63.064C473.326 62.9573 472.91 62.904 472.345 62.904V62.36L476.393 61.72V70.872C476.393 71.672 476.398 72.2907 476.409 72.728C476.43 73.1547 476.462 73.48 476.505 73.704C476.526 73.8427 476.558 73.9547 476.601 74.04C476.644 74.1253 476.708 74.1947 476.793 74.248C476.878 74.2907 476.99 74.3227 477.129 74.344C477.278 74.3547 477.465 74.36 477.689 74.36V74.984L474.649 75.16V73.976ZM474.153 70.408C474.153 70.0027 474.11 69.6293 474.025 69.288C473.94 68.936 473.812 68.6267 473.641 68.36C473.449 68.0507 473.204 67.816 472.905 67.656C472.606 67.496 472.286 67.416 471.945 67.416C471.316 67.416 470.836 67.704 470.505 68.28C470.174 68.856 470.009 69.6933 470.009 70.792C470.009 71.9013 470.174 72.7547 470.505 73.352C470.836 73.9493 471.31 74.248 471.929 74.248C472.281 74.248 472.617 74.1573 472.937 73.976C473.257 73.7947 473.518 73.5493 473.721 73.24C473.87 73.0053 473.977 72.7173 474.041 72.376C474.116 72.024 474.153 71.576 474.153 71.032V70.408ZM488.601 75H482.889V74.36C483.251 74.3493 483.539 74.3173 483.753 74.264C483.977 74.2 484.147 74.088 484.265 73.928C484.382 73.768 484.462 73.544 484.505 73.256C484.547 72.9573 484.569 72.5573 484.569 72.056V65.624C484.569 65.176 484.547 64.808 484.505 64.52C484.473 64.2213 484.403 63.9867 484.297 63.816C484.19 63.6453 484.035 63.528 483.833 63.464C483.641 63.3893 483.379 63.3413 483.049 63.32V62.68H488.441V63.32C488.11 63.3413 487.843 63.3893 487.641 63.464C487.449 63.528 487.299 63.6453 487.193 63.816C487.086 63.9867 487.011 64.2213 486.969 64.52C486.937 64.808 486.921 65.176 486.921 65.624V72.056C486.921 72.5573 486.937 72.9573 486.969 73.256C487.011 73.544 487.091 73.768 487.209 73.928C487.337 74.088 487.507 74.2 487.721 74.264C487.945 74.3173 488.238 74.3493 488.601 74.36V75ZM498.926 70.44C498.03 70.8453 497.353 71.224 496.894 71.576C496.446 71.9173 496.222 72.2747 496.222 72.648C496.222 72.9573 496.307 73.2027 496.478 73.384C496.649 73.5653 496.862 73.656 497.118 73.656C497.374 73.656 497.614 73.6133 497.838 73.528C498.062 73.432 498.254 73.3093 498.414 73.16C498.574 73.0107 498.697 72.8347 498.782 72.632C498.878 72.4187 498.926 72.1947 498.926 71.96V70.44ZM498.926 69.592V68.92C498.926 68.3013 498.814 67.8533 498.59 67.576C498.377 67.288 498.041 67.144 497.582 67.144C497.273 67.144 497.038 67.2293 496.878 67.4C496.718 67.56 496.569 67.832 496.43 68.216C496.334 68.4827 496.195 68.6907 496.014 68.84C495.843 68.9893 495.603 69.064 495.294 69.064C494.995 69.064 494.766 68.9733 494.606 68.792C494.446 68.6107 494.366 68.3547 494.366 68.024C494.366 67.512 494.643 67.1067 495.198 66.808C495.763 66.5093 496.611 66.36 497.742 66.36C498.937 66.36 499.79 66.5787 500.302 67.016C500.814 67.4427 501.07 68.1627 501.07 69.176V72.68C501.07 73.5867 501.251 74.04 501.614 74.04C501.817 74.04 502.003 73.9707 502.174 73.832L502.414 74.296C502.265 74.5627 502.03 74.776 501.71 74.936C501.401 75.0853 501.049 75.16 500.654 75.16C500.163 75.16 499.79 75.0107 499.534 74.712C499.278 74.4133 499.15 73.992 499.15 73.448H499.07C498.761 74.0027 498.361 74.424 497.87 74.712C497.379 75 496.819 75.144 496.19 75.144C495.518 75.144 494.979 74.9573 494.574 74.584C494.169 74.2 493.966 73.704 493.966 73.096C493.966 72.6267 494.174 72.1893 494.59 71.784C495.006 71.368 495.699 70.9627 496.67 70.568L498.926 69.592ZM506.737 72.36C506.737 72.808 506.748 73.16 506.769 73.416C506.791 73.672 506.849 73.8693 506.945 74.008C507.041 74.136 507.18 74.2213 507.361 74.264C507.543 74.3067 507.793 74.3387 508.113 74.36V75H503.057V74.36C503.377 74.3387 503.633 74.3067 503.825 74.264C504.017 74.2213 504.161 74.136 504.257 74.008C504.353 73.88 504.417 73.6987 504.449 73.464C504.481 73.2187 504.497 72.8933 504.497 72.488V70.504C504.497 69.896 504.487 69.3893 504.465 68.984C504.455 68.5787 504.428 68.3013 504.385 68.152C504.353 68.0133 504.311 67.9067 504.257 67.832C504.215 67.7467 504.14 67.6827 504.033 67.64C503.937 67.5867 503.809 67.5547 503.649 67.544C503.489 67.5227 503.281 67.512 503.025 67.512V66.968L506.113 66.36L506.305 67.752H506.401C506.849 67.2507 507.297 66.8933 507.745 66.68C508.204 66.4667 508.732 66.36 509.329 66.36C510.033 66.36 510.615 66.4827 511.073 66.728C511.532 66.9733 511.879 67.3253 512.113 67.784H512.177C512.561 67.336 513.02 66.9893 513.553 66.744C514.087 66.488 514.657 66.36 515.265 66.36C515.905 66.36 516.46 66.44 516.929 66.6C517.409 66.76 517.783 66.9893 518.049 67.288C518.263 67.5333 518.417 67.8533 518.513 68.248C518.62 68.6427 518.673 69.192 518.673 69.896V72.36C518.673 72.7973 518.684 73.144 518.705 73.4C518.737 73.656 518.801 73.8533 518.897 73.992C518.993 74.1307 519.132 74.2213 519.313 74.264C519.495 74.3067 519.745 74.3387 520.065 74.36V75H515.009V74.36C515.329 74.3493 515.58 74.3227 515.761 74.28C515.953 74.2267 516.097 74.136 516.193 74.008C516.3 73.8693 516.364 73.6827 516.385 73.448C516.417 73.2133 516.433 72.8933 516.433 72.488V70.392C516.433 69.8373 516.401 69.368 516.337 68.984C516.273 68.6 516.172 68.2907 516.033 68.056C515.895 67.8213 515.708 67.656 515.473 67.56C515.249 67.4533 514.972 67.4 514.641 67.4C514.268 67.4 513.959 67.4907 513.713 67.672C513.479 67.8533 513.281 68.088 513.121 68.376C512.844 68.8773 512.705 69.5013 512.705 70.248V72.36C512.705 72.7973 512.716 73.144 512.737 73.4C512.759 73.656 512.817 73.8533 512.913 73.992C513.009 74.1307 513.148 74.2213 513.329 74.264C513.521 74.3067 513.783 74.3387 514.113 74.36V75H509.041V74.36C509.361 74.3387 509.612 74.3067 509.793 74.264C509.985 74.2213 510.129 74.136 510.225 74.008C510.332 73.88 510.396 73.6987 510.417 73.464C510.449 73.2187 510.465 72.8933 510.465 72.488V70.392C510.465 69.8373 510.433 69.368 510.369 68.984C510.305 68.6 510.199 68.2907 510.049 68.056C509.911 67.8213 509.724 67.656 509.489 67.56C509.255 67.4533 508.961 67.4 508.609 67.4C508.257 67.4 507.964 67.4853 507.729 67.656C507.505 67.8267 507.319 68.056 507.169 68.344C507.031 68.6 506.924 68.8933 506.849 69.224C506.775 69.5547 506.737 69.896 506.737 70.248V72.36ZM528.67 77.512C528.553 77.7467 528.403 77.9653 528.222 78.168C528.051 78.3707 527.854 78.5413 527.63 78.68C527.417 78.8293 527.193 78.9467 526.958 79.032C526.723 79.1173 526.489 79.16 526.254 79.16C525.902 79.16 525.619 79.0747 525.406 78.904C525.193 78.7333 525.086 78.504 525.086 78.216C525.086 77.9493 525.177 77.7413 525.358 77.592C525.55 77.4427 525.854 77.352 526.27 77.32C527.219 77.2453 527.833 76.9467 528.11 76.424L528.542 75.592L525.71 68.584C525.582 68.2747 525.47 68.0293 525.374 67.848C525.289 67.6667 525.193 67.528 525.086 67.432C524.979 67.3253 524.857 67.256 524.718 67.224C524.579 67.192 524.409 67.1707 524.206 67.16V66.52H529.054V67.16C528.638 67.16 528.345 67.2027 528.174 67.288C528.014 67.3627 527.934 67.5067 527.934 67.72C527.934 67.8053 527.945 67.9067 527.966 68.024C527.998 68.1307 528.035 68.2427 528.078 68.36L529.71 73.032H529.774L531.15 69.912C531.289 69.5813 531.406 69.3093 531.502 69.096C531.598 68.872 531.667 68.6853 531.71 68.536C531.763 68.376 531.801 68.248 531.822 68.152C531.843 68.056 531.854 67.96 531.854 67.864C531.854 67.5867 531.774 67.4 531.614 67.304C531.465 67.208 531.155 67.16 530.686 67.16V66.52H534.542V67.16C534.329 67.16 534.147 67.192 533.998 67.256C533.849 67.3093 533.694 67.4267 533.534 67.608C533.385 67.7893 533.214 68.0613 533.022 68.424C532.841 68.776 532.611 69.2453 532.334 69.832L528.67 77.512ZM539.373 66.36C540.013 66.36 540.616 66.472 541.181 66.696C541.757 66.9093 542.258 67.208 542.685 67.592C543.122 67.976 543.464 68.4347 543.709 68.968C543.965 69.4907 544.093 70.0667 544.093 70.696C544.093 71.3467 543.965 71.944 543.709 72.488C543.464 73.032 543.122 73.5013 542.685 73.896C542.258 74.2907 541.757 74.6 541.181 74.824C540.616 75.048 540.013 75.16 539.373 75.16C538.744 75.16 538.146 75.0533 537.581 74.84C537.016 74.616 536.52 74.3067 536.093 73.912C535.666 73.5173 535.33 73.048 535.085 72.504C534.84 71.9493 534.717 71.3467 534.717 70.696C534.717 70.0667 534.84 69.4853 535.085 68.952C535.33 68.4187 535.666 67.96 536.093 67.576C536.52 67.192 537.016 66.8933 537.581 66.68C538.146 66.4667 538.744 66.36 539.373 66.36ZM539.373 67.288C539.053 67.288 538.76 67.3733 538.493 67.544C538.226 67.704 537.997 67.9333 537.805 68.232C537.624 68.5307 537.48 68.8933 537.373 69.32C537.277 69.736 537.229 70.2 537.229 70.712C537.229 71.2453 537.277 71.7253 537.373 72.152C537.48 72.5787 537.624 72.9413 537.805 73.24C537.997 73.5387 538.221 73.7733 538.477 73.944C538.744 74.104 539.042 74.184 539.373 74.184C539.704 74.184 540.002 74.104 540.269 73.944C540.546 73.7733 540.781 73.5387 540.973 73.24C541.165 72.9307 541.314 72.5627 541.421 72.136C541.528 71.7093 541.581 71.2347 541.581 70.712C541.581 70.2 541.528 69.736 541.421 69.32C541.314 68.904 541.165 68.5467 540.973 68.248C540.781 67.9387 540.546 67.704 540.269 67.544C540.002 67.3733 539.704 67.288 539.373 67.288ZM552.128 69.144C552.128 68.7173 552.117 68.3813 552.096 68.136C552.074 67.88 552.016 67.688 551.92 67.56C551.824 67.4213 551.68 67.3307 551.488 67.288C551.306 67.2347 551.056 67.192 550.736 67.16V66.52H554.352V71.368C554.352 72.0187 554.357 72.5307 554.368 72.904C554.389 73.2667 554.421 73.5387 554.464 73.72C554.496 73.8587 554.533 73.9707 554.576 74.056C554.618 74.1307 554.688 74.1947 554.784 74.248C554.88 74.2907 555.008 74.3227 555.168 74.344C555.338 74.3547 555.557 74.36 555.824 74.36V74.984L552.64 75.176L552.464 73.752H552.4C552.122 74.2 551.733 74.5467 551.232 74.792C550.73 75.0373 550.17 75.16 549.552 75.16C548.41 75.16 547.541 74.7547 546.944 73.944C546.485 73.3253 546.256 72.4453 546.256 71.304V69.144C546.256 68.7067 546.245 68.3653 546.224 68.12C546.202 67.864 546.144 67.672 546.048 67.544C545.962 67.416 545.829 67.3307 545.648 67.288C545.466 67.2347 545.216 67.192 544.896 67.16V66.52H548.48V71.048C548.48 72.1253 548.613 72.9093 548.88 73.4C549.146 73.88 549.573 74.12 550.16 74.12C550.789 74.12 551.274 73.832 551.616 73.256C551.957 72.7013 552.128 71.8853 552.128 70.808V69.144ZM560.159 72.52C560.159 72.936 560.175 73.2667 560.207 73.512C560.25 73.7467 560.33 73.928 560.447 74.056C560.565 74.184 560.735 74.2693 560.959 74.312C561.183 74.344 561.482 74.36 561.855 74.36V75H556.511V74.36C556.831 74.3387 557.087 74.3067 557.279 74.264C557.471 74.2213 557.615 74.136 557.711 74.008C557.807 73.88 557.866 73.6987 557.887 73.464C557.919 73.2187 557.935 72.8933 557.935 72.488V70.536C557.935 69.8747 557.919 69.3467 557.887 68.952C557.855 68.5573 557.786 68.2533 557.679 68.04C557.573 67.8267 557.418 67.688 557.215 67.624C557.023 67.5493 556.767 67.512 556.447 67.512V66.952L559.647 66.36L559.903 68.2H559.967C560.255 67.6347 560.634 67.1867 561.103 66.856C561.573 66.5253 562.069 66.36 562.591 66.36C562.997 66.36 563.327 66.4613 563.583 66.664C563.839 66.8667 563.967 67.1227 563.967 67.432C563.967 67.7733 563.866 68.0613 563.663 68.296C563.471 68.5307 563.205 68.648 562.863 68.648C562.703 68.648 562.559 68.616 562.431 68.552C562.303 68.488 562.186 68.4187 562.079 68.344C561.983 68.2587 561.882 68.184 561.775 68.12C561.679 68.0453 561.578 68.008 561.471 68.008C561.269 68.008 561.077 68.1413 560.895 68.408C560.714 68.6747 560.565 69.032 560.447 69.48C560.362 69.8 560.293 70.1627 560.239 70.568C560.186 70.9627 560.159 71.3573 560.159 71.752V72.52ZM404.616 88.584C404.499 88.2747 404.387 88.0293 404.28 87.848C404.173 87.656 404.061 87.512 403.944 87.416C403.837 87.3093 403.715 87.24 403.576 87.208C403.448 87.176 403.293 87.16 403.112 87.16V86.52H407.896V87.16C407.629 87.16 407.416 87.1707 407.256 87.192C407.107 87.2133 406.989 87.2453 406.904 87.288C406.829 87.3307 406.781 87.3893 406.76 87.464C406.739 87.528 406.728 87.6027 406.728 87.688C406.728 87.8267 406.755 87.9867 406.808 88.168C406.861 88.3493 406.925 88.5307 407 88.712L408.52 92.904H408.584L410.296 88.728C410.371 88.5467 410.429 88.3867 410.472 88.248C410.515 88.0987 410.536 87.9653 410.536 87.848C410.536 87.6133 410.456 87.4427 410.296 87.336C410.136 87.2293 409.853 87.1707 409.448 87.16V86.52H412.984V87.16C412.696 87.16 412.445 87.2347 412.232 87.384C412.029 87.5333 411.816 87.864 411.592 88.376L408.6 95.16H407.144L404.616 88.584ZM417.096 92.376C417.096 92.8027 417.112 93.144 417.144 93.4C417.176 93.656 417.24 93.8533 417.336 93.992C417.432 94.1307 417.571 94.2267 417.752 94.28C417.934 94.3227 418.179 94.3493 418.488 94.36V95H413.448V94.36C413.747 94.3493 413.987 94.3173 414.168 94.264C414.36 94.2 414.504 94.104 414.6 93.976C414.707 93.8373 414.776 93.6507 414.808 93.416C414.851 93.1707 414.872 92.8613 414.872 92.488V90.52C414.872 89.9013 414.862 89.3947 414.84 89C414.819 88.5947 414.792 88.3173 414.76 88.168C414.707 87.9013 414.584 87.7253 414.392 87.64C414.211 87.5547 413.875 87.512 413.384 87.512V86.968L417.096 86.36V92.376ZM414.744 82.968C414.744 82.616 414.862 82.3227 415.096 82.088C415.342 81.8427 415.635 81.72 415.976 81.72C416.328 81.72 416.622 81.8427 416.856 82.088C417.102 82.3227 417.224 82.616 417.224 82.968C417.224 83.3093 417.102 83.6027 416.856 83.848C416.622 84.0827 416.328 84.2 415.976 84.2C415.635 84.2 415.342 84.0827 415.096 83.848C414.862 83.6027 414.744 83.3093 414.744 82.968ZM422.894 92.52C422.894 92.936 422.91 93.2667 422.942 93.512C422.984 93.7467 423.064 93.928 423.182 94.056C423.299 94.184 423.47 94.2693 423.694 94.312C423.918 94.344 424.216 94.36 424.59 94.36V95H419.246V94.36C419.566 94.3387 419.822 94.3067 420.014 94.264C420.206 94.2213 420.35 94.136 420.446 94.008C420.542 93.88 420.6 93.6987 420.622 93.464C420.654 93.2187 420.67 92.8933 420.67 92.488V90.536C420.67 89.8747 420.654 89.3467 420.622 88.952C420.59 88.5573 420.52 88.2533 420.414 88.04C420.307 87.8267 420.152 87.688 419.95 87.624C419.758 87.5493 419.502 87.512 419.182 87.512V86.952L422.382 86.36L422.638 88.2H422.702C422.99 87.6347 423.368 87.1867 423.838 86.856C424.307 86.5253 424.803 86.36 425.326 86.36C425.731 86.36 426.062 86.4613 426.318 86.664C426.574 86.8667 426.702 87.1227 426.702 87.432C426.702 87.7733 426.6 88.0613 426.398 88.296C426.206 88.5307 425.939 88.648 425.598 88.648C425.438 88.648 425.294 88.616 425.166 88.552C425.038 88.488 424.92 88.4187 424.814 88.344C424.718 88.2587 424.616 88.184 424.51 88.12C424.414 88.0453 424.312 88.008 424.206 88.008C424.003 88.008 423.811 88.1413 423.63 88.408C423.448 88.6747 423.299 89.032 423.182 89.48C423.096 89.8 423.027 90.1627 422.974 90.568C422.92 90.9627 422.894 91.3573 422.894 91.752V92.52ZM427.134 87.4V86.68C427.774 86.4987 428.308 86.2267 428.734 85.864C429.172 85.4907 429.497 85.064 429.71 84.584H430.526V86.52H432.366V87.4H430.526V92.312C430.526 92.9733 430.596 93.4427 430.734 93.72C430.884 93.9973 431.129 94.136 431.47 94.136C431.886 94.136 432.201 93.944 432.414 93.56L432.75 94.024C432.452 94.7813 431.748 95.16 430.638 95.16C429.902 95.16 429.326 94.9893 428.91 94.648C428.505 94.3067 428.302 93.8267 428.302 93.208V87.4H427.134ZM440.284 89.144C440.284 88.7173 440.273 88.3813 440.252 88.136C440.23 87.88 440.172 87.688 440.076 87.56C439.98 87.4213 439.836 87.3307 439.644 87.288C439.462 87.2347 439.212 87.192 438.892 87.16V86.52H442.508V91.368C442.508 92.0187 442.513 92.5307 442.524 92.904C442.545 93.2667 442.577 93.5387 442.62 93.72C442.652 93.8587 442.689 93.9707 442.732 94.056C442.774 94.1307 442.844 94.1947 442.94 94.248C443.036 94.2907 443.164 94.3227 443.324 94.344C443.494 94.3547 443.713 94.36 443.98 94.36V94.984L440.796 95.176L440.62 93.752H440.556C440.278 94.2 439.889 94.5467 439.388 94.792C438.886 95.0373 438.326 95.16 437.708 95.16C436.566 95.16 435.697 94.7547 435.1 93.944C434.641 93.3253 434.412 92.4453 434.412 91.304V89.144C434.412 88.7067 434.401 88.3653 434.38 88.12C434.358 87.864 434.3 87.672 434.204 87.544C434.118 87.416 433.985 87.3307 433.804 87.288C433.622 87.2347 433.372 87.192 433.052 87.16V86.52H436.636V91.048C436.636 92.1253 436.769 92.9093 437.036 93.4C437.302 93.88 437.729 94.12 438.316 94.12C438.945 94.12 439.43 93.832 439.772 93.256C440.113 92.7013 440.284 91.8853 440.284 90.808V89.144ZM449.692 90.44C448.796 90.8453 448.118 91.224 447.66 91.576C447.212 91.9173 446.988 92.2747 446.988 92.648C446.988 92.9573 447.073 93.2027 447.244 93.384C447.414 93.5653 447.628 93.656 447.884 93.656C448.14 93.656 448.38 93.6133 448.604 93.528C448.828 93.432 449.02 93.3093 449.18 93.16C449.34 93.0107 449.462 92.8347 449.548 92.632C449.644 92.4187 449.692 92.1947 449.692 91.96V90.44ZM449.692 89.592V88.92C449.692 88.3013 449.58 87.8533 449.356 87.576C449.142 87.288 448.806 87.144 448.348 87.144C448.038 87.144 447.804 87.2293 447.644 87.4C447.484 87.56 447.334 87.832 447.196 88.216C447.1 88.4827 446.961 88.6907 446.78 88.84C446.609 88.9893 446.369 89.064 446.06 89.064C445.761 89.064 445.532 88.9733 445.372 88.792C445.212 88.6107 445.132 88.3547 445.132 88.024C445.132 87.512 445.409 87.1067 445.964 86.808C446.529 86.5093 447.377 86.36 448.508 86.36C449.702 86.36 450.556 86.5787 451.068 87.016C451.58 87.4427 451.836 88.1627 451.836 89.176V92.68C451.836 93.5867 452.017 94.04 452.38 94.04C452.582 94.04 452.769 93.9707 452.94 93.832L453.18 94.296C453.03 94.5627 452.796 94.776 452.476 94.936C452.166 95.0853 451.814 95.16 451.42 95.16C450.929 95.16 450.556 95.0107 450.3 94.712C450.044 94.4133 449.916 93.992 449.916 93.448H449.836C449.526 94.0027 449.126 94.424 448.636 94.712C448.145 95 447.585 95.144 446.956 95.144C446.284 95.144 445.745 94.9573 445.34 94.584C444.934 94.2 444.732 93.704 444.732 93.096C444.732 92.6267 444.94 92.1893 445.356 91.784C445.772 91.368 446.465 90.9627 447.436 90.568L449.692 89.592ZM457.327 92.376C457.327 92.8027 457.343 93.144 457.375 93.4C457.407 93.656 457.471 93.8533 457.567 93.992C457.663 94.1307 457.802 94.2267 457.983 94.28C458.164 94.3227 458.41 94.3493 458.719 94.36V95H453.679V94.36C453.978 94.3493 454.218 94.3173 454.399 94.264C454.591 94.2 454.735 94.104 454.831 93.976C454.938 93.8373 455.007 93.6507 455.039 93.416C455.082 93.1707 455.103 92.8613 455.103 92.488V85.88C455.103 85.2613 455.092 84.7547 455.071 84.36C455.05 83.9547 455.023 83.6773 454.991 83.528C454.938 83.2613 454.815 83.0853 454.623 83C454.442 82.9147 454.106 82.872 453.615 82.872V82.328L457.327 81.72V92.376ZM468.817 90.44C467.921 90.8453 467.243 91.224 466.785 91.576C466.337 91.9173 466.113 92.2747 466.113 92.648C466.113 92.9573 466.198 93.2027 466.369 93.384C466.539 93.5653 466.753 93.656 467.009 93.656C467.265 93.656 467.505 93.6133 467.729 93.528C467.953 93.432 468.145 93.3093 468.305 93.16C468.465 93.0107 468.587 92.8347 468.673 92.632C468.769 92.4187 468.817 92.1947 468.817 91.96V90.44ZM468.817 89.592V88.92C468.817 88.3013 468.705 87.8533 468.481 87.576C468.267 87.288 467.931 87.144 467.473 87.144C467.163 87.144 466.929 87.2293 466.769 87.4C466.609 87.56 466.459 87.832 466.321 88.216C466.225 88.4827 466.086 88.6907 465.905 88.84C465.734 88.9893 465.494 89.064 465.185 89.064C464.886 89.064 464.657 88.9733 464.497 88.792C464.337 88.6107 464.257 88.3547 464.257 88.024C464.257 87.512 464.534 87.1067 465.089 86.808C465.654 86.5093 466.502 86.36 467.633 86.36C468.827 86.36 469.681 86.5787 470.193 87.016C470.705 87.4427 470.961 88.1627 470.961 89.176V92.68C470.961 93.5867 471.142 94.04 471.505 94.04C471.707 94.04 471.894 93.9707 472.065 93.832L472.305 94.296C472.155 94.5627 471.921 94.776 471.601 94.936C471.291 95.0853 470.939 95.16 470.545 95.16C470.054 95.16 469.681 95.0107 469.425 94.712C469.169 94.4133 469.041 93.992 469.041 93.448H468.961C468.651 94.0027 468.251 94.424 467.761 94.712C467.27 95 466.71 95.144 466.081 95.144C465.409 95.144 464.87 94.9573 464.465 94.584C464.059 94.2 463.857 93.704 463.857 93.096C463.857 92.6267 464.065 92.1893 464.481 91.784C464.897 91.368 465.59 90.9627 466.561 90.568L468.817 89.592ZM473.86 95H473.364V92.088H474.036C474.217 92.856 474.479 93.416 474.82 93.768C475.161 94.12 475.604 94.296 476.148 94.296C476.543 94.296 476.847 94.216 477.06 94.056C477.284 93.8853 477.396 93.656 477.396 93.368C477.396 93.0693 477.263 92.7813 476.996 92.504C476.729 92.216 476.297 91.912 475.7 91.592C474.889 91.1547 474.308 90.7227 473.956 90.296C473.604 89.8587 473.428 89.368 473.428 88.824C473.428 88.472 473.492 88.1467 473.62 87.848C473.759 87.5387 473.94 87.272 474.164 87.048C474.399 86.824 474.676 86.6533 474.996 86.536C475.316 86.408 475.663 86.344 476.036 86.344C476.367 86.344 476.692 86.392 477.012 86.488C477.343 86.584 477.631 86.7173 477.876 86.888L478.164 86.504H478.58V88.92H477.956C477.711 88.312 477.455 87.8747 477.188 87.608C476.932 87.3413 476.617 87.208 476.244 87.208C475.945 87.208 475.705 87.288 475.524 87.448C475.353 87.608 475.268 87.8213 475.268 88.088C475.268 88.3867 475.396 88.6693 475.652 88.936C475.919 89.2027 476.356 89.496 476.964 89.816C477.391 90.0507 477.759 90.28 478.068 90.504C478.377 90.728 478.628 90.9573 478.82 91.192C479.012 91.416 479.151 91.656 479.236 91.912C479.332 92.1573 479.38 92.424 479.38 92.712C479.38 93.0853 479.311 93.4213 479.172 93.72C479.033 94.0187 478.836 94.2747 478.58 94.488C478.324 94.7013 478.015 94.8667 477.652 94.984C477.3 95.1013 476.905 95.16 476.468 95.16C476.009 95.16 475.583 95.1013 475.188 94.984C474.793 94.856 474.468 94.6747 474.212 94.44L473.86 95ZM481.313 95H480.817V92.088H481.489C481.67 92.856 481.932 93.416 482.273 93.768C482.614 94.12 483.057 94.296 483.601 94.296C483.996 94.296 484.3 94.216 484.513 94.056C484.737 93.8853 484.849 93.656 484.849 93.368C484.849 93.0693 484.716 92.7813 484.449 92.504C484.182 92.216 483.75 91.912 483.153 91.592C482.342 91.1547 481.761 90.7227 481.409 90.296C481.057 89.8587 480.881 89.368 480.881 88.824C480.881 88.472 480.945 88.1467 481.073 87.848C481.212 87.5387 481.393 87.272 481.617 87.048C481.852 86.824 482.129 86.6533 482.449 86.536C482.769 86.408 483.116 86.344 483.489 86.344C483.82 86.344 484.145 86.392 484.465 86.488C484.796 86.584 485.084 86.7173 485.329 86.888L485.617 86.504H486.033V88.92H485.409C485.164 88.312 484.908 87.8747 484.641 87.608C484.385 87.3413 484.07 87.208 483.697 87.208C483.398 87.208 483.158 87.288 482.977 87.448C482.806 87.608 482.721 87.8213 482.721 88.088C482.721 88.3867 482.849 88.6693 483.105 88.936C483.372 89.2027 483.809 89.496 484.417 89.816C484.844 90.0507 485.212 90.28 485.521 90.504C485.83 90.728 486.081 90.9573 486.273 91.192C486.465 91.416 486.604 91.656 486.689 91.912C486.785 92.1573 486.833 92.424 486.833 92.712C486.833 93.0853 486.764 93.4213 486.625 93.72C486.486 94.0187 486.289 94.2747 486.033 94.488C485.777 94.7013 485.468 94.8667 485.105 94.984C484.753 95.1013 484.358 95.16 483.921 95.16C483.462 95.16 483.036 95.1013 482.641 94.984C482.246 94.856 481.921 94.6747 481.665 94.44L481.313 95ZM491.518 92.376C491.518 92.8027 491.534 93.144 491.566 93.4C491.598 93.656 491.662 93.8533 491.758 93.992C491.854 94.1307 491.993 94.2267 492.174 94.28C492.356 94.3227 492.601 94.3493 492.91 94.36V95H487.87V94.36C488.169 94.3493 488.409 94.3173 488.59 94.264C488.782 94.2 488.926 94.104 489.022 93.976C489.129 93.8373 489.198 93.6507 489.23 93.416C489.273 93.1707 489.294 92.8613 489.294 92.488V90.52C489.294 89.9013 489.284 89.3947 489.262 89C489.241 88.5947 489.214 88.3173 489.182 88.168C489.129 87.9013 489.006 87.7253 488.814 87.64C488.633 87.5547 488.297 87.512 487.806 87.512V86.968L491.518 86.36V92.376ZM489.166 82.968C489.166 82.616 489.284 82.3227 489.518 82.088C489.764 81.8427 490.057 81.72 490.398 81.72C490.75 81.72 491.044 81.8427 491.278 82.088C491.524 82.3227 491.646 82.616 491.646 82.968C491.646 83.3093 491.524 83.6027 491.278 83.848C491.044 84.0827 490.75 84.2 490.398 84.2C490.057 84.2 489.764 84.0827 489.518 83.848C489.284 83.6027 489.166 83.3093 489.166 82.968ZM494.548 95H494.052V92.088H494.724C494.905 92.856 495.166 93.416 495.508 93.768C495.849 94.12 496.292 94.296 496.836 94.296C497.23 94.296 497.534 94.216 497.748 94.056C497.972 93.8853 498.084 93.656 498.084 93.368C498.084 93.0693 497.95 92.7813 497.684 92.504C497.417 92.216 496.985 91.912 496.388 91.592C495.577 91.1547 494.996 90.7227 494.644 90.296C494.292 89.8587 494.116 89.368 494.116 88.824C494.116 88.472 494.18 88.1467 494.308 87.848C494.446 87.5387 494.628 87.272 494.852 87.048C495.086 86.824 495.364 86.6533 495.684 86.536C496.004 86.408 496.35 86.344 496.724 86.344C497.054 86.344 497.38 86.392 497.7 86.488C498.03 86.584 498.318 86.7173 498.564 86.888L498.852 86.504H499.268V88.92H498.644C498.398 88.312 498.142 87.8747 497.876 87.608C497.62 87.3413 497.305 87.208 496.932 87.208C496.633 87.208 496.393 87.288 496.212 87.448C496.041 87.608 495.956 87.8213 495.956 88.088C495.956 88.3867 496.084 88.6693 496.34 88.936C496.606 89.2027 497.044 89.496 497.652 89.816C498.078 90.0507 498.446 90.28 498.756 90.504C499.065 90.728 499.316 90.9573 499.508 91.192C499.7 91.416 499.838 91.656 499.924 91.912C500.02 92.1573 500.068 92.424 500.068 92.712C500.068 93.0853 499.998 93.4213 499.86 93.72C499.721 94.0187 499.524 94.2747 499.268 94.488C499.012 94.7013 498.702 94.8667 498.34 94.984C497.988 95.1013 497.593 95.16 497.156 95.16C496.697 95.16 496.27 95.1013 495.876 94.984C495.481 94.856 495.156 94.6747 494.9 94.44L494.548 95ZM501.041 87.4V86.68C501.681 86.4987 502.214 86.2267 502.641 85.864C503.078 85.4907 503.403 85.064 503.617 84.584H504.433V86.52H506.273V87.4H504.433V92.312C504.433 92.9733 504.502 93.4427 504.641 93.72C504.79 93.9973 505.035 94.136 505.377 94.136C505.793 94.136 506.107 93.944 506.321 93.56L506.657 94.024C506.358 94.7813 505.654 95.16 504.545 95.16C503.809 95.16 503.233 94.9893 502.817 94.648C502.411 94.3067 502.209 93.8267 502.209 93.208V87.4H501.041ZM512.254 90.44C511.358 90.8453 510.681 91.224 510.222 91.576C509.774 91.9173 509.55 92.2747 509.55 92.648C509.55 92.9573 509.635 93.2027 509.806 93.384C509.977 93.5653 510.19 93.656 510.446 93.656C510.702 93.656 510.942 93.6133 511.166 93.528C511.39 93.432 511.582 93.3093 511.742 93.16C511.902 93.0107 512.025 92.8347 512.11 92.632C512.206 92.4187 512.254 92.1947 512.254 91.96V90.44ZM512.254 89.592V88.92C512.254 88.3013 512.142 87.8533 511.918 87.576C511.705 87.288 511.369 87.144 510.91 87.144C510.601 87.144 510.366 87.2293 510.206 87.4C510.046 87.56 509.897 87.832 509.758 88.216C509.662 88.4827 509.523 88.6907 509.342 88.84C509.171 88.9893 508.931 89.064 508.622 89.064C508.323 89.064 508.094 88.9733 507.934 88.792C507.774 88.6107 507.694 88.3547 507.694 88.024C507.694 87.512 507.971 87.1067 508.526 86.808C509.091 86.5093 509.939 86.36 511.07 86.36C512.265 86.36 513.118 86.5787 513.63 87.016C514.142 87.4427 514.398 88.1627 514.398 89.176V92.68C514.398 93.5867 514.579 94.04 514.942 94.04C515.145 94.04 515.331 93.9707 515.502 93.832L515.742 94.296C515.593 94.5627 515.358 94.776 515.038 94.936C514.729 95.0853 514.377 95.16 513.982 95.16C513.491 95.16 513.118 95.0107 512.862 94.712C512.606 94.4133 512.478 93.992 512.478 93.448H512.398C512.089 94.0027 511.689 94.424 511.198 94.712C510.707 95 510.147 95.144 509.518 95.144C508.846 95.144 508.307 94.9573 507.902 94.584C507.497 94.2 507.294 93.704 507.294 93.096C507.294 92.6267 507.502 92.1893 507.918 91.784C508.334 91.368 509.027 90.9627 509.998 90.568L512.254 89.592ZM520.049 92.392C520.049 92.8293 520.06 93.176 520.082 93.432C520.114 93.6773 520.172 93.8693 520.258 94.008C520.354 94.136 520.492 94.2213 520.674 94.264C520.866 94.3067 521.122 94.3387 521.442 94.36V95H516.402V94.36C516.711 94.3387 516.956 94.3067 517.138 94.264C517.33 94.2213 517.474 94.136 517.57 94.008C517.676 93.88 517.746 93.6987 517.778 93.464C517.81 93.2293 517.826 92.9093 517.826 92.504V90.504C517.826 89.8747 517.815 89.368 517.794 88.984C517.772 88.5893 517.746 88.3227 517.714 88.184C517.682 88.0453 517.639 87.9333 517.586 87.848C517.532 87.752 517.452 87.6827 517.346 87.64C517.239 87.5867 517.106 87.5547 516.946 87.544C516.786 87.5227 516.583 87.512 516.338 87.512V86.968L519.426 86.36L519.634 87.768H519.698C520.05 87.32 520.466 86.9733 520.946 86.728C521.426 86.4827 521.954 86.36 522.53 86.36C523.212 86.36 523.762 86.456 524.178 86.648C524.604 86.8293 524.983 87.1387 525.314 87.576C525.495 87.8213 525.655 88.1413 525.794 88.536C525.932 88.92 526.002 89.4533 526.002 90.136V92.392C526.002 92.8293 526.012 93.176 526.034 93.432C526.066 93.6773 526.124 93.8693 526.21 94.008C526.306 94.136 526.444 94.2213 526.626 94.264C526.807 94.3067 527.052 94.3387 527.362 94.36V95H522.354V94.36C522.674 94.3493 522.924 94.3227 523.106 94.28C523.298 94.2267 523.442 94.136 523.538 94.008C523.634 93.88 523.698 93.6987 523.73 93.464C523.762 93.2187 523.778 92.8987 523.778 92.504V90.328C523.778 89.784 523.746 89.3253 523.682 88.952C523.618 88.5787 523.511 88.28 523.362 88.056C523.223 87.8213 523.036 87.656 522.802 87.56C522.567 87.4533 522.274 87.4 521.922 87.4C521.58 87.4 521.287 87.496 521.042 87.688C520.796 87.88 520.583 88.1467 520.402 88.488C520.306 88.68 520.22 88.9307 520.146 89.24C520.082 89.5387 520.049 89.8533 520.049 90.184V92.392ZM527.963 87.4V86.68C528.603 86.4987 529.136 86.2267 529.562 85.864C530 85.4907 530.325 85.064 530.539 84.584H531.355V86.52H533.195V87.4H531.355V92.312C531.355 92.9733 531.424 93.4427 531.562 93.72C531.712 93.9973 531.957 94.136 532.299 94.136C532.715 94.136 533.029 93.944 533.243 93.56L533.579 94.024C533.28 94.7813 532.576 95.16 531.467 95.16C530.731 95.16 530.155 94.9893 529.739 94.648C529.333 94.3067 529.131 93.8267 529.131 93.208V87.4H527.963ZM539.922 91.688C539.922 90.7173 539.89 89.896 539.826 89.224C539.762 88.552 539.687 87.96 539.602 87.448C539.549 87.128 539.495 86.8293 539.442 86.552C539.389 86.264 539.341 85.9867 539.298 85.72C539.255 85.4427 539.218 85.1653 539.186 84.888C539.165 84.6 539.154 84.2907 539.154 83.96C539.154 83 539.57 82.52 540.402 82.52C541.234 82.52 541.65 83 541.65 83.96C541.65 84.2907 541.634 84.6 541.602 84.888C541.581 85.1653 541.549 85.4427 541.506 85.72C541.463 85.9867 541.415 86.264 541.362 86.552C541.309 86.8293 541.255 87.128 541.202 87.448C541.117 87.96 541.042 88.552 540.978 89.224C540.914 89.8853 540.882 90.7067 540.882 91.688H539.922ZM539.202 93.96C539.202 93.6187 539.319 93.3307 539.554 93.096C539.789 92.8613 540.077 92.744 540.418 92.744C540.759 92.744 541.047 92.8613 541.282 93.096C541.517 93.3307 541.634 93.6187 541.634 93.96C541.634 94.3013 541.517 94.5893 541.282 94.824C541.047 95.048 540.759 95.16 540.418 95.16C540.077 95.16 539.789 95.048 539.554 94.824C539.319 94.5893 539.202 94.3013 539.202 93.96Z" fill="black"/>
</svg>
