<svg width="500" height="341" viewBox="0 0 500 341" fill="none" xmlns="http://www.w3.org/2000/svg">
<g clip-path="url(#clip0_1_2)">
<path d="M416.918 7.68098e-09H5.90432C4.3388 0.00142246 2.83781 0.622669 1.73084 1.72737C0.623868 2.83208 0.00137515 4.32997 0 5.89223V283.827C0.00137336 285.389 0.623868 286.887 1.73084 287.992C2.83781 289.097 4.3388 289.718 5.90432 289.719H416.918C417.772 289.719 418.616 289.534 419.391 289.177C420.166 288.82 420.854 288.3 421.408 287.652C421.455 287.601 421.498 287.547 421.536 287.489C421.889 287.059 422.174 286.579 422.383 286.064C422.68 285.355 422.832 284.595 422.83 283.827V5.89226C422.828 4.3289 422.204 2.83015 421.096 1.72531C419.987 0.620474 418.485 -7.97173e-05 416.918 7.68098e-09V7.68098e-09ZM421.144 283.827C421.144 284.649 420.902 285.453 420.446 286.138C420.041 286.741 419.492 287.233 418.848 287.571C418.252 287.878 417.59 288.038 416.918 288.037H5.90432C4.78593 288.035 3.71373 287.591 2.92291 286.802C2.13208 286.013 1.6872 284.943 1.68584 283.827V5.89226C1.6872 4.77619 2.13208 3.70623 2.92291 2.91705C3.71373 2.12787 4.78593 1.68391 5.90432 1.68255H416.918C418.038 1.68241 419.112 2.12566 419.904 2.91497C420.696 3.70427 421.142 4.7751 421.144 5.89226V283.827Z" fill="black"/>
<path d="M421.983 23.6157H0.841431V25.3001H421.983V23.6157Z" fill="black"/>
<path d="M15.1889 17.6865C17.9856 17.6865 20.2528 15.4241 20.2528 12.6332C20.2528 9.84236 17.9856 7.57993 15.1889 7.57993C12.3923 7.57993 10.1251 9.84236 10.1251 12.6332C10.1251 15.4241 12.3923 17.6865 15.1889 17.6865Z" fill="#3F3D56"/>
<path d="M29.7474 17.6865C32.5441 17.6865 34.8112 15.4241 34.8112 12.6332C34.8112 9.84236 32.5441 7.57993 29.7474 7.57993C26.9507 7.57993 24.6836 9.84236 24.6836 12.6332C24.6836 15.4241 26.9507 17.6865 29.7474 17.6865Z" fill="#1D4ED8"/>
<path d="M44.3059 17.6865C47.1026 17.6865 49.3698 15.4241 49.3698 12.6332C49.3698 9.84236 47.1026 7.57993 44.3059 7.57993C41.5093 7.57993 39.2421 9.84236 39.2421 12.6332C39.2421 15.4241 41.5093 17.6865 44.3059 17.6865Z" fill="#991B1B"/>
<path d="M272.754 118.494C270.052 118.494 267.411 117.694 265.164 116.196C262.918 114.698 261.167 112.569 260.133 110.078C259.099 107.588 258.829 104.847 259.356 102.202C259.883 99.5579 261.184 97.1289 263.094 95.2224C265.005 93.316 267.439 92.0176 270.089 91.4916C272.738 90.9657 275.485 91.2356 277.981 92.2674C280.477 93.2992 282.611 95.0464 284.112 97.2882C285.613 99.5299 286.414 102.166 286.414 104.862C286.41 108.476 284.969 111.941 282.408 114.496C279.848 117.052 276.375 118.49 272.754 118.494V118.494ZM272.754 92.5216C270.308 92.5216 267.917 93.2454 265.883 94.6013C263.85 95.9573 262.265 97.8845 261.329 100.139C260.393 102.394 260.148 104.875 260.625 107.269C261.102 109.663 262.28 111.862 264.01 113.587C265.739 115.313 267.942 116.489 270.341 116.965C272.74 117.441 275.226 117.196 277.486 116.262C279.745 115.328 281.677 113.747 283.035 111.717C284.394 109.688 285.119 107.302 285.119 104.862C285.116 101.59 283.812 98.4535 281.493 96.14C279.175 93.8266 276.032 92.5253 272.754 92.5216V92.5216Z" fill="#0369A1"/>
<path d="M271.464 109.815C271.171 109.816 270.886 109.721 270.652 109.546L270.638 109.535L267.579 107.201C267.293 106.982 267.106 106.659 267.059 106.302C267.012 105.945 267.108 105.585 267.328 105.299C267.547 105.014 267.871 104.827 268.228 104.78C268.586 104.733 268.947 104.829 269.233 105.048L271.214 106.564L275.895 100.47C276.003 100.329 276.139 100.21 276.293 100.121C276.448 100.032 276.618 99.974 276.795 99.9506C276.972 99.9273 277.152 99.939 277.324 99.985C277.496 100.031 277.658 100.11 277.8 100.219L277.8 100.219L277.771 100.259L277.801 100.219C278.086 100.438 278.273 100.761 278.32 101.118C278.367 101.474 278.271 101.835 278.052 102.12L272.546 109.285C272.419 109.45 272.255 109.584 272.068 109.675C271.88 109.767 271.674 109.814 271.465 109.814L271.464 109.815Z" fill="#0369A1"/>
<path d="M311.84 118.494C309.139 118.494 306.497 117.694 304.251 116.196C302.005 114.698 300.254 112.569 299.22 110.078C298.186 107.588 297.915 104.847 298.442 102.202C298.969 99.5579 300.271 97.1289 302.181 95.2224C304.091 93.316 306.525 92.0176 309.175 91.4916C311.825 90.9657 314.572 91.2356 317.068 92.2674C319.564 93.2992 321.698 95.0464 323.199 97.2882C324.7 99.5299 325.501 102.166 325.501 104.862C325.497 108.476 324.056 111.941 321.495 114.497C318.934 117.052 315.462 118.49 311.84 118.494V118.494ZM311.84 92.5216C309.395 92.5216 307.004 93.2454 304.97 94.6013C302.937 95.9573 301.352 97.8845 300.416 100.139C299.48 102.394 299.235 104.875 299.712 107.269C300.189 109.663 301.367 111.862 303.096 113.587C304.826 115.313 307.029 116.489 309.428 116.965C311.827 117.441 314.313 117.196 316.573 116.262C318.832 115.328 320.763 113.747 322.122 111.717C323.481 109.688 324.206 107.302 324.206 104.862C324.202 101.59 322.898 98.4534 320.58 96.14C318.262 93.8266 315.119 92.5253 311.84 92.5216V92.5216Z" fill="#E6E6E6"/>
<path d="M316.757 109.578C316.593 109.742 316.371 109.833 316.139 109.833C315.907 109.833 315.685 109.742 315.521 109.578L312.243 106.307C312.17 106.234 312.071 106.193 311.968 106.193C311.864 106.193 311.765 106.234 311.692 106.307L308.414 109.578C308.25 109.742 308.028 109.834 307.796 109.834C307.564 109.834 307.341 109.742 307.177 109.578C307.013 109.415 306.921 109.193 306.921 108.961C306.921 108.73 307.013 108.508 307.177 108.344L310.455 105.073C310.528 105 310.569 104.901 310.569 104.798C310.569 104.695 310.528 104.596 310.455 104.523L307.177 101.252C307.013 101.088 306.921 100.866 306.921 100.635C306.921 100.404 307.013 100.182 307.177 100.018C307.341 99.8545 307.564 99.7626 307.795 99.7626C308.027 99.7626 308.25 99.8545 308.414 100.018L311.692 103.289C311.765 103.362 311.864 103.403 311.967 103.403C312.071 103.403 312.17 103.362 312.243 103.289L315.521 100.018C315.685 99.8546 315.907 99.7626 316.139 99.7627C316.371 99.7627 316.593 99.8546 316.757 100.018C316.921 100.182 317.013 100.404 317.013 100.635C317.013 100.867 316.921 101.089 316.757 101.252L313.479 104.523C313.406 104.596 313.365 104.695 313.365 104.798C313.365 104.902 313.407 105 313.479 105.073L316.757 108.344C316.921 108.508 317.013 108.73 317.013 108.961C317.013 109.193 316.921 109.415 316.757 109.578V109.578Z" fill="#E6E6E6"/>
<path d="M272.754 161.773C270.052 161.773 267.411 160.973 265.164 159.476C262.918 157.978 261.167 155.849 260.133 153.358C259.099 150.867 258.829 148.126 259.356 145.481C259.883 142.837 261.184 140.408 263.094 138.502C265.005 136.595 267.439 135.297 270.089 134.771C272.738 134.245 275.485 134.515 277.981 135.547C280.477 136.578 282.611 138.326 284.112 140.567C285.613 142.809 286.414 145.445 286.414 148.141C286.41 151.755 284.969 155.22 282.408 157.776C279.848 160.331 276.375 161.769 272.754 161.773V161.773ZM272.754 135.801C270.308 135.801 267.917 136.525 265.883 137.881C263.85 139.236 262.265 141.164 261.329 143.419C260.393 145.673 260.148 148.155 260.625 150.548C261.102 152.942 262.28 155.141 264.01 156.867C265.739 158.593 267.942 159.768 270.341 160.244C272.74 160.72 275.226 160.476 277.486 159.542C279.745 158.608 281.677 157.026 283.035 154.997C284.394 152.967 285.119 150.582 285.119 148.141C285.116 144.869 283.812 141.733 281.493 139.419C279.175 137.106 276.032 135.805 272.754 135.801V135.801Z" fill="#0369A1"/>
<path d="M271.464 153.095C271.171 153.095 270.886 153.001 270.652 152.825L270.638 152.815L267.579 150.48C267.293 150.261 267.106 149.938 267.059 149.581C267.012 149.225 267.108 148.864 267.328 148.578C267.547 148.293 267.871 148.106 268.228 148.059C268.586 148.012 268.947 148.108 269.233 148.327L271.214 149.843L275.895 143.749C276.003 143.608 276.139 143.489 276.293 143.4C276.448 143.311 276.618 143.253 276.795 143.23C276.972 143.207 277.152 143.218 277.324 143.264C277.496 143.31 277.658 143.39 277.8 143.498L277.8 143.498L277.771 143.539L277.801 143.498C278.086 143.717 278.273 144.041 278.32 144.397C278.367 144.753 278.271 145.114 278.052 145.399L272.546 152.564C272.419 152.729 272.255 152.863 272.068 152.955C271.88 153.046 271.674 153.094 271.465 153.093L271.464 153.095Z" fill="#0369A1"/>
<path d="M311.84 161.773C309.139 161.773 306.497 160.973 304.251 159.476C302.005 157.978 300.254 155.849 299.22 153.358C298.186 150.867 297.915 148.126 298.442 145.481C298.969 142.837 300.271 140.408 302.181 138.502C304.091 136.595 306.525 135.297 309.175 134.771C311.825 134.245 314.572 134.515 317.068 135.547C319.564 136.578 321.698 138.326 323.199 140.567C324.7 142.809 325.501 145.445 325.501 148.141C325.497 151.755 324.056 155.22 321.495 157.776C318.934 160.331 315.462 161.769 311.84 161.773ZM311.84 135.801C309.395 135.801 307.004 136.525 304.97 137.881C302.937 139.236 301.352 141.164 300.416 143.419C299.48 145.673 299.235 148.155 299.712 150.548C300.189 152.942 301.367 155.141 303.096 156.867C304.826 158.593 307.029 159.768 309.428 160.244C311.827 160.72 314.313 160.476 316.573 159.542C318.832 158.608 320.763 157.026 322.122 154.997C323.481 152.967 324.206 150.582 324.206 148.141C324.202 144.869 322.898 141.733 320.58 139.419C318.262 137.106 315.119 135.805 311.84 135.801V135.801Z" fill="#E6E6E6"/>
<path d="M316.758 152.858C316.593 153.021 316.371 153.113 316.139 153.113C315.907 153.113 315.685 153.021 315.521 152.858L312.243 149.586C312.17 149.514 312.071 149.473 311.968 149.473C311.864 149.473 311.765 149.514 311.692 149.586L308.414 152.858C308.25 153.021 308.028 153.113 307.796 153.113C307.564 153.113 307.341 153.021 307.177 152.858C307.013 152.694 306.921 152.472 306.921 152.24C306.921 152.009 307.013 151.787 307.177 151.623L310.455 148.352C310.528 148.279 310.569 148.18 310.569 148.077C310.569 147.974 310.528 147.875 310.455 147.803L307.177 144.531C307.013 144.368 306.921 144.146 306.921 143.914C306.921 143.683 307.013 143.461 307.177 143.297C307.341 143.134 307.564 143.042 307.795 143.042C308.027 143.042 308.25 143.134 308.414 143.297L311.692 146.569C311.765 146.641 311.864 146.682 311.967 146.682C312.071 146.682 312.17 146.641 312.243 146.569L315.521 143.297C315.685 143.134 315.907 143.042 316.139 143.042C316.371 143.042 316.593 143.134 316.757 143.297C316.921 143.461 317.013 143.683 317.013 143.915C317.013 144.146 316.921 144.368 316.757 144.532L313.479 147.803C313.406 147.876 313.366 147.975 313.366 148.078C313.366 148.181 313.407 148.28 313.48 148.353L316.757 151.624C316.921 151.787 317.013 152.009 317.013 152.241C317.013 152.472 316.921 152.694 316.758 152.858V152.858Z" fill="#E6E6E6"/>
<path d="M272.754 205.052C270.052 205.052 267.411 204.253 265.164 202.755C262.918 201.257 261.167 199.128 260.133 196.637C259.099 194.146 258.829 191.405 259.356 188.761C259.883 186.116 261.184 183.687 263.094 181.781C265.005 179.874 267.439 178.576 270.089 178.05C272.738 177.524 275.485 177.794 277.981 178.826C280.477 179.858 282.611 181.605 284.112 183.847C285.613 186.088 286.414 188.724 286.414 191.42C286.41 195.034 284.969 198.499 282.408 201.055C279.848 203.611 276.375 205.048 272.754 205.052V205.052ZM272.754 179.08C270.308 179.08 267.917 179.804 265.883 181.16C263.85 182.516 262.265 184.443 261.329 186.698C260.393 188.953 260.148 191.434 260.625 193.828C261.102 196.221 262.28 198.42 264.01 200.146C265.739 201.872 267.942 203.047 270.341 203.523C272.74 203.999 275.226 203.755 277.486 202.821C279.745 201.887 281.677 200.305 283.035 198.276C284.394 196.247 285.119 193.861 285.119 191.42C285.116 188.149 283.812 185.012 281.493 182.699C279.175 180.385 276.032 179.084 272.754 179.08V179.08Z" fill="#E6E6E6"/>
<path d="M271.464 196.374C271.171 196.374 270.886 196.28 270.652 196.105L270.638 196.094L267.579 193.759C267.293 193.54 267.106 193.217 267.059 192.86C267.012 192.504 267.108 192.143 267.328 191.858C267.547 191.572 267.871 191.385 268.228 191.338C268.586 191.291 268.947 191.388 269.233 191.607L271.214 193.122L275.895 187.028C276.003 186.887 276.139 186.768 276.293 186.679C276.448 186.59 276.618 186.532 276.795 186.509C276.972 186.486 277.152 186.497 277.324 186.543C277.496 186.589 277.658 186.669 277.8 186.777L277.8 186.778L277.771 186.818L277.801 186.778C278.086 186.997 278.273 187.32 278.32 187.676C278.367 188.033 278.271 188.393 278.052 188.679L272.546 195.843C272.419 196.008 272.255 196.142 272.068 196.234C271.88 196.326 271.674 196.373 271.465 196.372L271.464 196.374Z" fill="#E6E6E6"/>
<path d="M311.84 205.052C309.139 205.052 306.497 204.253 304.251 202.755C302.005 201.257 300.254 199.128 299.22 196.637C298.186 194.146 297.915 191.405 298.442 188.761C298.969 186.116 300.271 183.687 302.181 181.781C304.091 179.874 306.525 178.576 309.175 178.05C311.825 177.524 314.572 177.794 317.068 178.826C319.564 179.858 321.698 181.605 323.199 183.847C324.7 186.088 325.501 188.724 325.501 191.42C325.497 195.034 324.056 198.499 321.495 201.055C318.934 203.611 315.462 205.048 311.84 205.052ZM311.84 179.08C309.395 179.08 307.004 179.804 304.97 181.16C302.937 182.516 301.352 184.443 300.416 186.698C299.48 188.953 299.235 191.434 299.712 193.828C300.189 196.221 301.367 198.42 303.096 200.146C304.826 201.872 307.029 203.047 309.428 203.523C311.827 203.999 314.313 203.755 316.573 202.821C318.832 201.887 320.763 200.305 322.122 198.276C323.481 196.247 324.206 193.861 324.206 191.42C324.202 188.149 322.898 185.012 320.58 182.698C318.262 180.385 315.119 179.084 311.84 179.08V179.08Z" fill="#E6E6E6"/>
<path d="M316.758 196.137C316.593 196.3 316.371 196.392 316.139 196.392C315.907 196.392 315.685 196.3 315.521 196.137L312.243 192.866C312.17 192.793 312.071 192.752 311.968 192.752C311.864 192.752 311.765 192.793 311.692 192.866L308.414 196.137C308.25 196.3 308.028 196.392 307.796 196.392C307.564 196.392 307.341 196.3 307.177 196.137C307.013 195.973 306.921 195.751 306.921 195.52C306.921 195.288 307.013 195.066 307.177 194.903L310.455 191.632C310.528 191.559 310.569 191.46 310.569 191.357C310.569 191.254 310.528 191.155 310.455 191.082L307.177 187.81C307.013 187.647 306.921 187.425 306.921 187.194C306.921 186.962 307.013 186.74 307.177 186.577C307.341 186.413 307.564 186.321 307.795 186.321C308.027 186.321 308.25 186.413 308.414 186.577L311.692 189.848C311.765 189.921 311.864 189.962 311.967 189.962C312.071 189.962 312.17 189.921 312.243 189.848L315.521 186.577C315.685 186.414 315.907 186.322 316.139 186.322C316.37 186.323 316.592 186.414 316.756 186.578C316.92 186.741 317.012 186.963 317.012 187.194C317.012 187.425 316.921 187.647 316.757 187.811L313.479 191.082C313.406 191.155 313.366 191.254 313.366 191.357C313.366 191.46 313.407 191.559 313.48 191.632L316.757 194.903C316.921 195.067 317.013 195.289 317.013 195.52C317.013 195.751 316.921 195.973 316.758 196.137V196.137Z" fill="#E6E6E6"/>
<path d="M499.323 340.801H241.339C241.159 340.801 240.987 340.73 240.86 340.603C240.733 340.476 240.662 340.304 240.662 340.125C240.662 339.946 240.733 339.774 240.86 339.647C240.987 339.521 241.159 339.449 241.339 339.449H499.323C499.502 339.449 499.675 339.521 499.802 339.647C499.929 339.774 500 339.946 500 340.125C500 340.304 499.929 340.476 499.802 340.603C499.675 340.73 499.502 340.801 499.323 340.801Z" fill="#3F3D56"/>
<path d="M278.067 156.388C278.919 156.902 279.873 157.224 280.863 157.33C281.853 157.436 282.854 157.324 283.795 157.002C284.737 156.681 285.597 156.157 286.314 155.468C287.031 154.778 287.587 153.941 287.945 153.014L312.128 153.817L305.559 143.118L283.601 143.995C282.001 143.499 280.273 143.606 278.747 144.296C277.22 144.986 276 146.211 275.318 147.739C274.636 149.266 274.539 150.991 275.045 152.585C275.552 154.179 276.627 155.532 278.067 156.389V156.388Z" fill="#FFB8B8"/>
<path d="M414.422 208.662C415.078 207.915 415.562 207.033 415.84 206.079C416.118 205.126 416.183 204.123 416.031 203.141C415.878 202.159 415.512 201.223 414.957 200.398C414.403 199.573 413.674 198.879 412.822 198.366L417.85 174.746L406.144 179.327L403.164 201.054C402.394 202.54 402.197 204.255 402.611 205.876C403.024 207.497 404.019 208.91 405.407 209.848C406.794 210.785 408.478 211.183 410.14 210.964C411.802 210.745 413.325 209.926 414.422 208.662V208.662Z" fill="#FFB8B8"/>
<path d="M357.771 331.758L349.47 331.757L345.521 299.804L357.772 299.805L357.771 331.758Z" fill="#FFB8B8"/>
<path d="M359.888 339.788L333.121 339.787V339.449C333.121 338.084 333.39 336.732 333.914 335.471C334.437 334.209 335.205 333.063 336.172 332.098C337.14 331.132 338.288 330.367 339.552 329.844C340.816 329.322 342.171 329.053 343.539 329.053H343.54L359.888 329.053L359.888 339.788Z" fill="#222222"/>
<path d="M398.398 331.758L390.097 331.757L386.148 299.804L398.4 299.805L398.398 331.758Z" fill="#FFB8B8"/>
<path d="M400.515 339.788L373.748 339.787V339.449C373.748 338.084 374.018 336.732 374.541 335.471C375.065 334.209 375.832 333.063 376.8 332.098C377.767 331.132 378.916 330.367 380.18 329.844C381.444 329.322 382.799 329.053 384.167 329.053H384.167L400.516 329.053L400.515 339.788Z" fill="#222222"/>
<path d="M358.636 315.073L346.884 314.604C346.083 314.569 345.327 314.222 344.78 313.636C344.233 313.05 343.939 312.273 343.961 311.473L347.271 203.103L347.488 203.025C368.083 195.59 385.121 196.152 399.576 204.741L399.738 204.837L401.721 310.385C401.729 310.789 401.656 311.191 401.506 311.567C401.356 311.942 401.133 312.284 400.849 312.573C400.566 312.861 400.227 313.09 399.854 313.247C399.48 313.403 399.079 313.484 398.674 313.484H388.765C388.06 313.482 387.376 313.237 386.831 312.79C386.286 312.342 385.913 311.72 385.775 311.029L372.277 242.506C372.23 242.269 372.101 242.057 371.911 241.907C371.721 241.757 371.485 241.679 371.243 241.688C371.001 241.697 370.771 241.792 370.593 241.955C370.415 242.119 370.301 242.34 370.272 242.58L361.782 312.401C361.689 313.138 361.33 313.815 360.774 314.307C360.217 314.799 359.5 315.072 358.756 315.075C358.716 315.075 358.676 315.074 358.636 315.073Z" fill="#555555"/>
<path d="M370.068 108.065C379.253 108.065 386.699 100.635 386.699 91.4688C386.699 82.303 379.253 74.8726 370.068 74.8726C360.883 74.8726 353.437 82.303 353.437 91.4688C353.437 100.635 360.883 108.065 370.068 108.065Z" fill="#FFB8B8"/>
<path d="M291.883 152.467C291.698 151.876 291.697 151.243 291.882 150.652L293.605 145.143C293.793 144.547 294.16 144.023 294.656 143.641C295.152 143.26 295.753 143.04 296.379 143.011L318.198 142.049L353.597 123.94C354.826 123.549 356.12 123.403 357.406 123.51C358.691 123.618 359.943 123.978 361.089 124.569C362.236 125.16 363.254 125.97 364.086 126.954C364.918 127.938 365.547 129.076 365.938 130.303C366.329 131.53 366.474 132.822 366.364 134.105C366.254 135.388 365.892 136.636 365.298 137.78C364.705 138.923 363.891 139.938 362.904 140.767C361.917 141.595 360.775 142.222 359.545 142.611L337.852 155.167C331.268 158.979 323.521 160.275 316.051 158.814L294.205 154.542C293.785 154.46 293.387 154.29 293.037 154.044C292.687 153.798 292.392 153.482 292.173 153.115C292.051 152.911 291.954 152.693 291.883 152.467Z" fill="#AAAAAA"/>
<path opacity="0.8" d="M413.712 193.37C413.128 193.58 412.494 193.607 411.895 193.448L406.306 191.965C405.701 191.803 405.16 191.46 404.758 190.981C404.355 190.503 404.109 189.912 404.053 189.29L402.16 167.577L382.522 133.056C382.078 131.847 381.876 130.563 381.93 129.277C381.983 127.99 382.29 126.727 382.833 125.559C383.375 124.391 384.144 123.342 385.093 122.47C386.043 121.599 387.155 120.923 388.367 120.481C389.579 120.039 390.866 119.84 392.155 119.895C393.443 119.949 394.709 120.257 395.879 120.8C397.048 121.343 398.099 122.111 398.971 123.06C399.843 124.009 400.519 125.12 400.96 126.329L414.456 147.423C418.553 153.825 420.181 161.493 419.036 169.003L415.691 190.967C415.626 191.389 415.473 191.793 415.242 192.152C415.011 192.512 414.706 192.819 414.348 193.053C414.149 193.183 413.936 193.29 413.712 193.37V193.37Z" fill="#888888"/>
<path d="M351.877 120.942C354.734 117.816 358.257 115.369 362.188 113.784C366.118 112.198 370.355 111.513 374.586 111.779C374.864 111.796 375.141 111.816 375.417 111.837H375.417C379.427 112.154 383.324 113.321 386.845 115.261C390.367 117.2 393.433 119.868 395.839 123.086C398.285 126.348 400.004 130.094 400.883 134.072C401.762 138.051 401.779 142.171 400.934 146.158C397.71 161.391 398.526 177.2 403.302 192.022L407.763 205.847C407.906 206.29 407.946 206.76 407.878 207.22C407.81 207.681 407.638 208.119 407.373 208.503C407.109 208.886 406.76 209.204 406.353 209.431C405.946 209.659 405.492 209.79 405.026 209.815L382.218 211.038L376.381 200.977V211.351L348.659 212.839C348.603 212.842 348.548 212.843 348.494 212.843C348.073 212.843 347.657 212.756 347.272 212.588C346.887 212.419 346.54 212.173 346.255 211.864C345.97 211.556 345.752 211.192 345.615 210.795C345.477 210.398 345.424 209.977 345.458 209.559L348.591 170.785L344.661 144.45C344.025 140.243 344.343 135.946 345.592 131.878C346.841 127.809 348.989 124.072 351.877 120.942V120.942Z" fill="#AAAAAA"/>
<path d="M381.626 107.312C380.086 108.196 374 108.783 373.567 107.063L373.557 107.026C373.255 105.766 373.506 104.451 373.593 103.159C373.679 101.866 373.553 100.447 372.671 99.4966C371.027 97.7254 368.102 98.6643 365.724 98.2165C364.332 97.9063 363.101 97.1004 362.26 95.9496C361.42 94.7988 361.029 93.3819 361.161 91.9642C361.194 91.6956 361.248 91.4267 361.307 91.1579C361.456 90.4771 361.444 89.771 361.274 89.0953C361.103 88.4196 360.777 87.7926 360.323 87.2635C359.868 86.7344 359.297 86.3176 358.654 86.0459C358.011 85.7741 357.314 85.6548 356.617 85.6973C354.214 85.8344 351.621 86.5608 349.633 84.785C348.096 83.4118 347.721 79.8372 348.396 77.8918C349.531 74.6225 356.802 72.911 359.977 71.9701C363.903 70.838 368.032 70.5933 372.065 71.2537C376.098 71.914 379.932 73.4628 383.29 75.7876C385.295 77.1979 387.168 78.9701 388.022 81.2647C388.877 83.5594 388.465 86.4544 386.538 87.9692C388.031 89.5475 389.083 91.4898 389.588 93.6015C390.092 95.7132 390.032 97.9202 389.413 100.001C388.461 103.062 383.918 105.996 381.626 107.312Z" fill="#2F2E41"/>
<path d="M155.268 108.37H44.7949C43.3711 108.368 42.0062 107.477 41 105.893C39.9938 104.309 39.4286 102.162 39.4286 99.9237C39.4286 97.6853 39.9938 95.5383 41 93.9546C42.0062 92.3709 43.3711 91.4799 44.7949 91.4773H155.268C156.691 91.4799 158.056 92.3709 159.062 93.9546C160.069 95.5383 160.634 97.6853 160.634 99.9237C160.634 102.162 160.069 104.309 159.062 105.893C158.056 107.477 156.691 108.368 155.268 108.37Z" fill="#0369A1"/>
<path d="M156.466 194.606H45.9936C44.5698 194.603 43.2049 193.712 42.1988 192.128C41.1926 190.545 40.6274 188.398 40.6274 186.159C40.6274 183.921 41.1926 181.774 42.1988 180.19C43.2049 178.606 44.5698 177.715 45.9936 177.713H156.466C157.89 177.715 159.255 178.606 160.261 180.19C161.267 181.774 161.833 183.921 161.833 186.159C161.833 188.398 161.267 190.545 160.261 192.128C159.255 193.712 157.89 194.603 156.466 194.606Z" fill="#0369A1"/>
<path d="M217.839 112.571H35.0161C34.8365 112.571 34.6643 112.5 34.5373 112.373C34.4103 112.246 34.339 112.074 34.339 111.895C34.339 111.716 34.4103 111.544 34.5373 111.417C34.6643 111.291 34.8365 111.219 35.0161 111.219H217.839C218.019 111.219 218.191 111.291 218.318 111.417C218.445 111.544 218.517 111.716 218.517 111.895C218.517 112.074 218.445 112.246 218.318 112.373C218.191 112.5 218.019 112.571 217.839 112.571Z" fill="black"/>
<path d="M156.467 151.36H45.9995C44.5747 151.36 43.2083 150.47 42.2009 148.886C41.1934 147.302 40.6274 145.154 40.6274 142.914C40.6274 140.673 41.1934 138.525 42.2009 136.941C43.2083 135.357 44.5747 134.467 45.9995 134.467H156.467C157.89 134.47 159.255 135.361 160.261 136.944C161.267 138.528 161.833 140.675 161.833 142.914C161.833 145.152 161.267 147.299 160.261 148.883C159.255 150.466 157.89 151.357 156.467 151.36Z" fill="#0369A1"/>
<path d="M217.839 155.85H35.0161C34.8365 155.85 34.6643 155.779 34.5373 155.652C34.4103 155.525 34.339 155.354 34.339 155.174C34.339 154.995 34.4103 154.823 34.5373 154.697C34.6643 154.57 34.8365 154.499 35.0161 154.499H217.839C218.019 154.499 218.191 154.57 218.318 154.697C218.445 154.823 218.517 154.995 218.517 155.174C218.517 155.354 218.445 155.525 218.318 155.652C218.191 155.779 218.019 155.85 217.839 155.85Z" fill="black"/>
<path d="M217.839 199.129H35.0161C34.8365 199.129 34.6643 199.058 34.5373 198.931C34.4103 198.805 34.339 198.633 34.339 198.453C34.339 198.274 34.4103 198.102 34.5373 197.976C34.6643 197.849 34.8365 197.778 35.0161 197.778H217.839C218.019 197.778 218.191 197.849 218.318 197.976C218.445 198.102 218.517 198.274 218.517 198.453C218.517 198.633 218.445 198.805 218.318 198.931C218.191 199.058 218.019 199.129 217.839 199.129Z" fill="black"/>
<path d="M40.6765 50.2186H39.8164C39.7765 49.5652 39.6765 49.0252 39.5165 48.5986C39.3698 48.1586 39.1565 47.8119 38.8765 47.5586C38.5965 47.2919 38.2565 47.1119 37.8565 47.0186C37.4565 46.9119 36.9898 46.8586 36.4565 46.8586C35.9364 46.8586 35.5164 46.8719 35.1964 46.8986C34.8898 46.9119 34.6498 46.9452 34.4764 46.9986C34.3164 47.0386 34.2098 47.0986 34.1565 47.1786C34.1031 47.2586 34.0764 47.3586 34.0764 47.4786V57.9586C34.0764 58.3852 34.1031 58.7519 34.1565 59.0586C34.2231 59.3652 34.3498 59.6186 34.5364 59.8186C34.7231 60.0052 34.9964 60.1519 35.3565 60.2586C35.7165 60.3519 36.1898 60.4052 36.7764 60.4186V61.2186H28.3964V60.4186C28.9964 60.4052 29.4764 60.3519 29.8364 60.2586C30.1964 60.1519 30.4698 60.0052 30.6564 59.8186C30.8565 59.6186 30.9831 59.3652 31.0364 59.0586C31.1031 58.7519 31.1365 58.3852 31.1365 57.9586V47.4786C31.1365 47.3586 31.1098 47.2586 31.0565 47.1786C31.0165 47.0986 30.9231 47.0386 30.7765 46.9986C30.6298 46.9452 30.4164 46.9119 30.1364 46.8986C29.8698 46.8719 29.5164 46.8586 29.0764 46.8586C28.5964 46.8586 28.1364 46.8852 27.6964 46.9386C27.2564 46.9786 26.8698 47.1119 26.5364 47.3386C26.2031 47.5519 25.9298 47.8852 25.7164 48.3386C25.5164 48.7786 25.4098 49.4052 25.3964 50.2186H24.6164L24.8164 45.8186H40.4765L40.6765 50.2186ZM47.1549 55.5186C46.0349 56.0252 45.1882 56.4986 44.6149 56.9386C44.0549 57.3652 43.7749 57.8119 43.7749 58.2786C43.7749 58.6652 43.8816 58.9719 44.0949 59.1986C44.3082 59.4252 44.5749 59.5386 44.8949 59.5386C45.2149 59.5386 45.5149 59.4852 45.7949 59.3786C46.0749 59.2586 46.3149 59.1052 46.5149 58.9186C46.7149 58.7319 46.8682 58.5119 46.9749 58.2586C47.0949 57.9919 47.1549 57.7119 47.1549 57.4186V55.5186ZM47.1549 54.4586V53.6186C47.1549 52.8452 47.0149 52.2852 46.7349 51.9386C46.4682 51.5786 46.0482 51.3986 45.4749 51.3986C45.0882 51.3986 44.7949 51.5052 44.5949 51.7186C44.3949 51.9186 44.2082 52.2586 44.0349 52.7386C43.9149 53.0719 43.7416 53.3319 43.5149 53.5186C43.3016 53.7052 43.0016 53.7986 42.6149 53.7986C42.2416 53.7986 41.9549 53.6852 41.7549 53.4586C41.5549 53.2319 41.4549 52.9119 41.4549 52.4986C41.4549 51.8586 41.8016 51.3519 42.4949 50.9786C43.2016 50.6052 44.2616 50.4186 45.6749 50.4186C47.1682 50.4186 48.2349 50.6919 48.8749 51.2386C49.5149 51.7719 49.8349 52.6719 49.8349 53.9386V58.3186C49.8349 59.4519 50.0616 60.0186 50.5149 60.0186C50.7682 60.0186 51.0016 59.9319 51.2149 59.7586L51.5149 60.3386C51.3282 60.6719 51.0349 60.9386 50.6349 61.1386C50.2482 61.3252 49.8082 61.4186 49.3149 61.4186C48.7016 61.4186 48.2349 61.2319 47.9149 60.8586C47.5949 60.4852 47.4349 59.9586 47.4349 59.2786H47.3349C46.9482 59.9719 46.4482 60.4986 45.8349 60.8586C45.2216 61.2186 44.5216 61.3986 43.7349 61.3986C42.8949 61.3986 42.2216 61.1652 41.7149 60.6986C41.2082 60.2186 40.9549 59.5986 40.9549 58.8386C40.9549 58.2519 41.2149 57.7052 41.7349 57.1986C42.2549 56.6786 43.1216 56.1719 44.3349 55.6786L47.1549 54.4586ZM53.4593 61.2186H52.8393V57.5786H53.6793C53.9059 58.5386 54.2326 59.2386 54.6593 59.6786C55.0859 60.1186 55.6393 60.3386 56.3193 60.3386C56.8126 60.3386 57.1926 60.2386 57.4593 60.0386C57.7393 59.8252 57.8793 59.5386 57.8793 59.1786C57.8793 58.8052 57.7126 58.4452 57.3793 58.0986C57.0459 57.7386 56.5059 57.3586 55.7593 56.9586C54.7459 56.4119 54.0193 55.8719 53.5793 55.3386C53.1393 54.7919 52.9193 54.1786 52.9193 53.4986C52.9193 53.0586 52.9993 52.6519 53.1593 52.2786C53.3326 51.8919 53.5593 51.5586 53.8393 51.2786C54.1326 50.9986 54.4793 50.7852 54.8793 50.6386C55.2793 50.4786 55.7126 50.3986 56.1793 50.3986C56.5926 50.3986 56.9993 50.4586 57.3993 50.5786C57.8126 50.6986 58.1726 50.8652 58.4793 51.0786L58.8393 50.5986H59.3593V53.6186H58.5793C58.2726 52.8586 57.9526 52.3119 57.6193 51.9786C57.2993 51.6452 56.9059 51.4786 56.4393 51.4786C56.0659 51.4786 55.7659 51.5786 55.5393 51.7786C55.3259 51.9786 55.2193 52.2452 55.2193 52.5786C55.2193 52.9519 55.3793 53.3052 55.6993 53.6386C56.0326 53.9719 56.5793 54.3386 57.3393 54.7386C57.8726 55.0319 58.3326 55.3186 58.7193 55.5986C59.1059 55.8786 59.4193 56.1652 59.6593 56.4586C59.8993 56.7386 60.0726 57.0386 60.1793 57.3586C60.2993 57.6652 60.3593 57.9986 60.3593 58.3586C60.3593 58.8252 60.2726 59.2452 60.0993 59.6186C59.9259 59.9919 59.6793 60.3119 59.3593 60.5786C59.0393 60.8452 58.6526 61.0519 58.1993 61.1986C57.7593 61.3452 57.2659 61.4186 56.7193 61.4186C56.1459 61.4186 55.6126 61.3452 55.1193 61.1986C54.6259 61.0386 54.2193 60.8119 53.8993 60.5186L53.4593 61.2186ZM68.2357 60.4186C68.6623 60.4186 68.9623 60.4052 69.1357 60.3786C69.309 60.3386 69.3957 60.2652 69.3957 60.1586C69.3957 60.0786 69.3023 59.8852 69.1157 59.5786C68.9423 59.2586 68.7157 58.8919 68.4357 58.4786L66.9157 56.1986L65.9157 57.1586V57.9386C65.9157 58.4586 65.9357 58.8786 65.9757 59.1986C66.0157 59.5186 66.0823 59.7719 66.1757 59.9586C66.2823 60.1319 66.4223 60.2519 66.5957 60.3186C66.7823 60.3852 67.0157 60.4186 67.2957 60.4186V61.2186H61.3957V60.4186C61.769 60.4052 62.069 60.3652 62.2957 60.2986C62.5223 60.2319 62.7023 60.1186 62.8357 59.9586C62.969 59.7852 63.0557 59.5519 63.0957 59.2586C63.149 58.9519 63.1757 58.5586 63.1757 58.0786V49.5986C63.1757 48.7852 63.1623 48.1452 63.1357 47.6786C63.109 47.2119 63.0357 46.8652 62.9157 46.6386C62.809 46.3986 62.6357 46.2519 62.3957 46.1986C62.169 46.1452 61.8557 46.1186 61.4557 46.1186V45.3786L65.9157 44.6186V55.7386L67.8357 53.9186C68.529 53.2652 69.0223 52.7786 69.3157 52.4586C69.609 52.1252 69.7557 51.8852 69.7557 51.7386C69.7557 51.6186 69.629 51.5386 69.3757 51.4986C69.1357 51.4452 68.6823 51.4186 68.0157 51.4186V50.6186H73.4757V51.4186C72.969 51.4186 72.5223 51.5052 72.1357 51.6786C71.749 51.8519 71.329 52.1519 70.8757 52.5786L68.9357 54.3986L72.3957 59.2986C72.7023 59.7252 73.0023 60.0186 73.2957 60.1786C73.589 60.3386 73.9757 60.4186 74.4557 60.4186V61.2186H68.2357V60.4186ZM76.0569 61.2186H75.4369V57.5786H76.2769C76.5036 58.5386 76.8303 59.2386 77.2569 59.6786C77.6836 60.1186 78.2369 60.3386 78.9169 60.3386C79.4103 60.3386 79.7903 60.2386 80.0569 60.0386C80.3369 59.8252 80.4769 59.5386 80.4769 59.1786C80.4769 58.8052 80.3103 58.4452 79.9769 58.0986C79.6436 57.7386 79.1036 57.3586 78.3569 56.9586C77.3436 56.4119 76.6169 55.8719 76.1769 55.3386C75.7369 54.7919 75.5169 54.1786 75.5169 53.4986C75.5169 53.0586 75.5969 52.6519 75.7569 52.2786C75.9303 51.8919 76.1569 51.5586 76.4369 51.2786C76.7303 50.9986 77.0769 50.7852 77.4769 50.6386C77.8769 50.4786 78.3103 50.3986 78.7769 50.3986C79.1903 50.3986 79.5969 50.4586 79.9969 50.5786C80.4103 50.6986 80.7703 50.8652 81.0769 51.0786L81.4369 50.5986H81.9569V53.6186H81.1769C80.8703 52.8586 80.5503 52.3119 80.2169 51.9786C79.8969 51.6452 79.5036 51.4786 79.0369 51.4786C78.6636 51.4786 78.3636 51.5786 78.1369 51.7786C77.9236 51.9786 77.8169 52.2452 77.8169 52.5786C77.8169 52.9519 77.9769 53.3052 78.2969 53.6386C78.6303 53.9719 79.1769 54.3386 79.9369 54.7386C80.4703 55.0319 80.9303 55.3186 81.3169 55.5986C81.7036 55.8786 82.0169 56.1652 82.2569 56.4586C82.4969 56.7386 82.6703 57.0386 82.7769 57.3586C82.8969 57.6652 82.9569 57.9986 82.9569 58.3586C82.9569 58.8252 82.8703 59.2452 82.6969 59.6186C82.5236 59.9919 82.2769 60.3119 81.9569 60.5786C81.6369 60.8452 81.2503 61.0519 80.7969 61.1986C80.3569 61.3452 79.8636 61.4186 79.3169 61.4186C78.7436 61.4186 78.2103 61.3452 77.7169 61.1986C77.2236 61.0386 76.8169 60.8119 76.4969 60.5186L76.0569 61.2186ZM84.9933 59.9386C84.9933 59.5119 85.1333 59.1519 85.4133 58.8586C85.7067 58.5519 86.0667 58.3986 86.4933 58.3986C86.9333 58.3986 87.3 58.5519 87.5933 58.8586C87.8867 59.1519 88.0333 59.5119 88.0333 59.9386C88.0333 60.3519 87.8867 60.7052 87.5933 60.9986C87.3 61.2786 86.9333 61.4186 86.4933 61.4186C86.0667 61.4186 85.7067 61.2786 85.4133 60.9986C85.1333 60.7052 84.9933 60.3519 84.9933 59.9386ZM84.9933 53.6186C84.9933 53.1919 85.1333 52.8319 85.4133 52.5386C85.7067 52.2319 86.0667 52.0786 86.4933 52.0786C86.9333 52.0786 87.3 52.2319 87.5933 52.5386C87.8867 52.8319 88.0333 53.1919 88.0333 53.6186C88.0333 54.0319 87.8867 54.3852 87.5933 54.6786C87.3 54.9586 86.9333 55.0986 86.4933 55.0986C86.0667 55.0986 85.7067 54.9586 85.4133 54.6786C85.1333 54.3852 84.9933 54.0319 84.9933 53.6186Z" fill="black"/>
<path d="M49.33 105V104.6C49.5567 104.593 49.7367 104.573 49.87 104.54C50.01 104.507 50.1167 104.45 50.19 104.37C50.27 104.29 50.3233 104.177 50.35 104.03C50.3767 103.883 50.39 103.693 50.39 103.46V98.84C50.39 98.6067 50.38 98.42 50.36 98.28C50.34 98.1333 50.2967 98.02 50.23 97.94C50.17 97.8533 50.0833 97.7967 49.97 97.77C49.8633 97.7367 49.72 97.7133 49.54 97.7V97.3H52.75C53.7567 97.3 54.53 97.4633 55.07 97.79C55.6167 98.11 55.89 98.57 55.89 99.17C55.89 99.9633 55.32 100.523 54.18 100.85V100.89C54.5467 100.89 54.8767 100.943 55.17 101.05C55.47 101.15 55.7233 101.293 55.93 101.48C56.1367 101.667 56.2967 101.887 56.41 102.14C56.5233 102.393 56.58 102.67 56.58 102.97C56.58 103.31 56.4967 103.607 56.33 103.86C56.17 104.113 55.9367 104.327 55.63 104.5C55.0367 104.833 54.22 105 53.18 105H49.33ZM53.25 104.39C54.3233 104.39 54.86 103.907 54.86 102.94C54.86 102.347 54.6667 101.913 54.28 101.64C54.08 101.5 53.82 101.4 53.5 101.34C53.1867 101.28 52.8 101.25 52.34 101.25H51.86V103.25C51.86 103.663 51.9667 103.957 52.18 104.13C52.3933 104.303 52.75 104.39 53.25 104.39ZM52.45 100.65C52.75 100.65 53.01 100.623 53.23 100.57C53.45 100.51 53.6367 100.427 53.79 100.32C54.11 100.1 54.27 99.7567 54.27 99.29C54.27 98.8033 54.15 98.4533 53.91 98.24C53.67 98.02 53.2833 97.91 52.75 97.91H52.04C51.92 97.91 51.86 97.9667 51.86 98.08V100.65H52.45ZM61.5602 101.34C61.5602 101.073 61.5535 100.863 61.5402 100.71C61.5268 100.55 61.4902 100.43 61.4302 100.35C61.3702 100.263 61.2802 100.207 61.1602 100.18C61.0468 100.147 60.8902 100.12 60.6902 100.1V99.7H62.9502V102.73C62.9502 103.137 62.9535 103.457 62.9602 103.69C62.9735 103.917 62.9935 104.087 63.0202 104.2C63.0402 104.287 63.0635 104.357 63.0902 104.41C63.1168 104.457 63.1602 104.497 63.2202 104.53C63.2802 104.557 63.3602 104.577 63.4602 104.59C63.5668 104.597 63.7035 104.6 63.8702 104.6V104.99L61.8802 105.11L61.7702 104.22H61.7302C61.5568 104.5 61.3135 104.717 61.0002 104.87C60.6868 105.023 60.3368 105.1 59.9502 105.1C59.2368 105.1 58.6935 104.847 58.3202 104.34C58.0335 103.953 57.8902 103.403 57.8902 102.69V101.34C57.8902 101.067 57.8835 100.853 57.8702 100.7C57.8568 100.54 57.8202 100.42 57.7602 100.34C57.7068 100.26 57.6235 100.207 57.5102 100.18C57.3968 100.147 57.2402 100.12 57.0402 100.1V99.7H59.2802V102.53C59.2802 103.203 59.3635 103.693 59.5302 104C59.6968 104.3 59.9635 104.45 60.3302 104.45C60.7235 104.45 61.0268 104.27 61.2402 103.91C61.4535 103.563 61.5602 103.053 61.5602 102.38V101.34ZM66.57 103.36C66.57 103.627 66.58 103.84 66.6 104C66.62 104.16 66.66 104.283 66.72 104.37C66.78 104.457 66.8667 104.517 66.98 104.55C67.0933 104.577 67.2467 104.593 67.44 104.6V105H64.29V104.6C64.4767 104.593 64.6267 104.573 64.74 104.54C64.86 104.5 64.95 104.44 65.01 104.36C65.0767 104.273 65.12 104.157 65.14 104.01C65.1667 103.857 65.18 103.663 65.18 103.43V102.2C65.18 101.813 65.1733 101.497 65.16 101.25C65.1467 100.997 65.13 100.823 65.11 100.73C65.0767 100.563 65 100.453 64.88 100.4C64.7667 100.347 64.5567 100.32 64.25 100.32V99.98L66.57 99.6V103.36ZM65.1 97.48C65.1 97.26 65.1733 97.0767 65.32 96.93C65.4733 96.7767 65.6567 96.7 65.87 96.7C66.09 96.7 66.2733 96.7767 66.42 96.93C66.5733 97.0767 66.65 97.26 66.65 97.48C66.65 97.6933 66.5733 97.8767 66.42 98.03C66.2733 98.1767 66.09 98.25 65.87 98.25C65.6567 98.25 65.4733 98.1767 65.32 98.03C65.1733 97.8767 65.1 97.6933 65.1 97.48ZM70.0833 103.36C70.0833 103.627 70.0933 103.84 70.1133 104C70.1333 104.16 70.1733 104.283 70.2333 104.37C70.2933 104.457 70.3799 104.517 70.4933 104.55C70.6066 104.577 70.7599 104.593 70.9533 104.6V105H67.8033V104.6C67.9899 104.593 68.1399 104.573 68.2533 104.54C68.3733 104.5 68.4633 104.44 68.5233 104.36C68.5899 104.273 68.6333 104.157 68.6533 104.01C68.6799 103.857 68.6933 103.663 68.6933 103.43V99.3C68.6933 98.9133 68.6866 98.5967 68.6733 98.35C68.6599 98.0967 68.6433 97.9233 68.6233 97.83C68.5899 97.6633 68.5133 97.5533 68.3933 97.5C68.2799 97.4467 68.0699 97.42 67.7633 97.42V97.08L70.0833 96.7V103.36ZM75.978 104.36H75.938C75.478 104.853 74.8813 105.1 74.148 105.1C73.768 105.1 73.418 105.033 73.098 104.9C72.7846 104.767 72.5113 104.58 72.278 104.34C72.0513 104.1 71.8746 103.817 71.748 103.49C71.6213 103.157 71.558 102.79 71.558 102.39C71.558 101.99 71.6213 101.62 71.748 101.28C71.8813 100.94 72.058 100.647 72.278 100.4C72.5046 100.147 72.7713 99.95 73.078 99.81C73.3913 99.67 73.728 99.6 74.088 99.6C74.4213 99.6 74.7146 99.65 74.968 99.75C75.228 99.85 75.4546 100.02 75.648 100.26H75.688V99.41C75.688 99.0167 75.6813 98.68 75.668 98.4C75.6613 98.1133 75.648 97.9267 75.628 97.84C75.5946 97.7 75.4913 97.6 75.318 97.54C75.1513 97.4733 74.8913 97.44 74.538 97.44V97.1L77.068 96.7V102.42C77.068 102.92 77.0713 103.307 77.078 103.58C77.0913 103.847 77.1113 104.05 77.138 104.19C77.1513 104.277 77.1713 104.347 77.198 104.4C77.2246 104.453 77.2646 104.497 77.318 104.53C77.3713 104.557 77.4413 104.577 77.528 104.59C77.6213 104.597 77.738 104.6 77.878 104.6V104.99L75.978 105.1V104.36ZM75.668 102.13C75.668 101.877 75.6413 101.643 75.588 101.43C75.5346 101.21 75.4546 101.017 75.348 100.85C75.228 100.657 75.0746 100.51 74.888 100.41C74.7013 100.31 74.5013 100.26 74.288 100.26C73.8946 100.26 73.5946 100.44 73.388 100.8C73.1813 101.16 73.078 101.683 73.078 102.37C73.078 103.063 73.1813 103.597 73.388 103.97C73.5946 104.343 73.8913 104.53 74.278 104.53C74.498 104.53 74.708 104.473 74.908 104.36C75.108 104.247 75.2713 104.093 75.398 103.9C75.4913 103.753 75.558 103.573 75.598 103.36C75.6446 103.14 75.668 102.86 75.668 102.52V102.13ZM83.3476 103.35C83.3476 103.63 83.3542 103.85 83.3676 104.01C83.3809 104.17 83.4176 104.293 83.4776 104.38C83.5376 104.46 83.6242 104.513 83.7376 104.54C83.8509 104.567 84.0076 104.587 84.2076 104.6V105H81.0476V104.6C81.2476 104.587 81.4076 104.567 81.5276 104.54C81.6476 104.513 81.7376 104.46 81.7976 104.38C81.8576 104.3 81.8976 104.187 81.9176 104.04C81.9376 103.887 81.9476 103.683 81.9476 103.43V102.19C81.9476 101.81 81.9409 101.493 81.9276 101.24C81.9209 100.987 81.9042 100.813 81.8776 100.72C81.8576 100.633 81.8309 100.567 81.7976 100.52C81.7709 100.467 81.7242 100.427 81.6576 100.4C81.5976 100.367 81.5176 100.347 81.4176 100.34C81.3176 100.327 81.1876 100.32 81.0276 100.32V99.98L82.9576 99.6L83.0776 100.47H83.1376C83.4176 100.157 83.6976 99.9333 83.9776 99.8C84.2642 99.6667 84.5942 99.6 84.9676 99.6C85.4076 99.6 85.7709 99.6767 86.0576 99.83C86.3442 99.9833 86.5609 100.203 86.7076 100.49H86.7476C86.9876 100.21 87.2742 99.9933 87.6076 99.84C87.9409 99.68 88.2976 99.6 88.6776 99.6C89.0776 99.6 89.4242 99.65 89.7176 99.75C90.0176 99.85 90.2509 99.9933 90.4176 100.18C90.5509 100.333 90.6476 100.533 90.7076 100.78C90.7742 101.027 90.8076 101.37 90.8076 101.81V103.35C90.8076 103.623 90.8142 103.84 90.8276 104C90.8476 104.16 90.8876 104.283 90.9476 104.37C91.0076 104.457 91.0942 104.513 91.2076 104.54C91.3209 104.567 91.4776 104.587 91.6776 104.6V105H88.5176V104.6C88.7176 104.593 88.8742 104.577 88.9876 104.55C89.1076 104.517 89.1976 104.46 89.2576 104.38C89.3242 104.293 89.3642 104.177 89.3776 104.03C89.3976 103.883 89.4076 103.683 89.4076 103.43V102.12C89.4076 101.773 89.3876 101.48 89.3476 101.24C89.3076 101 89.2442 100.807 89.1576 100.66C89.0709 100.513 88.9542 100.41 88.8076 100.35C88.6676 100.283 88.4942 100.25 88.2876 100.25C88.0542 100.25 87.8609 100.307 87.7076 100.42C87.5609 100.533 87.4376 100.68 87.3376 100.86C87.1642 101.173 87.0776 101.563 87.0776 102.03V103.35C87.0776 103.623 87.0842 103.84 87.0976 104C87.1109 104.16 87.1476 104.283 87.2076 104.37C87.2676 104.457 87.3542 104.513 87.4676 104.54C87.5876 104.567 87.7509 104.587 87.9576 104.6V105H84.7876V104.6C84.9876 104.587 85.1442 104.567 85.2576 104.54C85.3776 104.513 85.4676 104.46 85.5276 104.38C85.5942 104.3 85.6342 104.187 85.6476 104.04C85.6676 103.887 85.6776 103.683 85.6776 103.43V102.12C85.6776 101.773 85.6576 101.48 85.6176 101.24C85.5776 101 85.5109 100.807 85.4176 100.66C85.3309 100.513 85.2142 100.41 85.0676 100.35C84.9209 100.283 84.7376 100.25 84.5176 100.25C84.2976 100.25 84.1142 100.303 83.9676 100.41C83.8276 100.517 83.7109 100.66 83.6176 100.84C83.5309 101 83.4642 101.183 83.4176 101.39C83.3709 101.597 83.3476 101.81 83.3476 102.03V103.35ZM94.4481 106.57C94.3748 106.717 94.2815 106.853 94.1681 106.98C94.0615 107.107 93.9381 107.213 93.7981 107.3C93.6648 107.393 93.5248 107.467 93.3781 107.52C93.2315 107.573 93.0848 107.6 92.9381 107.6C92.7181 107.6 92.5415 107.547 92.4081 107.44C92.2748 107.333 92.2081 107.19 92.2081 107.01C92.2081 106.843 92.2648 106.713 92.3781 106.62C92.4981 106.527 92.6881 106.47 92.9481 106.45C93.5415 106.403 93.9248 106.217 94.0981 105.89L94.3681 105.37L92.5981 100.99C92.5181 100.797 92.4481 100.643 92.3881 100.53C92.3348 100.417 92.2748 100.33 92.2081 100.27C92.1415 100.203 92.0648 100.16 91.9781 100.14C91.8915 100.12 91.7848 100.107 91.6581 100.1V99.7H94.6881V100.1C94.4281 100.1 94.2448 100.127 94.1381 100.18C94.0381 100.227 93.9881 100.317 93.9881 100.45C93.9881 100.503 93.9948 100.567 94.0081 100.64C94.0281 100.707 94.0515 100.777 94.0781 100.85L95.0981 103.77H95.1381L95.9981 101.82C96.0848 101.613 96.1581 101.443 96.2181 101.31C96.2781 101.17 96.3215 101.053 96.3481 100.96C96.3815 100.86 96.4048 100.78 96.4181 100.72C96.4315 100.66 96.4381 100.6 96.4381 100.54C96.4381 100.367 96.3881 100.25 96.2881 100.19C96.1948 100.13 96.0015 100.1 95.7081 100.1V99.7H98.1181V100.1C97.9848 100.1 97.8715 100.12 97.7781 100.16C97.6848 100.193 97.5881 100.267 97.4881 100.38C97.3948 100.493 97.2881 100.663 97.1681 100.89C97.0548 101.11 96.9115 101.403 96.7381 101.77L94.4481 106.57ZM103.234 105.1H102.484L101.114 100.99C101.007 100.67 100.884 100.447 100.744 100.32C100.604 100.187 100.417 100.113 100.184 100.1V99.7H103.044V100.1C102.804 100.107 102.637 100.143 102.544 100.21C102.45 100.27 102.404 100.377 102.404 100.53C102.404 100.603 102.414 100.683 102.434 100.77C102.454 100.857 102.48 100.957 102.514 101.07L103.144 103.41H103.184L104.584 99.7H105.404L106.454 103.41H106.504L107.304 101.34C107.37 101.173 107.417 101.03 107.444 100.91C107.47 100.783 107.484 100.673 107.484 100.58C107.484 100.407 107.427 100.283 107.314 100.21C107.2 100.137 107.047 100.1 106.854 100.1V99.7H109.004V100.1C108.884 100.1 108.784 100.113 108.704 100.14C108.624 100.167 108.544 100.23 108.464 100.33C108.384 100.43 108.297 100.583 108.204 100.79C108.11 100.997 107.994 101.28 107.854 101.64L106.474 105.1H105.684L104.624 101.55H104.584L103.234 105.1ZM114.224 104.07C113.618 104.757 112.861 105.1 111.954 105.1C111.541 105.1 111.164 105.037 110.824 104.91C110.491 104.777 110.204 104.593 109.964 104.36C109.724 104.12 109.538 103.837 109.404 103.51C109.271 103.183 109.204 102.82 109.204 102.42C109.204 102.007 109.274 101.63 109.414 101.29C109.554 100.943 109.751 100.647 110.004 100.4C110.264 100.147 110.568 99.95 110.914 99.81C111.268 99.67 111.654 99.6 112.074 99.6C112.781 99.6 113.331 99.79 113.724 100.17C114.118 100.55 114.314 101.083 114.314 101.77C114.314 101.877 114.298 101.943 114.264 101.97C114.231 101.99 114.138 102 113.984 102H110.764C110.738 102.06 110.724 102.17 110.724 102.33C110.724 102.983 110.864 103.5 111.144 103.88C111.431 104.26 111.818 104.45 112.304 104.45C112.584 104.45 112.861 104.387 113.134 104.26C113.414 104.133 113.684 103.953 113.944 103.72L114.224 104.07ZM112.284 101.44C112.551 101.44 112.721 101.427 112.794 101.4C112.874 101.367 112.914 101.293 112.914 101.18C112.914 100.887 112.831 100.647 112.664 100.46C112.498 100.273 112.288 100.18 112.034 100.18C111.748 100.18 111.491 100.3 111.264 100.54C111.044 100.773 110.901 101.073 110.834 101.44H112.284ZM116.924 102.81C116.924 103.057 116.957 103.287 117.024 103.5C117.097 103.707 117.194 103.887 117.314 104.04C117.434 104.193 117.577 104.313 117.744 104.4C117.91 104.487 118.094 104.53 118.294 104.53C118.694 104.53 118.997 104.347 119.204 103.98C119.41 103.613 119.514 103.073 119.514 102.36C119.514 101.667 119.41 101.14 119.204 100.78C119.004 100.413 118.7 100.23 118.294 100.23C118.054 100.23 117.83 100.297 117.624 100.43C117.424 100.557 117.267 100.737 117.154 100.97C117 101.29 116.924 101.693 116.924 102.18V102.81ZM116.904 100.39H116.944C117.117 100.137 117.34 99.9433 117.614 99.81C117.887 99.67 118.197 99.6 118.544 99.6C118.897 99.6 119.224 99.6733 119.524 99.82C119.83 99.96 120.094 100.153 120.314 100.4C120.54 100.647 120.717 100.937 120.844 101.27C120.97 101.603 121.034 101.96 121.034 102.34C121.034 102.74 120.964 103.11 120.824 103.45C120.69 103.783 120.504 104.073 120.264 104.32C120.03 104.567 119.754 104.76 119.434 104.9C119.12 105.04 118.787 105.11 118.434 105.11C118.067 105.11 117.72 105.04 117.394 104.9C117.074 104.753 116.817 104.563 116.624 104.33L115.864 105H115.524V99.05C115.524 98.4233 115.48 97.9933 115.394 97.76C115.374 97.7133 115.35 97.6733 115.324 97.64C115.297 97.6067 115.257 97.58 115.204 97.56C115.157 97.5333 115.09 97.5133 115.004 97.5C114.917 97.48 114.804 97.46 114.664 97.44V97.1L116.904 96.7V100.39ZM122.262 105H121.952V103.18H122.372C122.485 103.66 122.649 104.01 122.862 104.23C123.075 104.45 123.352 104.56 123.692 104.56C123.939 104.56 124.129 104.51 124.262 104.41C124.402 104.303 124.472 104.16 124.472 103.98C124.472 103.793 124.389 103.613 124.222 103.44C124.055 103.26 123.785 103.07 123.412 102.87C122.905 102.597 122.542 102.327 122.322 102.06C122.102 101.787 121.992 101.48 121.992 101.14C121.992 100.92 122.032 100.717 122.112 100.53C122.199 100.337 122.312 100.17 122.452 100.03C122.599 99.89 122.772 99.7833 122.972 99.71C123.172 99.63 123.389 99.59 123.622 99.59C123.829 99.59 124.032 99.62 124.232 99.68C124.439 99.74 124.619 99.8233 124.772 99.93L124.952 99.69H125.212V101.2H124.822C124.669 100.82 124.509 100.547 124.342 100.38C124.182 100.213 123.985 100.13 123.752 100.13C123.565 100.13 123.415 100.18 123.302 100.28C123.195 100.38 123.142 100.513 123.142 100.68C123.142 100.867 123.222 101.043 123.382 101.21C123.549 101.377 123.822 101.56 124.202 101.76C124.469 101.907 124.699 102.05 124.892 102.19C125.085 102.33 125.242 102.473 125.362 102.62C125.482 102.76 125.569 102.91 125.622 103.07C125.682 103.223 125.712 103.39 125.712 103.57C125.712 103.803 125.669 104.013 125.582 104.2C125.495 104.387 125.372 104.547 125.212 104.68C125.052 104.813 124.859 104.917 124.632 104.99C124.412 105.063 124.165 105.1 123.892 105.1C123.605 105.1 123.339 105.063 123.092 104.99C122.845 104.91 122.642 104.797 122.482 104.65L122.262 105ZM128.64 103.36C128.64 103.627 128.65 103.84 128.67 104C128.69 104.16 128.73 104.283 128.79 104.37C128.85 104.457 128.937 104.517 129.05 104.55C129.164 104.577 129.317 104.593 129.51 104.6V105H126.36V104.6C126.547 104.593 126.697 104.573 126.81 104.54C126.93 104.5 127.02 104.44 127.08 104.36C127.147 104.273 127.19 104.157 127.21 104.01C127.237 103.857 127.25 103.663 127.25 103.43V102.2C127.25 101.813 127.244 101.497 127.23 101.25C127.217 100.997 127.2 100.823 127.18 100.73C127.147 100.563 127.07 100.453 126.95 100.4C126.837 100.347 126.627 100.32 126.32 100.32V99.98L128.64 99.6V103.36ZM127.17 97.48C127.17 97.26 127.244 97.0767 127.39 96.93C127.544 96.7767 127.727 96.7 127.94 96.7C128.16 96.7 128.344 96.7767 128.49 96.93C128.644 97.0767 128.72 97.26 128.72 97.48C128.72 97.6933 128.644 97.8767 128.49 98.03C128.344 98.1767 128.16 98.25 127.94 98.25C127.727 98.25 127.544 98.1767 127.39 98.03C127.244 97.8767 127.17 97.6933 127.17 97.48ZM129.934 100.25V99.8C130.334 99.6867 130.667 99.5167 130.934 99.29C131.207 99.0567 131.41 98.79 131.544 98.49H132.054V99.7H133.204V100.25H132.054V103.32C132.054 103.733 132.097 104.027 132.184 104.2C132.277 104.373 132.43 104.46 132.644 104.46C132.904 104.46 133.1 104.34 133.234 104.1L133.444 104.39C133.257 104.863 132.817 105.1 132.124 105.1C131.664 105.1 131.304 104.993 131.044 104.78C130.79 104.567 130.664 104.267 130.664 103.88V100.25H129.934ZM138.902 104.07C138.295 104.757 137.539 105.1 136.632 105.1C136.219 105.1 135.842 105.037 135.502 104.91C135.169 104.777 134.882 104.593 134.642 104.36C134.402 104.12 134.215 103.837 134.082 103.51C133.949 103.183 133.882 102.82 133.882 102.42C133.882 102.007 133.952 101.63 134.092 101.29C134.232 100.943 134.429 100.647 134.682 100.4C134.942 100.147 135.245 99.95 135.592 99.81C135.945 99.67 136.332 99.6 136.752 99.6C137.459 99.6 138.009 99.79 138.402 100.17C138.795 100.55 138.992 101.083 138.992 101.77C138.992 101.877 138.975 101.943 138.942 101.97C138.909 101.99 138.815 102 138.662 102H135.442C135.415 102.06 135.402 102.17 135.402 102.33C135.402 102.983 135.542 103.5 135.822 103.88C136.109 104.26 136.495 104.45 136.982 104.45C137.262 104.45 137.539 104.387 137.812 104.26C138.092 104.133 138.362 103.953 138.622 103.72L138.902 104.07ZM136.962 101.44C137.229 101.44 137.399 101.427 137.472 101.4C137.552 101.367 137.592 101.293 137.592 101.18C137.592 100.887 137.509 100.647 137.342 100.46C137.175 100.273 136.965 100.18 136.712 100.18C136.425 100.18 136.169 100.3 135.942 100.54C135.722 100.773 135.579 101.073 135.512 101.44H136.962Z" fill="white"/>
<path d="M56.24 146H49.35V145.6C49.57 145.593 49.75 145.573 49.89 145.54C50.03 145.507 50.1367 145.45 50.21 145.37C50.2833 145.29 50.3333 145.177 50.36 145.03C50.3867 144.883 50.4 144.693 50.4 144.46V139.84C50.4 139.607 50.3867 139.42 50.36 139.28C50.34 139.133 50.2967 139.02 50.23 138.94C50.1633 138.853 50.0667 138.797 49.94 138.77C49.82 138.737 49.66 138.713 49.46 138.7V138.3H52.91V138.7C52.6833 138.707 52.5 138.727 52.36 138.76C52.2267 138.793 52.1233 138.853 52.05 138.94C51.9767 139.027 51.9267 139.147 51.9 139.3C51.88 139.453 51.87 139.657 51.87 139.91V144.1C51.87 144.38 51.8967 144.61 51.95 144.79C52.01 144.963 52.11 145.1 52.25 145.2C52.39 145.293 52.5767 145.36 52.81 145.4C53.0433 145.433 53.3333 145.45 53.68 145.45C54.0667 145.45 54.39 145.427 54.65 145.38C54.91 145.333 55.1267 145.247 55.3 145.12C55.48 144.987 55.6233 144.81 55.73 144.59C55.8367 144.37 55.9267 144.083 56 143.73H56.4L56.24 146ZM61.9488 145.07C61.3422 145.757 60.5855 146.1 59.6788 146.1C59.2655 146.1 58.8888 146.037 58.5488 145.91C58.2155 145.777 57.9288 145.593 57.6888 145.36C57.4488 145.12 57.2622 144.837 57.1288 144.51C56.9955 144.183 56.9288 143.82 56.9288 143.42C56.9288 143.007 56.9988 142.63 57.1388 142.29C57.2788 141.943 57.4755 141.647 57.7288 141.4C57.9888 141.147 58.2922 140.95 58.6388 140.81C58.9922 140.67 59.3788 140.6 59.7988 140.6C60.5055 140.6 61.0555 140.79 61.4488 141.17C61.8422 141.55 62.0388 142.083 62.0388 142.77C62.0388 142.877 62.0222 142.943 61.9888 142.97C61.9555 142.99 61.8622 143 61.7088 143H58.4888C58.4622 143.06 58.4488 143.17 58.4488 143.33C58.4488 143.983 58.5888 144.5 58.8688 144.88C59.1555 145.26 59.5422 145.45 60.0288 145.45C60.3088 145.45 60.5855 145.387 60.8588 145.26C61.1388 145.133 61.4088 144.953 61.6688 144.72L61.9488 145.07ZM60.0088 142.44C60.2755 142.44 60.4455 142.427 60.5188 142.4C60.5988 142.367 60.6388 142.293 60.6388 142.18C60.6388 141.887 60.5555 141.647 60.3888 141.46C60.2222 141.273 60.0122 141.18 59.7588 141.18C59.4722 141.18 59.2155 141.3 58.9888 141.54C58.7688 141.773 58.6255 142.073 58.5588 142.44H60.0088ZM65.8384 143.15C65.2784 143.403 64.8551 143.64 64.5684 143.86C64.2884 144.073 64.1484 144.297 64.1484 144.53C64.1484 144.723 64.2018 144.877 64.3084 144.99C64.4151 145.103 64.5484 145.16 64.7084 145.16C64.8684 145.16 65.0184 145.133 65.1584 145.08C65.2984 145.02 65.4184 144.943 65.5184 144.85C65.6184 144.757 65.6951 144.647 65.7484 144.52C65.8084 144.387 65.8384 144.247 65.8384 144.1V143.15ZM65.8384 142.62V142.2C65.8384 141.813 65.7684 141.533 65.6284 141.36C65.4951 141.18 65.2851 141.09 64.9984 141.09C64.8051 141.09 64.6584 141.143 64.5584 141.25C64.4584 141.35 64.3651 141.52 64.2784 141.76C64.2184 141.927 64.1318 142.057 64.0184 142.15C63.9118 142.243 63.7618 142.29 63.5684 142.29C63.3818 142.29 63.2384 142.233 63.1384 142.12C63.0384 142.007 62.9884 141.847 62.9884 141.64C62.9884 141.32 63.1618 141.067 63.5084 140.88C63.8618 140.693 64.3918 140.6 65.0984 140.6C65.8451 140.6 66.3784 140.737 66.6984 141.01C67.0184 141.277 67.1784 141.727 67.1784 142.36V144.55C67.1784 145.117 67.2918 145.4 67.5184 145.4C67.6451 145.4 67.7618 145.357 67.8684 145.27L68.0184 145.56C67.9251 145.727 67.7784 145.86 67.5784 145.96C67.3851 146.053 67.1651 146.1 66.9184 146.1C66.6118 146.1 66.3784 146.007 66.2184 145.82C66.0584 145.633 65.9784 145.37 65.9784 145.03H65.9284C65.7351 145.377 65.4851 145.64 65.1784 145.82C64.8718 146 64.5218 146.09 64.1284 146.09C63.7084 146.09 63.3718 145.973 63.1184 145.74C62.8651 145.5 62.7384 145.19 62.7384 144.81C62.7384 144.517 62.8684 144.243 63.1284 143.99C63.3884 143.73 63.8218 143.477 64.4284 143.23L65.8384 142.62ZM70.7206 144.45C70.7206 144.71 70.7306 144.917 70.7506 145.07C70.7773 145.217 70.8273 145.33 70.9006 145.41C70.974 145.49 71.0806 145.543 71.2206 145.57C71.3606 145.59 71.5473 145.6 71.7806 145.6V146H68.4406V145.6C68.6406 145.587 68.8006 145.567 68.9206 145.54C69.0406 145.513 69.1306 145.46 69.1906 145.38C69.2506 145.3 69.2873 145.187 69.3006 145.04C69.3206 144.887 69.3306 144.683 69.3306 144.43V143.21C69.3306 142.797 69.3206 142.467 69.3006 142.22C69.2806 141.973 69.2373 141.783 69.1706 141.65C69.104 141.517 69.0073 141.43 68.8806 141.39C68.7606 141.343 68.6006 141.32 68.4006 141.32V140.97L70.4006 140.6L70.5606 141.75H70.6006C70.7806 141.397 71.0173 141.117 71.3106 140.91C71.604 140.703 71.914 140.6 72.2406 140.6C72.494 140.6 72.7006 140.663 72.8606 140.79C73.0206 140.917 73.1006 141.077 73.1006 141.27C73.1006 141.483 73.0373 141.663 72.9106 141.81C72.7906 141.957 72.624 142.03 72.4106 142.03C72.3106 142.03 72.2206 142.01 72.1406 141.97C72.0606 141.93 71.9873 141.887 71.9206 141.84C71.8606 141.787 71.7973 141.74 71.7306 141.7C71.6706 141.653 71.6073 141.63 71.5406 141.63C71.414 141.63 71.294 141.713 71.1806 141.88C71.0673 142.047 70.974 142.27 70.9006 142.55C70.8473 142.75 70.804 142.977 70.7706 143.23C70.7373 143.477 70.7206 143.723 70.7206 143.97V144.45ZM75.6911 144.37C75.6911 144.643 75.6978 144.86 75.7111 145.02C75.7311 145.173 75.7678 145.293 75.8211 145.38C75.8811 145.46 75.9678 145.513 76.0811 145.54C76.2011 145.567 76.3611 145.587 76.5611 145.6V146H73.4111V145.6C73.6044 145.587 73.7578 145.567 73.8711 145.54C73.9911 145.513 74.0811 145.46 74.1411 145.38C74.2078 145.3 74.2511 145.187 74.2711 145.04C74.2911 144.893 74.3011 144.693 74.3011 144.44V143.19C74.3011 142.797 74.2944 142.48 74.2811 142.24C74.2678 141.993 74.2511 141.827 74.2311 141.74C74.2111 141.653 74.1844 141.583 74.1511 141.53C74.1178 141.47 74.0678 141.427 74.0011 141.4C73.9344 141.367 73.8511 141.347 73.7511 141.34C73.6511 141.327 73.5244 141.32 73.3711 141.32V140.98L75.3011 140.6L75.4311 141.48H75.4711C75.6911 141.2 75.9511 140.983 76.2511 140.83C76.5511 140.677 76.8811 140.6 77.2411 140.6C77.6678 140.6 78.0111 140.66 78.2711 140.78C78.5378 140.893 78.7744 141.087 78.9811 141.36C79.0944 141.513 79.1944 141.713 79.2811 141.96C79.3678 142.2 79.4111 142.533 79.4111 142.96V144.37C79.4111 144.643 79.4178 144.86 79.4311 145.02C79.4511 145.173 79.4878 145.293 79.5411 145.38C79.6011 145.46 79.6878 145.513 79.8011 145.54C79.9144 145.567 80.0678 145.587 80.2611 145.6V146H77.1311V145.6C77.3311 145.593 77.4878 145.577 77.6011 145.55C77.7211 145.517 77.8111 145.46 77.8711 145.38C77.9311 145.3 77.9711 145.187 77.9911 145.04C78.0111 144.887 78.0211 144.687 78.0211 144.44V143.08C78.0211 142.74 78.0011 142.453 77.9611 142.22C77.9211 141.987 77.8544 141.8 77.7611 141.66C77.6744 141.513 77.5578 141.41 77.4111 141.35C77.2644 141.283 77.0811 141.25 76.8611 141.25C76.6478 141.25 76.4644 141.31 76.3111 141.43C76.1578 141.55 76.0244 141.717 75.9111 141.93C75.8511 142.05 75.7978 142.207 75.7511 142.4C75.7111 142.587 75.6911 142.783 75.6911 142.99V144.37ZM84.343 139.84C84.343 139.607 84.3296 139.42 84.303 139.28C84.283 139.133 84.2396 139.02 84.173 138.94C84.1063 138.853 84.0096 138.797 83.883 138.77C83.763 138.737 83.5996 138.713 83.393 138.7V138.3H86.763V138.7C86.5563 138.707 86.3896 138.727 86.263 138.76C86.1363 138.793 86.0396 138.853 85.973 138.94C85.9063 139.027 85.863 139.147 85.843 139.3C85.823 139.453 85.813 139.657 85.813 139.91V146.02C85.813 146.86 85.5996 147.5 85.173 147.94C84.7463 148.38 84.1096 148.6 83.263 148.6C82.6563 148.6 82.1896 148.497 81.863 148.29C81.5296 148.083 81.363 147.82 81.363 147.5C81.363 147.307 81.4263 147.157 81.553 147.05C81.673 146.95 81.823 146.9 82.003 146.9C82.1563 146.9 82.2796 146.94 82.373 147.02C82.4596 147.1 82.5696 147.25 82.703 147.47C82.8363 147.69 82.9563 147.837 83.063 147.91C83.1696 147.983 83.2996 148.02 83.453 148.02C83.7396 148.02 83.9596 147.863 84.113 147.55C84.2663 147.237 84.343 146.797 84.343 146.23V139.84ZM87.6552 143.45H88.0452C88.1386 144.083 88.3919 144.583 88.8052 144.95C89.2186 145.31 89.7286 145.49 90.3352 145.49C90.5819 145.49 90.8086 145.46 91.0152 145.4C91.2219 145.34 91.3986 145.257 91.5452 145.15C91.6919 145.037 91.8052 144.907 91.8852 144.76C91.9652 144.607 92.0052 144.437 92.0052 144.25C92.0052 144.09 91.9786 143.953 91.9252 143.84C91.8786 143.72 91.7852 143.607 91.6452 143.5C91.5052 143.387 91.3119 143.273 91.0652 143.16C90.8252 143.047 90.5119 142.917 90.1252 142.77C89.3452 142.47 88.7686 142.123 88.3952 141.73C88.0219 141.33 87.8352 140.86 87.8352 140.32C87.8352 140.007 87.8952 139.72 88.0152 139.46C88.1352 139.2 88.3019 138.977 88.5152 138.79C88.7352 138.603 88.9952 138.46 89.2952 138.36C89.6019 138.253 89.9386 138.2 90.3052 138.2C90.6452 138.2 90.9652 138.253 91.2652 138.36C91.5652 138.467 91.8619 138.627 92.1552 138.84L92.3352 138.34H92.5752L92.6852 140.5H92.2952C92.1352 139.953 91.8852 139.537 91.5452 139.25C91.2052 138.957 90.8119 138.81 90.3652 138.81C89.9519 138.81 89.6152 138.913 89.3552 139.12C89.1019 139.32 88.9752 139.58 88.9752 139.9C88.9752 140.04 88.9986 140.167 89.0452 140.28C89.0919 140.387 89.1786 140.49 89.3052 140.59C89.4319 140.69 89.6052 140.793 89.8252 140.9C90.0452 141 90.3286 141.113 90.6752 141.24C91.1419 141.42 91.5386 141.603 91.8652 141.79C92.1986 141.97 92.4686 142.167 92.6752 142.38C92.8886 142.587 93.0452 142.807 93.1452 143.04C93.2452 143.273 93.2952 143.53 93.2952 143.81C93.2952 144.15 93.2219 144.46 93.0752 144.74C92.9286 145.02 92.7219 145.26 92.4552 145.46C92.1952 145.66 91.8819 145.817 91.5152 145.93C91.1552 146.043 90.7552 146.1 90.3152 146.1C89.9152 146.1 89.5552 146.047 89.2352 145.94C88.9152 145.827 88.5852 145.647 88.2452 145.4L88.0452 146H87.8052L87.6552 143.45Z" fill="white"/>
<path d="M56.24 191H49.35V190.6C49.57 190.593 49.75 190.573 49.89 190.54C50.03 190.507 50.1367 190.45 50.21 190.37C50.2833 190.29 50.3333 190.177 50.36 190.03C50.3867 189.883 50.4 189.693 50.4 189.46V184.84C50.4 184.607 50.3867 184.42 50.36 184.28C50.34 184.133 50.2967 184.02 50.23 183.94C50.1633 183.853 50.0667 183.797 49.94 183.77C49.82 183.737 49.66 183.713 49.46 183.7V183.3H52.91V183.7C52.6833 183.707 52.5 183.727 52.36 183.76C52.2267 183.793 52.1233 183.853 52.05 183.94C51.9767 184.027 51.9267 184.147 51.9 184.3C51.88 184.453 51.87 184.657 51.87 184.91V189.1C51.87 189.38 51.8967 189.61 51.95 189.79C52.01 189.963 52.11 190.1 52.25 190.2C52.39 190.293 52.5767 190.36 52.81 190.4C53.0433 190.433 53.3333 190.45 53.68 190.45C54.0667 190.45 54.39 190.427 54.65 190.38C54.91 190.333 55.1267 190.247 55.3 190.12C55.48 189.987 55.6233 189.81 55.73 189.59C55.8367 189.37 55.9267 189.083 56 188.73H56.4L56.24 191ZM61.9488 190.07C61.3422 190.757 60.5855 191.1 59.6788 191.1C59.2655 191.1 58.8888 191.037 58.5488 190.91C58.2155 190.777 57.9288 190.593 57.6888 190.36C57.4488 190.12 57.2622 189.837 57.1288 189.51C56.9955 189.183 56.9288 188.82 56.9288 188.42C56.9288 188.007 56.9988 187.63 57.1388 187.29C57.2788 186.943 57.4755 186.647 57.7288 186.4C57.9888 186.147 58.2922 185.95 58.6388 185.81C58.9922 185.67 59.3788 185.6 59.7988 185.6C60.5055 185.6 61.0555 185.79 61.4488 186.17C61.8422 186.55 62.0388 187.083 62.0388 187.77C62.0388 187.877 62.0222 187.943 61.9888 187.97C61.9555 187.99 61.8622 188 61.7088 188H58.4888C58.4622 188.06 58.4488 188.17 58.4488 188.33C58.4488 188.983 58.5888 189.5 58.8688 189.88C59.1555 190.26 59.5422 190.45 60.0288 190.45C60.3088 190.45 60.5855 190.387 60.8588 190.26C61.1388 190.133 61.4088 189.953 61.6688 189.72L61.9488 190.07ZM60.0088 187.44C60.2755 187.44 60.4455 187.427 60.5188 187.4C60.5988 187.367 60.6388 187.293 60.6388 187.18C60.6388 186.887 60.5555 186.647 60.3888 186.46C60.2222 186.273 60.0122 186.18 59.7588 186.18C59.4722 186.18 59.2155 186.3 58.9888 186.54C58.7688 186.773 58.6255 187.073 58.5588 187.44H60.0088ZM65.8384 188.15C65.2784 188.403 64.8551 188.64 64.5684 188.86C64.2884 189.073 64.1484 189.297 64.1484 189.53C64.1484 189.723 64.2018 189.877 64.3084 189.99C64.4151 190.103 64.5484 190.16 64.7084 190.16C64.8684 190.16 65.0184 190.133 65.1584 190.08C65.2984 190.02 65.4184 189.943 65.5184 189.85C65.6184 189.757 65.6951 189.647 65.7484 189.52C65.8084 189.387 65.8384 189.247 65.8384 189.1V188.15ZM65.8384 187.62V187.2C65.8384 186.813 65.7684 186.533 65.6284 186.36C65.4951 186.18 65.2851 186.09 64.9984 186.09C64.8051 186.09 64.6584 186.143 64.5584 186.25C64.4584 186.35 64.3651 186.52 64.2784 186.76C64.2184 186.927 64.1318 187.057 64.0184 187.15C63.9118 187.243 63.7618 187.29 63.5684 187.29C63.3818 187.29 63.2384 187.233 63.1384 187.12C63.0384 187.007 62.9884 186.847 62.9884 186.64C62.9884 186.32 63.1618 186.067 63.5084 185.88C63.8618 185.693 64.3918 185.6 65.0984 185.6C65.8451 185.6 66.3784 185.737 66.6984 186.01C67.0184 186.277 67.1784 186.727 67.1784 187.36V189.55C67.1784 190.117 67.2918 190.4 67.5184 190.4C67.6451 190.4 67.7618 190.357 67.8684 190.27L68.0184 190.56C67.9251 190.727 67.7784 190.86 67.5784 190.96C67.3851 191.053 67.1651 191.1 66.9184 191.1C66.6118 191.1 66.3784 191.007 66.2184 190.82C66.0584 190.633 65.9784 190.37 65.9784 190.03H65.9284C65.7351 190.377 65.4851 190.64 65.1784 190.82C64.8718 191 64.5218 191.09 64.1284 191.09C63.7084 191.09 63.3718 190.973 63.1184 190.74C62.8651 190.5 62.7384 190.19 62.7384 189.81C62.7384 189.517 62.8684 189.243 63.1284 188.99C63.3884 188.73 63.8218 188.477 64.4284 188.23L65.8384 187.62ZM70.7206 189.45C70.7206 189.71 70.7306 189.917 70.7506 190.07C70.7773 190.217 70.8273 190.33 70.9006 190.41C70.974 190.49 71.0806 190.543 71.2206 190.57C71.3606 190.59 71.5473 190.6 71.7806 190.6V191H68.4406V190.6C68.6406 190.587 68.8006 190.567 68.9206 190.54C69.0406 190.513 69.1306 190.46 69.1906 190.38C69.2506 190.3 69.2873 190.187 69.3006 190.04C69.3206 189.887 69.3306 189.683 69.3306 189.43V188.21C69.3306 187.797 69.3206 187.467 69.3006 187.22C69.2806 186.973 69.2373 186.783 69.1706 186.65C69.104 186.517 69.0073 186.43 68.8806 186.39C68.7606 186.343 68.6006 186.32 68.4006 186.32V185.97L70.4006 185.6L70.5606 186.75H70.6006C70.7806 186.397 71.0173 186.117 71.3106 185.91C71.604 185.703 71.914 185.6 72.2406 185.6C72.494 185.6 72.7006 185.663 72.8606 185.79C73.0206 185.917 73.1006 186.077 73.1006 186.27C73.1006 186.483 73.0373 186.663 72.9106 186.81C72.7906 186.957 72.624 187.03 72.4106 187.03C72.3106 187.03 72.2206 187.01 72.1406 186.97C72.0606 186.93 71.9873 186.887 71.9206 186.84C71.8606 186.787 71.7973 186.74 71.7306 186.7C71.6706 186.653 71.6073 186.63 71.5406 186.63C71.414 186.63 71.294 186.713 71.1806 186.88C71.0673 187.047 70.974 187.27 70.9006 187.55C70.8473 187.75 70.804 187.977 70.7706 188.23C70.7373 188.477 70.7206 188.723 70.7206 188.97V189.45ZM75.6911 189.37C75.6911 189.643 75.6978 189.86 75.7111 190.02C75.7311 190.173 75.7678 190.293 75.8211 190.38C75.8811 190.46 75.9678 190.513 76.0811 190.54C76.2011 190.567 76.3611 190.587 76.5611 190.6V191H73.4111V190.6C73.6044 190.587 73.7578 190.567 73.8711 190.54C73.9911 190.513 74.0811 190.46 74.1411 190.38C74.2078 190.3 74.2511 190.187 74.2711 190.04C74.2911 189.893 74.3011 189.693 74.3011 189.44V188.19C74.3011 187.797 74.2944 187.48 74.2811 187.24C74.2678 186.993 74.2511 186.827 74.2311 186.74C74.2111 186.653 74.1844 186.583 74.1511 186.53C74.1178 186.47 74.0678 186.427 74.0011 186.4C73.9344 186.367 73.8511 186.347 73.7511 186.34C73.6511 186.327 73.5244 186.32 73.3711 186.32V185.98L75.3011 185.6L75.4311 186.48H75.4711C75.6911 186.2 75.9511 185.983 76.2511 185.83C76.5511 185.677 76.8811 185.6 77.2411 185.6C77.6678 185.6 78.0111 185.66 78.2711 185.78C78.5378 185.893 78.7744 186.087 78.9811 186.36C79.0944 186.513 79.1944 186.713 79.2811 186.96C79.3678 187.2 79.4111 187.533 79.4111 187.96V189.37C79.4111 189.643 79.4178 189.86 79.4311 190.02C79.4511 190.173 79.4878 190.293 79.5411 190.38C79.6011 190.46 79.6878 190.513 79.8011 190.54C79.9144 190.567 80.0678 190.587 80.2611 190.6V191H77.1311V190.6C77.3311 190.593 77.4878 190.577 77.6011 190.55C77.7211 190.517 77.8111 190.46 77.8711 190.38C77.9311 190.3 77.9711 190.187 77.9911 190.04C78.0111 189.887 78.0211 189.687 78.0211 189.44V188.08C78.0211 187.74 78.0011 187.453 77.9611 187.22C77.9211 186.987 77.8544 186.8 77.7611 186.66C77.6744 186.513 77.5578 186.41 77.4111 186.35C77.2644 186.283 77.0811 186.25 76.8611 186.25C76.6478 186.25 76.4644 186.31 76.3111 186.43C76.1578 186.55 76.0244 186.717 75.9111 186.93C75.8511 187.05 75.7978 187.207 75.7511 187.4C75.7111 187.587 75.6911 187.783 75.6911 187.99V189.37ZM89.993 185.23C89.993 185.783 89.833 186.247 89.513 186.62C89.193 186.993 88.683 187.243 87.983 187.37L90.303 190.03C90.463 190.217 90.653 190.36 90.873 190.46C91.093 190.553 91.3163 190.6 91.543 190.6V191H89.173L86.693 187.96C86.5263 187.76 86.3796 187.627 86.253 187.56C86.133 187.487 86.0196 187.45 85.913 187.45V189.41C85.913 189.657 85.9296 189.86 85.963 190.02C85.9963 190.173 86.063 190.293 86.163 190.38C86.263 190.467 86.4063 190.527 86.593 190.56C86.7863 190.587 87.043 190.6 87.363 190.6V191H83.393V190.6C83.613 190.6 83.7896 190.587 83.923 190.56C84.063 190.527 84.1696 190.47 84.243 190.39C84.323 190.303 84.3763 190.187 84.403 190.04C84.4296 189.887 84.443 189.693 84.443 189.46V184.84C84.443 184.607 84.433 184.42 84.413 184.28C84.393 184.133 84.3496 184.02 84.283 183.94C84.2163 183.853 84.1196 183.797 83.993 183.77C83.873 183.737 83.7096 183.713 83.503 183.7V183.3H86.963C87.9296 183.3 88.6763 183.47 89.203 183.81C89.7296 184.15 89.993 184.623 89.993 185.23ZM85.913 186.85H86.563C87.1896 186.85 87.6563 186.73 87.963 186.49C88.2763 186.243 88.433 185.84 88.433 185.28C88.433 184.853 88.303 184.51 88.043 184.25C87.783 183.99 87.423 183.86 86.963 183.86H86.093C85.973 183.86 85.913 183.917 85.913 184.03V186.85ZM96.5387 190.07C95.932 190.757 95.1753 191.1 94.2687 191.1C93.8553 191.1 93.4787 191.037 93.1387 190.91C92.8053 190.777 92.5187 190.593 92.2787 190.36C92.0387 190.12 91.852 189.837 91.7187 189.51C91.5853 189.183 91.5187 188.82 91.5187 188.42C91.5187 188.007 91.5887 187.63 91.7287 187.29C91.8687 186.943 92.0653 186.647 92.3187 186.4C92.5787 186.147 92.882 185.95 93.2287 185.81C93.582 185.67 93.9687 185.6 94.3887 185.6C95.0953 185.6 95.6453 185.79 96.0387 186.17C96.432 186.55 96.6287 187.083 96.6287 187.77C96.6287 187.877 96.612 187.943 96.5787 187.97C96.5453 187.99 96.452 188 96.2987 188H93.0787C93.052 188.06 93.0387 188.17 93.0387 188.33C93.0387 188.983 93.1787 189.5 93.4587 189.88C93.7453 190.26 94.132 190.45 94.6187 190.45C94.8987 190.45 95.1753 190.387 95.4487 190.26C95.7287 190.133 95.9987 189.953 96.2587 189.72L96.5387 190.07ZM94.5987 187.44C94.8653 187.44 95.0353 187.427 95.1087 187.4C95.1887 187.367 95.2287 187.293 95.2287 187.18C95.2287 186.887 95.1453 186.647 94.9787 186.46C94.812 186.273 94.602 186.18 94.3487 186.18C94.062 186.18 93.8053 186.3 93.5787 186.54C93.3587 186.773 93.2153 187.073 93.1487 187.44H94.5987ZM100.428 188.15C99.8683 188.403 99.4449 188.64 99.1583 188.86C98.8783 189.073 98.7383 189.297 98.7383 189.53C98.7383 189.723 98.7916 189.877 98.8983 189.99C99.0049 190.103 99.1383 190.16 99.2983 190.16C99.4583 190.16 99.6083 190.133 99.7483 190.08C99.8883 190.02 100.008 189.943 100.108 189.85C100.208 189.757 100.285 189.647 100.338 189.52C100.398 189.387 100.428 189.247 100.428 189.1V188.15ZM100.428 187.62V187.2C100.428 186.813 100.358 186.533 100.218 186.36C100.085 186.18 99.8749 186.09 99.5883 186.09C99.3949 186.09 99.2483 186.143 99.1483 186.25C99.0483 186.35 98.9549 186.52 98.8683 186.76C98.8083 186.927 98.7216 187.057 98.6083 187.15C98.5016 187.243 98.3516 187.29 98.1583 187.29C97.9716 187.29 97.8283 187.233 97.7283 187.12C97.6283 187.007 97.5783 186.847 97.5783 186.64C97.5783 186.32 97.7516 186.067 98.0983 185.88C98.4516 185.693 98.9816 185.6 99.6883 185.6C100.435 185.6 100.968 185.737 101.288 186.01C101.608 186.277 101.768 186.727 101.768 187.36V189.55C101.768 190.117 101.882 190.4 102.108 190.4C102.235 190.4 102.352 190.357 102.458 190.27L102.608 190.56C102.515 190.727 102.368 190.86 102.168 190.96C101.975 191.053 101.755 191.1 101.508 191.1C101.202 191.1 100.968 191.007 100.808 190.82C100.648 190.633 100.568 190.37 100.568 190.03H100.518C100.325 190.377 100.075 190.64 99.7683 190.82C99.4616 191 99.1116 191.09 98.7183 191.09C98.2983 191.09 97.9616 190.973 97.7083 190.74C97.4549 190.5 97.3283 190.19 97.3283 189.81C97.3283 189.517 97.4583 189.243 97.7183 188.99C97.9783 188.73 98.4116 188.477 99.0183 188.23L100.428 187.62ZM108.01 190.17C107.757 190.45 107.44 190.667 107.06 190.82C106.687 190.973 106.28 191.05 105.84 191.05C105.434 191.05 105.064 190.987 104.73 190.86C104.397 190.727 104.11 190.543 103.87 190.31C103.63 190.077 103.444 189.797 103.31 189.47C103.184 189.137 103.12 188.77 103.12 188.37C103.12 187.957 103.19 187.58 103.33 187.24C103.47 186.9 103.667 186.61 103.92 186.37C104.174 186.123 104.477 185.933 104.83 185.8C105.184 185.667 105.574 185.6 106 185.6C106.3 185.6 106.577 185.63 106.83 185.69C107.09 185.75 107.31 185.833 107.49 185.94C107.677 186.047 107.824 186.173 107.93 186.32C108.037 186.46 108.09 186.613 108.09 186.78C108.09 186.973 108.034 187.127 107.92 187.24C107.814 187.353 107.667 187.41 107.48 187.41C107.327 187.41 107.19 187.37 107.07 187.29C106.957 187.21 106.844 187.08 106.73 186.9C106.63 186.74 106.544 186.613 106.47 186.52C106.404 186.427 106.34 186.357 106.28 186.31C106.22 186.257 106.16 186.223 106.1 186.21C106.04 186.19 105.967 186.18 105.88 186.18C105.494 186.18 105.194 186.36 104.98 186.72C104.767 187.08 104.66 187.583 104.66 188.23C104.66 188.923 104.787 189.457 105.04 189.83C105.3 190.203 105.67 190.39 106.15 190.39C106.424 190.39 106.697 190.34 106.97 190.24C107.244 190.133 107.504 189.983 107.75 189.79L108.01 190.17ZM108.625 186.25V185.8C109.025 185.687 109.358 185.517 109.625 185.29C109.898 185.057 110.102 184.79 110.235 184.49H110.745V185.7H111.895V186.25H110.745V189.32C110.745 189.733 110.788 190.027 110.875 190.2C110.968 190.373 111.122 190.46 111.335 190.46C111.595 190.46 111.792 190.34 111.925 190.1L112.135 190.39C111.948 190.863 111.508 191.1 110.815 191.1C110.355 191.1 109.995 190.993 109.735 190.78C109.482 190.567 109.355 190.267 109.355 189.88V186.25H108.625Z" fill="white"/>
</g>
<defs>
<clipPath id="clip0_1_2">
<rect width="500" height="341" fill="white"/>
</clipPath>
</defs>
</svg>
