<svg width="403" height="563" viewBox="0 0 403 563" fill="none" xmlns="http://www.w3.org/2000/svg">
<rect x="63" y="69" width="132" height="204" rx="65" fill="white"/>
<rect x="63" y="69" width="132" height="204" rx="65" fill="white" fill-opacity="0.2"/>
<rect x="63" y="69" width="132" height="204" rx="65" stroke="#075985" stroke-width="4"/>
<rect x="61" y="216" width="136" height="72" fill="white"/>
<line x1="61" y1="214.5" x2="197" y2="214.5" stroke="#075985" stroke-width="3"/>
<ellipse cx="167.5" cy="161.5" rx="7.5" ry="9.5" fill="#075985"/>
<ellipse cx="89.5" cy="161.5" rx="7.5" ry="9.5" fill="#075985"/>
<ellipse cx="129.5" cy="186" rx="14.5" ry="9" fill="#075985"/>
<ellipse cx="129.5" cy="175.5" rx="15.5" ry="14.5" fill="white"/>
<rect x="128" y="14" width="5" height="55" rx="2.5" fill="white" stroke="#075985" stroke-width="2"/>
<ellipse cx="130.5" cy="13" rx="8.5" ry="8" fill="#075985"/>
<circle cx="126.5" cy="8.5" r="4.5" fill="white"/>
<rect x="69.1123" y="248.263" width="21" height="11" rx="4.5" transform="rotate(-50.2711 69.1123 248.263)" fill="white" stroke="#075985" stroke-width="3"/>
<rect x="50.0906" y="346.976" width="10.2017" height="21.8552" rx="3.5" transform="rotate(-35.2353 50.0906 346.976)" fill="white" stroke="#075985" stroke-width="3"/>
<path d="M48.1149 333.245C49.6531 332.2 51.7532 333.141 51.998 334.984L56.2356 366.895C56.4932 368.836 54.5221 370.306 52.7356 369.506L21.8705 355.685C20.0841 354.885 19.8683 352.436 21.4873 351.336L48.1149 333.245Z" fill="#075985" stroke="#075985" stroke-width="3"/>
<rect x="47.0295" y="262.413" width="39.543" height="75.096" rx="7" transform="rotate(13.567 47.0295 262.413)" fill="white" stroke="#075985" stroke-width="4"/>
<rect x="83.5" y="229.5" width="90" height="78" rx="23.5" fill="white" stroke="#075985" stroke-width="3"/>
<rect x="117" y="215" width="25" height="19" rx="9.5" fill="#075985" stroke="#075985" stroke-width="4"/>
<rect x="95.5" y="251.5" width="21" height="50" rx="10.5" fill="#075985" stroke="#075985" stroke-width="3"/>
<path d="M113.5 266.5C113.5 270.286 110.224 273.5 106 273.5C101.776 273.5 98.5 270.286 98.5 266.5C98.5 262.714 101.776 259.5 106 259.5C110.224 259.5 113.5 262.714 113.5 266.5Z" fill="black" stroke="black" stroke-width="3"/>
<path d="M113.5 288.5C113.5 292.286 110.224 295.5 106 295.5C101.776 295.5 98.5 292.286 98.5 288.5C98.5 284.714 101.776 281.5 106 281.5C110.224 281.5 113.5 284.714 113.5 288.5Z" fill="white" stroke="white" stroke-width="3"/>
<rect x="104.5" y="304.5" width="50" height="58" rx="8.5" fill="#075985" stroke="#075985" stroke-width="3"/>
<rect x="145.5" y="335.5" width="37" height="55" rx="13.5" fill="white" stroke="#075985" stroke-width="3"/>
<rect x="76.5" y="335.5" width="37" height="55" rx="13.5" fill="white" stroke="#075985" stroke-width="3"/>
<rect x="156" y="391" width="16" height="27" rx="5" fill="#075985" stroke="#075985" stroke-width="4"/>
<rect x="88" y="391" width="16" height="27" rx="5" fill="#075985" stroke="#075985" stroke-width="4"/>
<path d="M124 463C124 478.759 120.637 492.926 115.297 503.081C109.908 513.329 102.809 519 95.5 519C88.1905 519 81.0924 513.329 75.7034 503.081C70.3632 492.926 67 478.759 67 463C67 447.241 70.3632 433.074 75.7034 422.919C81.0924 412.671 88.1905 407 95.5 407C102.809 407 109.908 412.671 115.297 422.919C120.637 433.074 124 447.241 124 463Z" fill="white" stroke="#075985" stroke-width="4"/>
<path d="M192 463C192 478.759 188.637 492.926 183.297 503.081C177.908 513.329 170.809 519 163.5 519C156.191 519 149.092 513.329 143.703 503.081C138.363 492.926 135 478.759 135 463C135 447.241 138.363 433.074 143.703 422.919C149.092 412.671 156.191 407 163.5 407C170.809 407 177.908 412.671 183.297 422.919C188.637 433.074 192 447.241 192 463Z" fill="white" stroke="#075985" stroke-width="4"/>
<path d="M191.5 510.5C191.5 524.762 179.065 536.5 163.5 536.5C147.935 536.5 135.5 524.762 135.5 510.5C135.5 496.238 147.935 484.5 163.5 484.5C179.065 484.5 191.5 496.238 191.5 510.5Z" fill="white" stroke="#075985" stroke-width="3"/>
<path d="M122.5 510.5C122.5 524.762 110.065 536.5 94.5 536.5C78.9351 536.5 66.5 524.762 66.5 510.5C66.5 496.238 78.9351 484.5 94.5 484.5C110.065 484.5 122.5 496.238 122.5 510.5Z" fill="white" stroke="#075985" stroke-width="3"/>
<path d="M98.2818 554.792C96.6902 557.076 93.3098 557.076 91.7182 554.792L72.901 527.787C71.0532 525.135 72.9507 521.5 76.1829 521.5H113.817C117.049 521.5 118.947 525.135 117.099 527.787L98.2818 554.792Z" fill="white" stroke="#075985" stroke-width="4"/>
<path d="M168.282 554.792C166.69 557.076 163.31 557.076 161.718 554.792L142.901 527.787C141.053 525.135 142.951 521.5 146.183 521.5H183.817C187.049 521.5 188.947 525.135 187.099 527.787L168.282 554.792Z" fill="white" stroke="#075985" stroke-width="4"/>
<rect x="171.5" y="234.5" width="21" height="11" rx="4.5" fill="white" stroke="#075985" stroke-width="3"/>
<rect x="189.982" y="235.557" width="21" height="11" rx="4.5" transform="rotate(-24.1015 189.982 235.557)" fill="white" stroke="#075985" stroke-width="3"/>
<rect x="248.884" y="148.97" width="10.2017" height="21.8552" rx="3.5" transform="rotate(-17.613 248.884 148.97)" fill="white" stroke="#075985" stroke-width="3"/>
<rect x="252.438" y="129.733" width="10.2017" height="21.8552" rx="3.5" transform="rotate(9.76208 252.438 129.733)" fill="white" stroke="#075985" stroke-width="3"/>
<rect x="279.724" y="132.379" width="10.2017" height="21.8552" rx="3.5" transform="rotate(35.0308 279.724 132.379)" fill="white" stroke="#075985" stroke-width="3"/>
<rect x="286.88" y="120.629" width="10.2017" height="21.8552" rx="3.5" transform="rotate(32.505 286.88 120.629)" fill="white" stroke="#075985" stroke-width="3"/>
<rect x="291.849" y="140.268" width="10.2017" height="21.8552" rx="3.5" transform="rotate(43.1255 291.849 140.268)" fill="white" stroke="#075985" stroke-width="3"/>
<rect x="301.449" y="131.121" width="10.2017" height="21.8552" rx="3.5" transform="rotate(44.5321 301.449 131.121)" fill="white" stroke="#075985" stroke-width="3"/>
<rect x="303.388" y="154.076" width="10.2017" height="21.8552" rx="3.5" transform="rotate(56.9169 303.388 154.076)" fill="white" stroke="#075985" stroke-width="3"/>
<rect x="318.329" y="146.028" width="10.2017" height="21.8552" rx="3.5" transform="rotate(62.0208 318.329 146.028)" fill="white" stroke="#075985" stroke-width="3"/>
<path d="M262.078 187.297C260.317 187.894 258.544 186.427 258.8 184.585L263.235 152.701C263.505 150.762 265.797 149.871 267.305 151.119L293.361 172.678C294.869 173.926 294.423 176.345 292.569 176.972L262.078 187.297Z" fill="#075985" stroke="#075985" stroke-width="3"/>
<rect x="251.724" y="169.231" width="39.543" height="75.096" rx="7" transform="rotate(46.6795 251.724 169.231)" fill="white" stroke="#075985" stroke-width="4"/>
<rect x="59.9775" y="267.195" width="21" height="11" rx="4.5" transform="rotate(-66.2225 59.9775 267.195)" fill="white" stroke="#075985" stroke-width="3"/>
<rect x="62.309" y="358.043" width="10.2017" height="21.8552" rx="3.5" transform="rotate(9.7677 62.309 358.043)" fill="white" stroke="#075985" stroke-width="3"/>
<rect x="21.2048" y="355.1" width="10.2017" height="21.8552" rx="3.5" transform="rotate(36.843 21.2048 355.1)" fill="white" stroke="#075985" stroke-width="3"/>
<rect x="31.7894" y="361.044" width="10.2017" height="21.8552" rx="3.5" transform="rotate(29.4509 31.7894 361.044)" fill="white" stroke="#075985" stroke-width="3"/>
<rect x="42.9085" y="365.809" width="10.2017" height="21.8552" rx="3.5" transform="rotate(13.4943 42.9085 365.809)" fill="white" stroke="#075985" stroke-width="3"/>
<rect x="23.0429" y="376.987" width="10.2017" height="21.8552" rx="3.5" transform="rotate(24.4797 23.0429 376.987)" fill="white" stroke="#075985" stroke-width="3"/>
<rect x="38.6303" y="382.571" width="10.2017" height="21.8552" rx="3.5" transform="rotate(2.77825 38.6303 382.571)" fill="white" stroke="#075985" stroke-width="3"/>
<rect x="10.69" y="368.974" width="10.2017" height="21.8552" rx="3.5" transform="rotate(23.5042 10.69 368.974)" fill="white" stroke="#075985" stroke-width="3"/>
<path d="M261.982 104.424L221.961 107.888L229.451 68.4219L261.982 104.424Z" fill="white" stroke="#075985" stroke-width="3"/>
<path d="M401.5 58.5C401.5 73.9513 391.486 88.166 374.819 98.5941C358.173 109.009 335.083 115.5 309.5 115.5C283.917 115.5 260.827 109.009 244.181 98.5941C227.514 88.166 217.5 73.9513 217.5 58.5C217.5 43.0487 227.514 28.834 244.181 18.4059C260.827 7.99085 283.917 1.5 309.5 1.5C335.083 1.5 358.173 7.99085 374.819 18.4059C391.486 28.834 401.5 43.0487 401.5 58.5Z" fill="white" stroke="#075985" stroke-width="3"/>
<path d="M264.982 101.424L224.961 104.888L232.451 65.4219L264.982 101.424Z" fill="white" stroke="white" stroke-width="3"/>
<path d="M266.27 35.746C266.27 36.1007 266.284 36.39 266.312 36.614C266.349 36.8287 266.419 36.9967 266.522 37.118C266.634 37.23 266.783 37.3093 266.97 37.356C267.166 37.4027 267.423 37.4307 267.74 37.44V38H262.602V37.44C262.947 37.4307 263.223 37.4027 263.428 37.356C263.643 37.3093 263.806 37.23 263.918 37.118C264.039 37.006 264.119 36.8473 264.156 36.642C264.193 36.4367 264.212 36.1707 264.212 35.844V32.918H259.018V35.746C259.018 36.1007 259.037 36.39 259.074 36.614C259.111 36.8287 259.186 36.9967 259.298 37.118C259.41 37.23 259.569 37.3093 259.774 37.356C259.989 37.4027 260.269 37.4307 260.614 37.44V38H255.49V37.44C255.807 37.4307 256.059 37.4027 256.246 37.356C256.442 37.3093 256.591 37.23 256.694 37.118C256.797 37.006 256.867 36.8473 256.904 36.642C256.941 36.4367 256.96 36.1707 256.96 35.844V29.376C256.96 29.0493 256.941 28.788 256.904 28.592C256.876 28.3867 256.815 28.228 256.722 28.116C256.629 27.9947 256.493 27.9153 256.316 27.878C256.148 27.8313 255.924 27.7987 255.644 27.78V27.22H260.474V27.78C260.157 27.7893 259.9 27.8173 259.704 27.864C259.517 27.9107 259.373 27.9947 259.27 28.116C259.167 28.2373 259.097 28.4053 259.06 28.62C259.032 28.8347 259.018 29.1193 259.018 29.474V32.05H264.212V29.376C264.212 29.0493 264.193 28.788 264.156 28.592C264.119 28.3867 264.049 28.228 263.946 28.116C263.843 27.9947 263.694 27.9153 263.498 27.878C263.311 27.8313 263.059 27.7987 262.742 27.78V27.22H267.586V27.78C267.306 27.7893 267.077 27.8173 266.9 27.864C266.732 27.9107 266.601 27.9947 266.508 28.116C266.415 28.2373 266.349 28.4053 266.312 28.62C266.284 28.8347 266.27 29.1193 266.27 29.474V35.746ZM275.48 36.698C274.631 37.6593 273.571 38.14 272.302 38.14C271.723 38.14 271.196 38.0513 270.72 37.874C270.253 37.6873 269.852 37.4307 269.516 37.104C269.18 36.768 268.919 36.3713 268.732 35.914C268.545 35.4567 268.452 34.948 268.452 34.388C268.452 33.8093 268.55 33.282 268.746 32.806C268.942 32.3207 269.217 31.9053 269.572 31.56C269.936 31.2053 270.361 30.93 270.846 30.734C271.341 30.538 271.882 30.44 272.47 30.44C273.459 30.44 274.229 30.706 274.78 31.238C275.331 31.77 275.606 32.5167 275.606 33.478C275.606 33.6273 275.583 33.7207 275.536 33.758C275.489 33.786 275.359 33.8 275.144 33.8H270.636C270.599 33.884 270.58 34.038 270.58 34.262C270.58 35.1767 270.776 35.9 271.168 36.432C271.569 36.964 272.111 37.23 272.792 37.23C273.184 37.23 273.571 37.1413 273.954 36.964C274.346 36.7867 274.724 36.5347 275.088 36.208L275.48 36.698ZM272.764 33.016C273.137 33.016 273.375 32.9973 273.478 32.96C273.59 32.9133 273.646 32.8107 273.646 32.652C273.646 32.2413 273.529 31.9053 273.296 31.644C273.063 31.3827 272.769 31.252 272.414 31.252C272.013 31.252 271.653 31.42 271.336 31.756C271.028 32.0827 270.827 32.5027 270.734 33.016H272.764ZM279.567 35.704C279.567 36.0773 279.581 36.376 279.609 36.6C279.637 36.824 279.693 36.9967 279.777 37.118C279.861 37.2393 279.983 37.3233 280.141 37.37C280.3 37.4073 280.515 37.4307 280.785 37.44V38H276.375V37.44C276.637 37.4307 276.847 37.4027 277.005 37.356C277.173 37.3 277.299 37.216 277.383 37.104C277.477 36.9827 277.537 36.8193 277.565 36.614C277.603 36.3993 277.621 36.1287 277.621 35.802V30.02C277.621 29.4787 277.612 29.0353 277.593 28.69C277.575 28.3353 277.551 28.0927 277.523 27.962C277.477 27.7287 277.369 27.5747 277.201 27.5C277.043 27.4253 276.749 27.388 276.319 27.388V26.912L279.567 26.38V35.704ZM284.544 35.704C284.544 36.0773 284.558 36.376 284.586 36.6C284.614 36.824 284.67 36.9967 284.754 37.118C284.838 37.2393 284.959 37.3233 285.118 37.37C285.277 37.4073 285.491 37.4307 285.762 37.44V38H281.352V37.44C281.613 37.4307 281.823 37.4027 281.982 37.356C282.15 37.3 282.276 37.216 282.36 37.104C282.453 36.9827 282.514 36.8193 282.542 36.614C282.579 36.3993 282.598 36.1287 282.598 35.802V30.02C282.598 29.4787 282.589 29.0353 282.57 28.69C282.551 28.3353 282.528 28.0927 282.5 27.962C282.453 27.7287 282.346 27.5747 282.178 27.5C282.019 27.4253 281.725 27.388 281.296 27.388V26.912L284.544 26.38V35.704ZM290.655 30.44C291.215 30.44 291.742 30.538 292.237 30.734C292.741 30.9207 293.179 31.182 293.553 31.518C293.935 31.854 294.234 32.2553 294.449 32.722C294.673 33.1793 294.785 33.6833 294.785 34.234C294.785 34.8033 294.673 35.326 294.449 35.802C294.234 36.278 293.935 36.6887 293.553 37.034C293.179 37.3793 292.741 37.65 292.237 37.846C291.742 38.042 291.215 38.14 290.655 38.14C290.104 38.14 289.581 38.0467 289.087 37.86C288.592 37.664 288.158 37.3933 287.785 37.048C287.411 36.7027 287.117 36.292 286.903 35.816C286.688 35.3307 286.581 34.8033 286.581 34.234C286.581 33.6833 286.688 33.1747 286.903 32.708C287.117 32.2413 287.411 31.84 287.785 31.504C288.158 31.168 288.592 30.9067 289.087 30.72C289.581 30.5333 290.104 30.44 290.655 30.44ZM290.655 31.252C290.375 31.252 290.118 31.3267 289.885 31.476C289.651 31.616 289.451 31.8167 289.283 32.078C289.124 32.3393 288.998 32.6567 288.905 33.03C288.821 33.394 288.779 33.8 288.779 34.248C288.779 34.7147 288.821 35.1347 288.905 35.508C288.998 35.8813 289.124 36.1987 289.283 36.46C289.451 36.7213 289.647 36.9267 289.871 37.076C290.104 37.216 290.365 37.286 290.655 37.286C290.944 37.286 291.205 37.216 291.439 37.076C291.681 36.9267 291.887 36.7213 292.055 36.46C292.223 36.1893 292.353 35.8673 292.447 35.494C292.54 35.1207 292.587 34.7053 292.587 34.248C292.587 33.8 292.54 33.394 292.447 33.03C292.353 32.666 292.223 32.3533 292.055 32.092C291.887 31.8213 291.681 31.616 291.439 31.476C291.205 31.3267 290.944 31.252 290.655 31.252ZM295.725 39.582C296.229 39.246 296.597 38.9427 296.831 38.672C297.073 38.4013 297.195 38.14 297.195 37.888C297.148 37.916 297.083 37.944 296.999 37.972C296.924 37.9907 296.849 38 296.775 38C296.579 38 296.411 37.9113 296.271 37.734C296.131 37.5567 296.061 37.3467 296.061 37.104C296.061 36.796 296.159 36.5393 296.355 36.334C296.56 36.1287 296.812 36.026 297.111 36.026C297.437 36.026 297.699 36.1427 297.895 36.376C298.091 36.6093 298.189 36.9267 298.189 37.328C298.189 37.832 298.021 38.3127 297.685 38.77C297.349 39.2367 296.831 39.7033 296.131 40.17L295.725 39.582ZM306.3 35.69C306.3 36.082 306.309 36.39 306.328 36.614C306.346 36.838 306.398 37.0107 306.482 37.132C306.566 37.244 306.687 37.3187 306.846 37.356C307.004 37.3933 307.224 37.4213 307.504 37.44V38H303.08V37.44C303.36 37.4213 303.584 37.3933 303.752 37.356C303.92 37.3187 304.046 37.244 304.13 37.132C304.214 37.02 304.27 36.8613 304.298 36.656C304.326 36.4413 304.34 36.1567 304.34 35.802V34.066C304.34 33.534 304.33 33.0907 304.312 32.736C304.302 32.3813 304.279 32.1387 304.242 32.008C304.214 31.8867 304.176 31.7933 304.13 31.728C304.092 31.6533 304.027 31.5973 303.934 31.56C303.85 31.5133 303.738 31.4853 303.598 31.476C303.458 31.4573 303.276 31.448 303.052 31.448V30.972L305.754 30.44L305.922 31.658H306.006C306.398 31.2193 306.79 30.9067 307.182 30.72C307.583 30.5333 308.045 30.44 308.568 30.44C309.184 30.44 309.692 30.5473 310.094 30.762C310.495 30.9767 310.798 31.2847 311.004 31.686H311.06C311.396 31.294 311.797 30.9907 312.264 30.776C312.73 30.552 313.23 30.44 313.762 30.44C314.322 30.44 314.807 30.51 315.218 30.65C315.638 30.79 315.964 30.9907 316.198 31.252C316.384 31.4667 316.52 31.7467 316.604 32.092C316.697 32.4373 316.744 32.918 316.744 33.534V35.69C316.744 36.0727 316.753 36.376 316.772 36.6C316.8 36.824 316.856 36.9967 316.94 37.118C317.024 37.2393 317.145 37.3187 317.304 37.356C317.462 37.3933 317.682 37.4213 317.962 37.44V38H313.538V37.44C313.818 37.4307 314.037 37.4073 314.196 37.37C314.364 37.3233 314.49 37.244 314.574 37.132C314.667 37.0107 314.723 36.8473 314.742 36.642C314.77 36.4367 314.784 36.1567 314.784 35.802V33.968C314.784 33.4827 314.756 33.072 314.7 32.736C314.644 32.4 314.555 32.1293 314.434 31.924C314.312 31.7187 314.149 31.574 313.944 31.49C313.748 31.3967 313.505 31.35 313.216 31.35C312.889 31.35 312.618 31.4293 312.404 31.588C312.198 31.7467 312.026 31.952 311.886 32.204C311.643 32.6427 311.522 33.1887 311.522 33.842V35.69C311.522 36.0727 311.531 36.376 311.55 36.6C311.568 36.824 311.62 36.9967 311.704 37.118C311.788 37.2393 311.909 37.3187 312.068 37.356C312.236 37.3933 312.464 37.4213 312.754 37.44V38H308.316V37.44C308.596 37.4213 308.815 37.3933 308.974 37.356C309.142 37.3187 309.268 37.244 309.352 37.132C309.445 37.02 309.501 36.8613 309.52 36.656C309.548 36.4413 309.562 36.1567 309.562 35.802V33.968C309.562 33.4827 309.534 33.072 309.478 32.736C309.422 32.4 309.328 32.1293 309.198 31.924C309.076 31.7187 308.913 31.574 308.708 31.49C308.502 31.3967 308.246 31.35 307.938 31.35C307.63 31.35 307.373 31.4247 307.168 31.574C306.972 31.7233 306.808 31.924 306.678 32.176C306.556 32.4 306.463 32.6567 306.398 32.946C306.332 33.2353 306.3 33.534 306.3 33.842V35.69ZM321.84 40.198C321.738 40.4033 321.607 40.5947 321.448 40.772C321.299 40.9493 321.126 41.0987 320.93 41.22C320.744 41.3507 320.548 41.4533 320.342 41.528C320.137 41.6027 319.932 41.64 319.726 41.64C319.418 41.64 319.171 41.5653 318.984 41.416C318.798 41.2667 318.704 41.066 318.704 40.814C318.704 40.5807 318.784 40.3987 318.942 40.268C319.11 40.1373 319.376 40.058 319.74 40.03C320.571 39.9647 321.108 39.7033 321.35 39.246L321.728 38.518L319.25 32.386C319.138 32.1153 319.04 31.9007 318.956 31.742C318.882 31.5833 318.798 31.462 318.704 31.378C318.611 31.2847 318.504 31.224 318.382 31.196C318.261 31.168 318.112 31.1493 317.934 31.14V30.58H322.176V31.14C321.812 31.14 321.556 31.1773 321.406 31.252C321.266 31.3173 321.196 31.4433 321.196 31.63C321.196 31.7047 321.206 31.7933 321.224 31.896C321.252 31.9893 321.285 32.0873 321.322 32.19L322.75 36.278H322.806L324.01 33.548C324.132 33.2587 324.234 33.0207 324.318 32.834C324.402 32.638 324.463 32.4747 324.5 32.344C324.547 32.204 324.58 32.092 324.598 32.008C324.617 31.924 324.626 31.84 324.626 31.756C324.626 31.5133 324.556 31.35 324.416 31.266C324.286 31.182 324.015 31.14 323.604 31.14V30.58H326.978V31.14C326.792 31.14 326.633 31.168 326.502 31.224C326.372 31.2707 326.236 31.3733 326.096 31.532C325.966 31.6907 325.816 31.9287 325.648 32.246C325.49 32.554 325.289 32.9647 325.046 33.478L321.84 40.198ZM333.766 35.718C333.766 36.1007 333.775 36.404 333.794 36.628C333.822 36.8427 333.873 37.0107 333.948 37.132C334.032 37.244 334.153 37.3187 334.312 37.356C334.48 37.3933 334.704 37.4213 334.984 37.44V38H330.574V37.44C330.845 37.4213 331.059 37.3933 331.218 37.356C331.386 37.3187 331.512 37.244 331.596 37.132C331.689 37.02 331.75 36.8613 331.778 36.656C331.806 36.4507 331.82 36.1707 331.82 35.816V34.066C331.82 33.5153 331.811 33.072 331.792 32.736C331.773 32.3907 331.75 32.1573 331.722 32.036C331.694 31.9147 331.657 31.8167 331.61 31.742C331.563 31.658 331.493 31.5973 331.4 31.56C331.307 31.5133 331.19 31.4853 331.05 31.476C330.91 31.4573 330.733 31.448 330.518 31.448V30.972L333.22 30.44L333.402 31.672H333.458C333.766 31.28 334.13 30.9767 334.55 30.762C334.97 30.5473 335.432 30.44 335.936 30.44C336.533 30.44 337.014 30.524 337.378 30.692C337.751 30.8507 338.083 31.1213 338.372 31.504C338.531 31.7187 338.671 31.9987 338.792 32.344C338.913 32.68 338.974 33.1467 338.974 33.744V35.718C338.974 36.1007 338.983 36.404 339.002 36.628C339.03 36.8427 339.081 37.0107 339.156 37.132C339.24 37.244 339.361 37.3187 339.52 37.356C339.679 37.3933 339.893 37.4213 340.164 37.44V38H335.782V37.44C336.062 37.4307 336.281 37.4073 336.44 37.37C336.608 37.3233 336.734 37.244 336.818 37.132C336.902 37.02 336.958 36.8613 336.986 36.656C337.014 36.4413 337.028 36.1613 337.028 35.816V33.912C337.028 33.436 337 33.0347 336.944 32.708C336.888 32.3813 336.795 32.12 336.664 31.924C336.543 31.7187 336.379 31.574 336.174 31.49C335.969 31.3967 335.712 31.35 335.404 31.35C335.105 31.35 334.849 31.434 334.634 31.602C334.419 31.77 334.233 32.0033 334.074 32.302C333.99 32.47 333.915 32.6893 333.85 32.96C333.794 33.2213 333.766 33.4967 333.766 33.786V35.718ZM345.156 34.01C344.372 34.3647 343.779 34.696 343.378 35.004C342.986 35.3027 342.79 35.6153 342.79 35.942C342.79 36.2127 342.865 36.4273 343.014 36.586C343.163 36.7447 343.35 36.824 343.574 36.824C343.798 36.824 344.008 36.7867 344.204 36.712C344.4 36.628 344.568 36.5207 344.708 36.39C344.848 36.2593 344.955 36.1053 345.03 35.928C345.114 35.7413 345.156 35.5453 345.156 35.34V34.01ZM345.156 33.268V32.68C345.156 32.1387 345.058 31.7467 344.862 31.504C344.675 31.252 344.381 31.126 343.98 31.126C343.709 31.126 343.504 31.2007 343.364 31.35C343.224 31.49 343.093 31.728 342.972 32.064C342.888 32.2973 342.767 32.4793 342.608 32.61C342.459 32.7407 342.249 32.806 341.978 32.806C341.717 32.806 341.516 32.7267 341.376 32.568C341.236 32.4093 341.166 32.1853 341.166 31.896C341.166 31.448 341.409 31.0933 341.894 30.832C342.389 30.5707 343.131 30.44 344.12 30.44C345.165 30.44 345.912 30.6313 346.36 31.014C346.808 31.3873 347.032 32.0173 347.032 32.904V35.97C347.032 36.7633 347.191 37.16 347.508 37.16C347.685 37.16 347.849 37.0993 347.998 36.978L348.208 37.384C348.077 37.6173 347.872 37.804 347.592 37.944C347.321 38.0747 347.013 38.14 346.668 38.14C346.239 38.14 345.912 38.0093 345.688 37.748C345.464 37.4867 345.352 37.118 345.352 36.642H345.282C345.011 37.1273 344.661 37.496 344.232 37.748C343.803 38 343.313 38.126 342.762 38.126C342.174 38.126 341.703 37.9627 341.348 37.636C340.993 37.3 340.816 36.866 340.816 36.334C340.816 35.9233 340.998 35.5407 341.362 35.186C341.726 34.822 342.333 34.4673 343.182 34.122L345.156 33.268ZM351.991 35.69C351.991 36.082 352 36.39 352.019 36.614C352.038 36.838 352.089 37.0107 352.173 37.132C352.257 37.244 352.378 37.3187 352.537 37.356C352.696 37.3933 352.915 37.4213 353.195 37.44V38H348.771V37.44C349.051 37.4213 349.275 37.3933 349.443 37.356C349.611 37.3187 349.737 37.244 349.821 37.132C349.905 37.02 349.961 36.8613 349.989 36.656C350.017 36.4413 350.031 36.1567 350.031 35.802V34.066C350.031 33.534 350.022 33.0907 350.003 32.736C349.994 32.3813 349.97 32.1387 349.933 32.008C349.905 31.8867 349.868 31.7933 349.821 31.728C349.784 31.6533 349.718 31.5973 349.625 31.56C349.541 31.5133 349.429 31.4853 349.289 31.476C349.149 31.4573 348.967 31.448 348.743 31.448V30.972L351.445 30.44L351.613 31.658H351.697C352.089 31.2193 352.481 30.9067 352.873 30.72C353.274 30.5333 353.736 30.44 354.259 30.44C354.875 30.44 355.384 30.5473 355.785 30.762C356.186 30.9767 356.49 31.2847 356.695 31.686H356.751C357.087 31.294 357.488 30.9907 357.955 30.776C358.422 30.552 358.921 30.44 359.453 30.44C360.013 30.44 360.498 30.51 360.909 30.65C361.329 30.79 361.656 30.9907 361.889 31.252C362.076 31.4667 362.211 31.7467 362.295 32.092C362.388 32.4373 362.435 32.918 362.435 33.534V35.69C362.435 36.0727 362.444 36.376 362.463 36.6C362.491 36.824 362.547 36.9967 362.631 37.118C362.715 37.2393 362.836 37.3187 362.995 37.356C363.154 37.3933 363.373 37.4213 363.653 37.44V38H359.229V37.44C359.509 37.4307 359.728 37.4073 359.887 37.37C360.055 37.3233 360.181 37.244 360.265 37.132C360.358 37.0107 360.414 36.8473 360.433 36.642C360.461 36.4367 360.475 36.1567 360.475 35.802V33.968C360.475 33.4827 360.447 33.072 360.391 32.736C360.335 32.4 360.246 32.1293 360.125 31.924C360.004 31.7187 359.84 31.574 359.635 31.49C359.439 31.3967 359.196 31.35 358.907 31.35C358.58 31.35 358.31 31.4293 358.095 31.588C357.89 31.7467 357.717 31.952 357.577 32.204C357.334 32.6427 357.213 33.1887 357.213 33.842V35.69C357.213 36.0727 357.222 36.376 357.241 36.6C357.26 36.824 357.311 36.9967 357.395 37.118C357.479 37.2393 357.6 37.3187 357.759 37.356C357.927 37.3933 358.156 37.4213 358.445 37.44V38H354.007V37.44C354.287 37.4213 354.506 37.3933 354.665 37.356C354.833 37.3187 354.959 37.244 355.043 37.132C355.136 37.02 355.192 36.8613 355.211 36.656C355.239 36.4413 355.253 36.1567 355.253 35.802V33.968C355.253 33.4827 355.225 33.072 355.169 32.736C355.113 32.4 355.02 32.1293 354.889 31.924C354.768 31.7187 354.604 31.574 354.399 31.49C354.194 31.3967 353.937 31.35 353.629 31.35C353.321 31.35 353.064 31.4247 352.859 31.574C352.663 31.7233 352.5 31.924 352.369 32.176C352.248 32.4 352.154 32.6567 352.089 32.946C352.024 33.2353 351.991 33.534 351.991 33.842V35.69ZM371.429 36.698C370.58 37.6593 369.52 38.14 368.251 38.14C367.672 38.14 367.145 38.0513 366.669 37.874C366.202 37.6873 365.801 37.4307 365.465 37.104C365.129 36.768 364.868 36.3713 364.681 35.914C364.494 35.4567 364.401 34.948 364.401 34.388C364.401 33.8093 364.499 33.282 364.695 32.806C364.891 32.3207 365.166 31.9053 365.521 31.56C365.885 31.2053 366.31 30.93 366.795 30.734C367.29 30.538 367.831 30.44 368.419 30.44C369.408 30.44 370.178 30.706 370.729 31.238C371.28 31.77 371.555 32.5167 371.555 33.478C371.555 33.6273 371.532 33.7207 371.485 33.758C371.438 33.786 371.308 33.8 371.093 33.8H366.585C366.548 33.884 366.529 34.038 366.529 34.262C366.529 35.1767 366.725 35.9 367.117 36.432C367.518 36.964 368.06 37.23 368.741 37.23C369.133 37.23 369.52 37.1413 369.903 36.964C370.295 36.7867 370.673 36.5347 371.037 36.208L371.429 36.698ZM368.713 33.016C369.086 33.016 369.324 32.9973 369.427 32.96C369.539 32.9133 369.595 32.8107 369.595 32.652C369.595 32.2413 369.478 31.9053 369.245 31.644C369.012 31.3827 368.718 31.252 368.363 31.252C367.962 31.252 367.602 31.42 367.285 31.756C366.977 32.0827 366.776 32.5027 366.683 33.016H368.713ZM258.598 52.704C258.598 53.0773 258.612 53.376 258.64 53.6C258.668 53.824 258.724 53.9967 258.808 54.118C258.892 54.2393 259.013 54.3233 259.172 54.37C259.331 54.4073 259.545 54.4307 259.816 54.44V55H255.406V54.44C255.667 54.4307 255.877 54.4027 256.036 54.356C256.204 54.3 256.33 54.216 256.414 54.104C256.507 53.9827 256.568 53.8193 256.596 53.614C256.633 53.3993 256.652 53.1287 256.652 52.802V51.08C256.652 50.5387 256.643 50.0953 256.624 49.75C256.605 49.3953 256.582 49.1527 256.554 49.022C256.507 48.7887 256.4 48.6347 256.232 48.56C256.073 48.4853 255.779 48.448 255.35 48.448V47.972L258.598 47.44V52.704ZM256.54 44.472C256.54 44.164 256.643 43.9073 256.848 43.702C257.063 43.4873 257.319 43.38 257.618 43.38C257.926 43.38 258.183 43.4873 258.388 43.702C258.603 43.9073 258.71 44.164 258.71 44.472C258.71 44.7707 258.603 45.0273 258.388 45.242C258.183 45.4473 257.926 45.55 257.618 45.55C257.319 45.55 257.063 45.4473 256.848 45.242C256.643 45.0273 256.54 44.7707 256.54 44.472ZM261.249 55H260.815V52.452H261.403C261.561 53.124 261.79 53.614 262.089 53.922C262.387 54.23 262.775 54.384 263.251 54.384C263.596 54.384 263.862 54.314 264.049 54.174C264.245 54.0247 264.343 53.824 264.343 53.572C264.343 53.3107 264.226 53.0587 263.993 52.816C263.759 52.564 263.381 52.298 262.859 52.018C262.149 51.6353 261.641 51.2573 261.333 50.884C261.025 50.5013 260.871 50.072 260.871 49.596C260.871 49.288 260.927 49.0033 261.039 48.742C261.16 48.4713 261.319 48.238 261.515 48.042C261.72 47.846 261.963 47.6967 262.243 47.594C262.523 47.482 262.826 47.426 263.153 47.426C263.442 47.426 263.727 47.468 264.007 47.552C264.296 47.636 264.548 47.7527 264.763 47.902L265.015 47.566H265.379V49.68H264.833C264.618 49.148 264.394 48.7653 264.161 48.532C263.937 48.2987 263.661 48.182 263.335 48.182C263.073 48.182 262.863 48.252 262.705 48.392C262.555 48.532 262.481 48.7187 262.481 48.952C262.481 49.2133 262.593 49.4607 262.817 49.694C263.05 49.9273 263.433 50.184 263.965 50.464C264.338 50.6693 264.66 50.87 264.931 51.066C265.201 51.262 265.421 51.4627 265.589 51.668C265.757 51.864 265.878 52.074 265.953 52.298C266.037 52.5127 266.079 52.746 266.079 52.998C266.079 53.3247 266.018 53.6187 265.897 53.88C265.775 54.1413 265.603 54.3653 265.379 54.552C265.155 54.7387 264.884 54.8833 264.567 54.986C264.259 55.0887 263.913 55.14 263.531 55.14C263.129 55.14 262.756 55.0887 262.411 54.986C262.065 54.874 261.781 54.7153 261.557 54.51L261.249 55ZM271.055 51.43H271.601C271.731 52.3167 272.086 53.0167 272.665 53.53C273.243 54.034 273.957 54.286 274.807 54.286C275.152 54.286 275.469 54.244 275.759 54.16C276.048 54.076 276.295 53.9593 276.501 53.81C276.706 53.6513 276.865 53.4693 276.977 53.264C277.089 53.0493 277.145 52.8113 277.145 52.55C277.145 52.326 277.107 52.1347 277.033 51.976C276.967 51.808 276.837 51.6493 276.641 51.5C276.445 51.3413 276.174 51.1827 275.829 51.024C275.493 50.8653 275.054 50.6833 274.513 50.478C273.421 50.058 272.613 49.5727 272.091 49.022C271.568 48.462 271.307 47.804 271.307 47.048C271.307 46.6093 271.391 46.208 271.559 45.844C271.727 45.48 271.96 45.1673 272.259 44.906C272.567 44.6447 272.931 44.444 273.351 44.304C273.78 44.1547 274.251 44.08 274.765 44.08C275.241 44.08 275.689 44.1547 276.109 44.304C276.529 44.4533 276.944 44.6773 277.355 44.976L277.607 44.276H277.943L278.097 47.3H277.551C277.327 46.5347 276.977 45.9513 276.501 45.55C276.025 45.1393 275.474 44.934 274.849 44.934C274.27 44.934 273.799 45.0787 273.435 45.368C273.08 45.648 272.903 46.012 272.903 46.46C272.903 46.656 272.935 46.8333 273.001 46.992C273.066 47.1413 273.187 47.286 273.365 47.426C273.542 47.566 273.785 47.7107 274.093 47.86C274.401 48 274.797 48.1587 275.283 48.336C275.936 48.588 276.491 48.8447 276.949 49.106C277.415 49.358 277.793 49.6333 278.083 49.932C278.381 50.2213 278.601 50.5293 278.741 50.856C278.881 51.1827 278.951 51.542 278.951 51.934C278.951 52.41 278.848 52.844 278.643 53.236C278.437 53.628 278.148 53.964 277.775 54.244C277.411 54.524 276.972 54.7433 276.459 54.902C275.955 55.0607 275.395 55.14 274.779 55.14C274.219 55.14 273.715 55.0653 273.267 54.916C272.819 54.7573 272.357 54.5053 271.881 54.16L271.601 55H271.265L271.055 51.43ZM279.85 48.35V47.72C280.41 47.5613 280.877 47.3233 281.25 47.006C281.633 46.6793 281.917 46.306 282.104 45.886H282.818V47.58H284.428V48.35H282.818V52.648C282.818 53.2267 282.879 53.6373 283 53.88C283.131 54.1227 283.345 54.244 283.644 54.244C284.008 54.244 284.283 54.076 284.47 53.74L284.764 54.146C284.503 54.8087 283.887 55.14 282.916 55.14C282.272 55.14 281.768 54.9907 281.404 54.692C281.049 54.3933 280.872 53.9733 280.872 53.432V48.35H279.85ZM288.444 52.704C288.444 53.0773 288.458 53.376 288.486 53.6C288.514 53.824 288.57 53.9967 288.654 54.118C288.738 54.2393 288.859 54.3233 289.018 54.37C289.176 54.4073 289.391 54.4307 289.662 54.44V55H285.252V54.44C285.513 54.4307 285.723 54.4027 285.882 54.356C286.05 54.3 286.176 54.216 286.26 54.104C286.353 53.9827 286.414 53.8193 286.442 53.614C286.479 53.3993 286.498 53.1287 286.498 52.802V51.08C286.498 50.5387 286.488 50.0953 286.47 49.75C286.451 49.3953 286.428 49.1527 286.4 49.022C286.353 48.7887 286.246 48.6347 286.078 48.56C285.919 48.4853 285.625 48.448 285.196 48.448V47.972L288.444 47.44V52.704ZM286.386 44.472C286.386 44.164 286.488 43.9073 286.694 43.702C286.908 43.4873 287.165 43.38 287.464 43.38C287.772 43.38 288.028 43.4873 288.234 43.702C288.448 43.9073 288.556 44.164 288.556 44.472C288.556 44.7707 288.448 45.0273 288.234 45.242C288.028 45.4473 287.772 45.55 287.464 45.55C287.165 45.55 286.908 45.4473 286.694 45.242C286.488 45.0273 286.386 44.7707 286.386 44.472ZM297.296 53.838C296.942 54.23 296.498 54.5333 295.966 54.748C295.444 54.9627 294.874 55.07 294.258 55.07C293.689 55.07 293.171 54.9813 292.704 54.804C292.238 54.6173 291.836 54.3607 291.5 54.034C291.164 53.7073 290.903 53.3153 290.716 52.858C290.539 52.3913 290.45 51.878 290.45 51.318C290.45 50.7393 290.548 50.212 290.744 49.736C290.94 49.26 291.216 48.854 291.57 48.518C291.925 48.1727 292.35 47.9067 292.844 47.72C293.339 47.5333 293.885 47.44 294.482 47.44C294.902 47.44 295.29 47.482 295.644 47.566C296.008 47.65 296.316 47.7667 296.568 47.916C296.83 48.0653 297.035 48.2427 297.184 48.448C297.334 48.644 297.408 48.8587 297.408 49.092C297.408 49.3627 297.329 49.5773 297.17 49.736C297.021 49.8947 296.816 49.974 296.554 49.974C296.34 49.974 296.148 49.918 295.98 49.806C295.822 49.694 295.663 49.512 295.504 49.26C295.364 49.036 295.243 48.8587 295.14 48.728C295.047 48.5973 294.958 48.4993 294.874 48.434C294.79 48.3593 294.706 48.3127 294.622 48.294C294.538 48.266 294.436 48.252 294.314 48.252C293.773 48.252 293.353 48.504 293.054 49.008C292.756 49.512 292.606 50.2167 292.606 51.122C292.606 52.0927 292.784 52.8393 293.138 53.362C293.502 53.8847 294.02 54.146 294.692 54.146C295.075 54.146 295.458 54.076 295.84 53.936C296.223 53.7867 296.587 53.5767 296.932 53.306L297.296 53.838ZM298.997 55H298.563V52.452H299.151C299.309 53.124 299.538 53.614 299.837 53.922C300.135 54.23 300.523 54.384 300.999 54.384C301.344 54.384 301.61 54.314 301.797 54.174C301.993 54.0247 302.091 53.824 302.091 53.572C302.091 53.3107 301.974 53.0587 301.741 52.816C301.507 52.564 301.129 52.298 300.607 52.018C299.897 51.6353 299.389 51.2573 299.081 50.884C298.773 50.5013 298.619 50.072 298.619 49.596C298.619 49.288 298.675 49.0033 298.787 48.742C298.908 48.4713 299.067 48.238 299.263 48.042C299.468 47.846 299.711 47.6967 299.991 47.594C300.271 47.482 300.574 47.426 300.901 47.426C301.19 47.426 301.475 47.468 301.755 47.552C302.044 47.636 302.296 47.7527 302.511 47.902L302.763 47.566H303.127V49.68H302.581C302.366 49.148 302.142 48.7653 301.909 48.532C301.685 48.2987 301.409 48.182 301.083 48.182C300.821 48.182 300.611 48.252 300.453 48.392C300.303 48.532 300.229 48.7187 300.229 48.952C300.229 49.2133 300.341 49.4607 300.565 49.694C300.798 49.9273 301.181 50.184 301.713 50.464C302.086 50.6693 302.408 50.87 302.679 51.066C302.949 51.262 303.169 51.4627 303.337 51.668C303.505 51.864 303.626 52.074 303.701 52.298C303.785 52.5127 303.827 52.746 303.827 52.998C303.827 53.3247 303.766 53.6187 303.645 53.88C303.523 54.1413 303.351 54.3653 303.127 54.552C302.903 54.7387 302.632 54.8833 302.315 54.986C302.007 55.0887 301.661 55.14 301.279 55.14C300.877 55.14 300.504 55.0887 300.159 54.986C299.813 54.874 299.529 54.7153 299.305 54.51L298.997 55ZM312.863 51.01C312.079 51.3647 311.486 51.696 311.085 52.004C310.693 52.3027 310.497 52.6153 310.497 52.942C310.497 53.2127 310.572 53.4273 310.721 53.586C310.87 53.7447 311.057 53.824 311.281 53.824C311.505 53.824 311.715 53.7867 311.911 53.712C312.107 53.628 312.275 53.5207 312.415 53.39C312.555 53.2593 312.662 53.1053 312.737 52.928C312.821 52.7413 312.863 52.5453 312.863 52.34V51.01ZM312.863 50.268V49.68C312.863 49.1387 312.765 48.7467 312.569 48.504C312.382 48.252 312.088 48.126 311.687 48.126C311.416 48.126 311.211 48.2007 311.071 48.35C310.931 48.49 310.8 48.728 310.679 49.064C310.595 49.2973 310.474 49.4793 310.315 49.61C310.166 49.7407 309.956 49.806 309.685 49.806C309.424 49.806 309.223 49.7267 309.083 49.568C308.943 49.4093 308.873 49.1853 308.873 48.896C308.873 48.448 309.116 48.0933 309.601 47.832C310.096 47.5707 310.838 47.44 311.827 47.44C312.872 47.44 313.619 47.6313 314.067 48.014C314.515 48.3873 314.739 49.0173 314.739 49.904V52.97C314.739 53.7633 314.898 54.16 315.215 54.16C315.392 54.16 315.556 54.0993 315.705 53.978L315.915 54.384C315.784 54.6173 315.579 54.804 315.299 54.944C315.028 55.0747 314.72 55.14 314.375 55.14C313.946 55.14 313.619 55.0093 313.395 54.748C313.171 54.4867 313.059 54.118 313.059 53.642H312.989C312.718 54.1273 312.368 54.496 311.939 54.748C311.51 55 311.02 55.126 310.469 55.126C309.881 55.126 309.41 54.9627 309.055 54.636C308.7 54.3 308.523 53.866 308.523 53.334C308.523 52.9233 308.705 52.5407 309.069 52.186C309.433 51.822 310.04 51.4673 310.889 51.122L312.863 50.268ZM319.684 52.718C319.684 53.1007 319.693 53.404 319.712 53.628C319.74 53.8427 319.791 54.0107 319.866 54.132C319.95 54.244 320.071 54.3187 320.23 54.356C320.398 54.3933 320.622 54.4213 320.902 54.44V55H316.492V54.44C316.763 54.4213 316.977 54.3933 317.136 54.356C317.304 54.3187 317.43 54.244 317.514 54.132C317.607 54.02 317.668 53.8613 317.696 53.656C317.724 53.4507 317.738 53.1707 317.738 52.816V51.066C317.738 50.5153 317.729 50.072 317.71 49.736C317.691 49.3907 317.668 49.1573 317.64 49.036C317.612 48.9147 317.575 48.8167 317.528 48.742C317.481 48.658 317.411 48.5973 317.318 48.56C317.225 48.5133 317.108 48.4853 316.968 48.476C316.828 48.4573 316.651 48.448 316.436 48.448V47.972L319.138 47.44L319.32 48.672H319.376C319.684 48.28 320.048 47.9767 320.468 47.762C320.888 47.5473 321.35 47.44 321.854 47.44C322.451 47.44 322.932 47.524 323.296 47.692C323.669 47.8507 324.001 48.1213 324.29 48.504C324.449 48.7187 324.589 48.9987 324.71 49.344C324.831 49.68 324.892 50.1467 324.892 50.744V52.718C324.892 53.1007 324.901 53.404 324.92 53.628C324.948 53.8427 324.999 54.0107 325.074 54.132C325.158 54.244 325.279 54.3187 325.438 54.356C325.597 54.3933 325.811 54.4213 326.082 54.44V55H321.7V54.44C321.98 54.4307 322.199 54.4073 322.358 54.37C322.526 54.3233 322.652 54.244 322.736 54.132C322.82 54.02 322.876 53.8613 322.904 53.656C322.932 53.4413 322.946 53.1613 322.946 52.816V50.912C322.946 50.436 322.918 50.0347 322.862 49.708C322.806 49.3813 322.713 49.12 322.582 48.924C322.461 48.7187 322.297 48.574 322.092 48.49C321.887 48.3967 321.63 48.35 321.322 48.35C321.023 48.35 320.767 48.434 320.552 48.602C320.337 48.77 320.151 49.0033 319.992 49.302C319.908 49.47 319.833 49.6893 319.768 49.96C319.712 50.2213 319.684 50.4967 319.684 50.786V52.718ZM332.992 54.104H332.936C332.292 54.7947 331.456 55.14 330.43 55.14C329.898 55.14 329.408 55.0467 328.96 54.86C328.521 54.6733 328.138 54.412 327.812 54.076C327.494 53.74 327.247 53.3433 327.07 52.886C326.892 52.4193 326.804 51.906 326.804 51.346C326.804 50.786 326.892 50.268 327.07 49.792C327.256 49.316 327.504 48.9053 327.812 48.56C328.129 48.2053 328.502 47.93 328.932 47.734C329.37 47.538 329.842 47.44 330.346 47.44C330.812 47.44 331.223 47.51 331.578 47.65C331.942 47.79 332.259 48.028 332.53 48.364H332.586V47.174C332.586 46.6233 332.576 46.152 332.558 45.76C332.548 45.3587 332.53 45.0973 332.502 44.976C332.455 44.78 332.31 44.64 332.068 44.556C331.834 44.4627 331.47 44.416 330.976 44.416V43.94L334.518 43.38V51.388C334.518 52.088 334.522 52.6293 334.532 53.012C334.55 53.3853 334.578 53.67 334.616 53.866C334.634 53.9873 334.662 54.0853 334.7 54.16C334.737 54.2347 334.793 54.2953 334.868 54.342C334.942 54.3793 335.04 54.4073 335.162 54.426C335.292 54.4353 335.456 54.44 335.652 54.44V54.986L332.992 55.14V54.104ZM332.558 50.982C332.558 50.6273 332.52 50.3007 332.446 50.002C332.371 49.694 332.259 49.4233 332.11 49.19C331.942 48.9193 331.727 48.714 331.466 48.574C331.204 48.434 330.924 48.364 330.626 48.364C330.075 48.364 329.655 48.616 329.366 49.12C329.076 49.624 328.932 50.3567 328.932 51.318C328.932 52.2887 329.076 53.0353 329.366 53.558C329.655 54.0807 330.07 54.342 330.612 54.342C330.92 54.342 331.214 54.2627 331.494 54.104C331.774 53.9453 332.002 53.7307 332.18 53.46C332.31 53.2547 332.404 53.0027 332.46 52.704C332.525 52.396 332.558 52.004 332.558 51.528V50.982ZM345.199 55H340.201V54.44C340.519 54.4307 340.771 54.4027 340.957 54.356C341.153 54.3 341.303 54.202 341.405 54.062C341.508 53.922 341.578 53.726 341.615 53.474C341.653 53.2127 341.671 52.8627 341.671 52.424V46.796C341.671 46.404 341.653 46.082 341.615 45.83C341.587 45.5687 341.527 45.3633 341.433 45.214C341.34 45.0647 341.205 44.962 341.027 44.906C340.859 44.8407 340.631 44.7987 340.341 44.78V44.22H345.059V44.78C344.77 44.7987 344.537 44.8407 344.359 44.906C344.191 44.962 344.061 45.0647 343.967 45.214C343.874 45.3633 343.809 45.5687 343.771 45.83C343.743 46.082 343.729 46.404 343.729 46.796V52.424C343.729 52.8627 343.743 53.2127 343.771 53.474C343.809 53.726 343.879 53.922 343.981 54.062C344.093 54.202 344.243 54.3 344.429 54.356C344.625 54.4027 344.882 54.4307 345.199 54.44V55ZM354.234 51.01C353.45 51.3647 352.857 51.696 352.456 52.004C352.064 52.3027 351.868 52.6153 351.868 52.942C351.868 53.2127 351.943 53.4273 352.092 53.586C352.241 53.7447 352.428 53.824 352.652 53.824C352.876 53.824 353.086 53.7867 353.282 53.712C353.478 53.628 353.646 53.5207 353.786 53.39C353.926 53.2593 354.033 53.1053 354.108 52.928C354.192 52.7413 354.234 52.5453 354.234 52.34V51.01ZM354.234 50.268V49.68C354.234 49.1387 354.136 48.7467 353.94 48.504C353.753 48.252 353.459 48.126 353.058 48.126C352.787 48.126 352.582 48.2007 352.442 48.35C352.302 48.49 352.171 48.728 352.05 49.064C351.966 49.2973 351.845 49.4793 351.686 49.61C351.537 49.7407 351.327 49.806 351.056 49.806C350.795 49.806 350.594 49.7267 350.454 49.568C350.314 49.4093 350.244 49.1853 350.244 48.896C350.244 48.448 350.487 48.0933 350.972 47.832C351.467 47.5707 352.209 47.44 353.198 47.44C354.243 47.44 354.99 47.6313 355.438 48.014C355.886 48.3873 356.11 49.0173 356.11 49.904V52.97C356.11 53.7633 356.269 54.16 356.586 54.16C356.763 54.16 356.927 54.0993 357.076 53.978L357.286 54.384C357.155 54.6173 356.95 54.804 356.67 54.944C356.399 55.0747 356.091 55.14 355.746 55.14C355.317 55.14 354.99 55.0093 354.766 54.748C354.542 54.4867 354.43 54.118 354.43 53.642H354.36C354.089 54.1273 353.739 54.496 353.31 54.748C352.881 55 352.391 55.126 351.84 55.126C351.252 55.126 350.781 54.9627 350.426 54.636C350.071 54.3 349.894 53.866 349.894 53.334C349.894 52.9233 350.076 52.5407 350.44 52.186C350.804 51.822 351.411 51.4673 352.26 51.122L354.234 50.268ZM361.069 52.69C361.069 53.082 361.078 53.39 361.097 53.614C361.116 53.838 361.167 54.0107 361.251 54.132C361.335 54.244 361.456 54.3187 361.615 54.356C361.774 54.3933 361.993 54.4213 362.273 54.44V55H357.849V54.44C358.129 54.4213 358.353 54.3933 358.521 54.356C358.689 54.3187 358.815 54.244 358.899 54.132C358.983 54.02 359.039 53.8613 359.067 53.656C359.095 53.4413 359.109 53.1567 359.109 52.802V51.066C359.109 50.534 359.1 50.0907 359.081 49.736C359.072 49.3813 359.048 49.1387 359.011 49.008C358.983 48.8867 358.946 48.7933 358.899 48.728C358.862 48.6533 358.796 48.5973 358.703 48.56C358.619 48.5133 358.507 48.4853 358.367 48.476C358.227 48.4573 358.045 48.448 357.821 48.448V47.972L360.523 47.44L360.691 48.658H360.775C361.167 48.2193 361.559 47.9067 361.951 47.72C362.352 47.5333 362.814 47.44 363.337 47.44C363.953 47.44 364.462 47.5473 364.863 47.762C365.264 47.9767 365.568 48.2847 365.773 48.686H365.829C366.165 48.294 366.566 47.9907 367.033 47.776C367.5 47.552 367.999 47.44 368.531 47.44C369.091 47.44 369.576 47.51 369.987 47.65C370.407 47.79 370.734 47.9907 370.967 48.252C371.154 48.4667 371.289 48.7467 371.373 49.092C371.466 49.4373 371.513 49.918 371.513 50.534V52.69C371.513 53.0727 371.522 53.376 371.541 53.6C371.569 53.824 371.625 53.9967 371.709 54.118C371.793 54.2393 371.914 54.3187 372.073 54.356C372.232 54.3933 372.451 54.4213 372.731 54.44V55H368.307V54.44C368.587 54.4307 368.806 54.4073 368.965 54.37C369.133 54.3233 369.259 54.244 369.343 54.132C369.436 54.0107 369.492 53.8473 369.511 53.642C369.539 53.4367 369.553 53.1567 369.553 52.802V50.968C369.553 50.4827 369.525 50.072 369.469 49.736C369.413 49.4 369.324 49.1293 369.203 48.924C369.082 48.7187 368.918 48.574 368.713 48.49C368.517 48.3967 368.274 48.35 367.985 48.35C367.658 48.35 367.388 48.4293 367.173 48.588C366.968 48.7467 366.795 48.952 366.655 49.204C366.412 49.6427 366.291 50.1887 366.291 50.842V52.69C366.291 53.0727 366.3 53.376 366.319 53.6C366.338 53.824 366.389 53.9967 366.473 54.118C366.557 54.2393 366.678 54.3187 366.837 54.356C367.005 54.3933 367.234 54.4213 367.523 54.44V55H363.085V54.44C363.365 54.4213 363.584 54.3933 363.743 54.356C363.911 54.3187 364.037 54.244 364.121 54.132C364.214 54.02 364.27 53.8613 364.289 53.656C364.317 53.4413 364.331 53.1567 364.331 52.802V50.968C364.331 50.4827 364.303 50.072 364.247 49.736C364.191 49.4 364.098 49.1293 363.967 48.924C363.846 48.7187 363.682 48.574 363.477 48.49C363.272 48.3967 363.015 48.35 362.707 48.35C362.399 48.35 362.142 48.4247 361.937 48.574C361.741 48.7233 361.578 48.924 361.447 49.176C361.326 49.4 361.232 49.6567 361.167 49.946C361.102 50.2353 361.069 50.534 361.069 50.842V52.69ZM259.018 74.198C258.915 74.4033 258.785 74.5947 258.626 74.772C258.477 74.9493 258.304 75.0987 258.108 75.22C257.921 75.3507 257.725 75.4533 257.52 75.528C257.315 75.6027 257.109 75.64 256.904 75.64C256.596 75.64 256.349 75.5653 256.162 75.416C255.975 75.2667 255.882 75.066 255.882 74.814C255.882 74.5807 255.961 74.3987 256.12 74.268C256.288 74.1373 256.554 74.058 256.918 74.03C257.749 73.9647 258.285 73.7033 258.528 73.246L258.906 72.518L256.428 66.386C256.316 66.1153 256.218 65.9007 256.134 65.742C256.059 65.5833 255.975 65.462 255.882 65.378C255.789 65.2847 255.681 65.224 255.56 65.196C255.439 65.168 255.289 65.1493 255.112 65.14V64.58H259.354V65.14C258.99 65.14 258.733 65.1773 258.584 65.252C258.444 65.3173 258.374 65.4433 258.374 65.63C258.374 65.7047 258.383 65.7933 258.402 65.896C258.43 65.9893 258.463 66.0873 258.5 66.19L259.928 70.278H259.984L261.188 67.548C261.309 67.2587 261.412 67.0207 261.496 66.834C261.58 66.638 261.641 66.4747 261.678 66.344C261.725 66.204 261.757 66.092 261.776 66.008C261.795 65.924 261.804 65.84 261.804 65.756C261.804 65.5133 261.734 65.35 261.594 65.266C261.463 65.182 261.193 65.14 260.782 65.14V64.58H264.156V65.14C263.969 65.14 263.811 65.168 263.68 65.224C263.549 65.2707 263.414 65.3733 263.274 65.532C263.143 65.6907 262.994 65.9287 262.826 66.246C262.667 66.554 262.467 66.9647 262.224 67.478L259.018 74.198ZM268.383 64.44C268.943 64.44 269.47 64.538 269.965 64.734C270.469 64.9207 270.908 65.182 271.281 65.518C271.664 65.854 271.962 66.2553 272.177 66.722C272.401 67.1793 272.513 67.6833 272.513 68.234C272.513 68.8033 272.401 69.326 272.177 69.802C271.962 70.278 271.664 70.6887 271.281 71.034C270.908 71.3793 270.469 71.65 269.965 71.846C269.47 72.042 268.943 72.14 268.383 72.14C267.832 72.14 267.31 72.0467 266.815 71.86C266.32 71.664 265.886 71.3933 265.513 71.048C265.14 70.7027 264.846 70.292 264.631 69.816C264.416 69.3307 264.309 68.8033 264.309 68.234C264.309 67.6833 264.416 67.1747 264.631 66.708C264.846 66.2413 265.14 65.84 265.513 65.504C265.886 65.168 266.32 64.9067 266.815 64.72C267.31 64.5333 267.832 64.44 268.383 64.44ZM268.383 65.252C268.103 65.252 267.846 65.3267 267.613 65.476C267.38 65.616 267.179 65.8167 267.011 66.078C266.852 66.3393 266.726 66.6567 266.633 67.03C266.549 67.394 266.507 67.8 266.507 68.248C266.507 68.7147 266.549 69.1347 266.633 69.508C266.726 69.8813 266.852 70.1987 267.011 70.46C267.179 70.7213 267.375 70.9267 267.599 71.076C267.832 71.216 268.094 71.286 268.383 71.286C268.672 71.286 268.934 71.216 269.167 71.076C269.41 70.9267 269.615 70.7213 269.783 70.46C269.951 70.1893 270.082 69.8673 270.175 69.494C270.268 69.1207 270.315 68.7053 270.315 68.248C270.315 67.8 270.268 67.394 270.175 67.03C270.082 66.666 269.951 66.3533 269.783 66.092C269.615 65.8213 269.41 65.616 269.167 65.476C268.934 65.3267 268.672 65.252 268.383 65.252ZM279.543 66.876C279.543 66.5027 279.534 66.2087 279.515 65.994C279.497 65.77 279.445 65.602 279.361 65.49C279.277 65.3687 279.151 65.2893 278.983 65.252C278.825 65.2053 278.605 65.168 278.325 65.14V64.58H281.489V68.822C281.489 69.3913 281.494 69.8393 281.503 70.166C281.522 70.4833 281.55 70.7213 281.587 70.88C281.615 71.0013 281.648 71.0993 281.685 71.174C281.723 71.2393 281.783 71.2953 281.867 71.342C281.951 71.3793 282.063 71.4073 282.203 71.426C282.353 71.4353 282.544 71.44 282.777 71.44V71.986L279.991 72.154L279.837 70.908H279.781C279.539 71.3 279.198 71.6033 278.759 71.818C278.321 72.0327 277.831 72.14 277.289 72.14C276.291 72.14 275.53 71.7853 275.007 71.076C274.606 70.5347 274.405 69.7647 274.405 68.766V66.876C274.405 66.4933 274.396 66.1947 274.377 65.98C274.359 65.756 274.307 65.588 274.223 65.476C274.149 65.364 274.032 65.2893 273.873 65.252C273.715 65.2053 273.495 65.168 273.215 65.14V64.58H276.351V68.542C276.351 69.4847 276.468 70.1707 276.701 70.6C276.935 71.02 277.308 71.23 277.821 71.23C278.372 71.23 278.797 70.978 279.095 70.474C279.394 69.9887 279.543 69.2747 279.543 68.332V66.876ZM286.571 69.83C286.571 70.194 286.585 70.4833 286.613 70.698C286.65 70.9033 286.72 71.062 286.823 71.174C286.926 71.286 287.075 71.3607 287.271 71.398C287.467 71.426 287.728 71.44 288.055 71.44V72H283.379V71.44C283.659 71.4213 283.883 71.3933 284.051 71.356C284.219 71.3187 284.345 71.244 284.429 71.132C284.513 71.02 284.564 70.8613 284.583 70.656C284.611 70.4413 284.625 70.1567 284.625 69.802V68.094C284.625 67.5153 284.611 67.0533 284.583 66.708C284.555 66.3627 284.494 66.0967 284.401 65.91C284.308 65.7233 284.172 65.602 283.995 65.546C283.827 65.4807 283.603 65.448 283.323 65.448V64.958L286.123 64.44L286.347 66.05H286.403C286.655 65.5553 286.986 65.1633 287.397 64.874C287.808 64.5847 288.242 64.44 288.699 64.44C289.054 64.44 289.343 64.5287 289.567 64.706C289.791 64.8833 289.903 65.1073 289.903 65.378C289.903 65.6767 289.814 65.9287 289.637 66.134C289.469 66.3393 289.236 66.442 288.937 66.442C288.797 66.442 288.671 66.414 288.559 66.358C288.447 66.302 288.344 66.2413 288.251 66.176C288.167 66.1013 288.078 66.036 287.985 65.98C287.901 65.9147 287.812 65.882 287.719 65.882C287.542 65.882 287.374 65.9987 287.215 66.232C287.056 66.4653 286.926 66.778 286.823 67.17C286.748 67.45 286.688 67.7673 286.641 68.122C286.594 68.4673 286.571 68.8127 286.571 69.158V69.83ZM294.394 66.386C294.292 66.1153 294.194 65.9007 294.1 65.742C294.007 65.574 293.909 65.448 293.806 65.364C293.713 65.2707 293.606 65.21 293.484 65.182C293.372 65.154 293.237 65.14 293.078 65.14V64.58H297.264V65.14C297.031 65.14 296.844 65.1493 296.704 65.168C296.574 65.1867 296.471 65.2147 296.396 65.252C296.331 65.2893 296.289 65.3407 296.27 65.406C296.252 65.462 296.242 65.5273 296.242 65.602C296.242 65.7233 296.266 65.8633 296.312 66.022C296.359 66.1807 296.415 66.3393 296.48 66.498L297.81 70.166H297.866L299.364 66.512C299.43 66.3533 299.481 66.2133 299.518 66.092C299.556 65.9613 299.574 65.8447 299.574 65.742C299.574 65.5367 299.504 65.3873 299.364 65.294C299.224 65.2007 298.977 65.1493 298.622 65.14V64.58H301.716V65.14C301.464 65.14 301.245 65.2053 301.058 65.336C300.881 65.4667 300.694 65.756 300.498 66.204L297.88 72.14H296.606L294.394 66.386ZM305.315 69.704C305.315 70.0773 305.329 70.376 305.357 70.6C305.385 70.824 305.441 70.9967 305.525 71.118C305.609 71.2393 305.73 71.3233 305.889 71.37C306.047 71.4073 306.262 71.4307 306.533 71.44V72H302.123V71.44C302.384 71.4307 302.594 71.4027 302.753 71.356C302.921 71.3 303.047 71.216 303.131 71.104C303.224 70.9827 303.285 70.8193 303.313 70.614C303.35 70.3993 303.369 70.1287 303.369 69.802V68.08C303.369 67.5387 303.359 67.0953 303.341 66.75C303.322 66.3953 303.299 66.1527 303.271 66.022C303.224 65.7887 303.117 65.6347 302.949 65.56C302.79 65.4853 302.496 65.448 302.067 65.448V64.972L305.315 64.44V69.704ZM303.257 61.472C303.257 61.164 303.359 60.9073 303.565 60.702C303.779 60.4873 304.036 60.38 304.335 60.38C304.643 60.38 304.899 60.4873 305.105 60.702C305.319 60.9073 305.427 61.164 305.427 61.472C305.427 61.7707 305.319 62.0273 305.105 62.242C304.899 62.4473 304.643 62.55 304.335 62.55C304.036 62.55 303.779 62.4473 303.565 62.242C303.359 62.0273 303.257 61.7707 303.257 61.472ZM310.387 69.83C310.387 70.194 310.401 70.4833 310.429 70.698C310.467 70.9033 310.537 71.062 310.639 71.174C310.742 71.286 310.891 71.3607 311.087 71.398C311.283 71.426 311.545 71.44 311.871 71.44V72H307.195V71.44C307.475 71.4213 307.699 71.3933 307.867 71.356C308.035 71.3187 308.161 71.244 308.245 71.132C308.329 71.02 308.381 70.8613 308.399 70.656C308.427 70.4413 308.441 70.1567 308.441 69.802V68.094C308.441 67.5153 308.427 67.0533 308.399 66.708C308.371 66.3627 308.311 66.0967 308.217 65.91C308.124 65.7233 307.989 65.602 307.811 65.546C307.643 65.4807 307.419 65.448 307.139 65.448V64.958L309.939 64.44L310.163 66.05H310.219C310.471 65.5553 310.803 65.1633 311.213 64.874C311.624 64.5847 312.058 64.44 312.515 64.44C312.87 64.44 313.159 64.5287 313.383 64.706C313.607 64.8833 313.719 65.1073 313.719 65.378C313.719 65.6767 313.631 65.9287 313.453 66.134C313.285 66.3393 313.052 66.442 312.753 66.442C312.613 66.442 312.487 66.414 312.375 66.358C312.263 66.302 312.161 66.2413 312.067 66.176C311.983 66.1013 311.895 66.036 311.801 65.98C311.717 65.9147 311.629 65.882 311.535 65.882C311.358 65.882 311.19 65.9987 311.031 66.232C310.873 66.4653 310.742 66.778 310.639 67.17C310.565 67.45 310.504 67.7673 310.457 68.122C310.411 68.4673 310.387 68.8127 310.387 69.158V69.83ZM314.098 65.35V64.72C314.658 64.5613 315.125 64.3233 315.498 64.006C315.881 63.6793 316.165 63.306 316.352 62.886H317.066V64.58H318.676V65.35H317.066V69.648C317.066 70.2267 317.127 70.6373 317.248 70.88C317.379 71.1227 317.593 71.244 317.892 71.244C318.256 71.244 318.531 71.076 318.718 70.74L319.012 71.146C318.751 71.8087 318.135 72.14 317.164 72.14C316.52 72.14 316.016 71.9907 315.652 71.692C315.297 71.3933 315.12 70.9733 315.12 70.432V65.35H314.098ZM325.604 66.876C325.604 66.5027 325.594 66.2087 325.576 65.994C325.557 65.77 325.506 65.602 325.422 65.49C325.338 65.3687 325.212 65.2893 325.044 65.252C324.885 65.2053 324.666 65.168 324.386 65.14V64.58H327.55V68.822C327.55 69.3913 327.554 69.8393 327.564 70.166C327.582 70.4833 327.61 70.7213 327.648 70.88C327.676 71.0013 327.708 71.0993 327.746 71.174C327.783 71.2393 327.844 71.2953 327.928 71.342C328.012 71.3793 328.124 71.4073 328.264 71.426C328.413 71.4353 328.604 71.44 328.838 71.44V71.986L326.052 72.154L325.898 70.908H325.842C325.599 71.3 325.258 71.6033 324.82 71.818C324.381 72.0327 323.891 72.14 323.35 72.14C322.351 72.14 321.59 71.7853 321.068 71.076C320.666 70.5347 320.466 69.7647 320.466 68.766V66.876C320.466 66.4933 320.456 66.1947 320.438 65.98C320.419 65.756 320.368 65.588 320.284 65.476C320.209 65.364 320.092 65.2893 319.934 65.252C319.775 65.2053 319.556 65.168 319.276 65.14V64.58H322.412V68.542C322.412 69.4847 322.528 70.1707 322.762 70.6C322.995 71.02 323.368 71.23 323.882 71.23C324.432 71.23 324.857 70.978 325.156 70.474C325.454 69.9887 325.604 69.2747 325.604 68.332V66.876ZM333.836 68.01C333.052 68.3647 332.459 68.696 332.058 69.004C331.666 69.3027 331.47 69.6153 331.47 69.942C331.47 70.2127 331.544 70.4273 331.694 70.586C331.843 70.7447 332.03 70.824 332.254 70.824C332.478 70.824 332.688 70.7867 332.884 70.712C333.08 70.628 333.248 70.5207 333.388 70.39C333.528 70.2593 333.635 70.1053 333.71 69.928C333.794 69.7413 333.836 69.5453 333.836 69.34V68.01ZM333.836 67.268V66.68C333.836 66.1387 333.738 65.7467 333.542 65.504C333.355 65.252 333.061 65.126 332.66 65.126C332.389 65.126 332.184 65.2007 332.044 65.35C331.904 65.49 331.773 65.728 331.652 66.064C331.568 66.2973 331.446 66.4793 331.288 66.61C331.138 66.7407 330.928 66.806 330.658 66.806C330.396 66.806 330.196 66.7267 330.056 66.568C329.916 66.4093 329.846 66.1853 329.846 65.896C329.846 65.448 330.088 65.0933 330.574 64.832C331.068 64.5707 331.81 64.44 332.8 64.44C333.845 64.44 334.592 64.6313 335.04 65.014C335.488 65.3873 335.712 66.0173 335.712 66.904V69.97C335.712 70.7633 335.87 71.16 336.188 71.16C336.365 71.16 336.528 71.0993 336.678 70.978L336.888 71.384C336.757 71.6173 336.552 71.804 336.272 71.944C336.001 72.0747 335.693 72.14 335.348 72.14C334.918 72.14 334.592 72.0093 334.368 71.748C334.144 71.4867 334.032 71.118 334.032 70.642H333.962C333.691 71.1273 333.341 71.496 332.912 71.748C332.482 72 331.992 72.126 331.442 72.126C330.854 72.126 330.382 71.9627 330.028 71.636C329.673 71.3 329.496 70.866 329.496 70.334C329.496 69.9233 329.678 69.5407 330.042 69.186C330.406 68.822 331.012 68.4673 331.862 68.122L333.836 67.268ZM340.517 69.704C340.517 70.0773 340.531 70.376 340.559 70.6C340.587 70.824 340.643 70.9967 340.727 71.118C340.811 71.2393 340.932 71.3233 341.091 71.37C341.249 71.4073 341.464 71.4307 341.735 71.44V72H337.325V71.44C337.586 71.4307 337.796 71.4027 337.955 71.356C338.123 71.3 338.249 71.216 338.333 71.104C338.426 70.9827 338.487 70.8193 338.515 70.614C338.552 70.3993 338.571 70.1287 338.571 69.802V64.02C338.571 63.4787 338.561 63.0353 338.543 62.69C338.524 62.3353 338.501 62.0927 338.473 61.962C338.426 61.7287 338.319 61.5747 338.151 61.5C337.992 61.4253 337.698 61.388 337.269 61.388V60.912L340.517 60.38V69.704ZM259.816 85.01C259.032 85.3647 258.439 85.696 258.038 86.004C257.646 86.3027 257.45 86.6153 257.45 86.942C257.45 87.2127 257.525 87.4273 257.674 87.586C257.823 87.7447 258.01 87.824 258.234 87.824C258.458 87.824 258.668 87.7867 258.864 87.712C259.06 87.628 259.228 87.5207 259.368 87.39C259.508 87.2593 259.615 87.1053 259.69 86.928C259.774 86.7413 259.816 86.5453 259.816 86.34V85.01ZM259.816 84.268V83.68C259.816 83.1387 259.718 82.7467 259.522 82.504C259.335 82.252 259.041 82.126 258.64 82.126C258.369 82.126 258.164 82.2007 258.024 82.35C257.884 82.49 257.753 82.728 257.632 83.064C257.548 83.2973 257.427 83.4793 257.268 83.61C257.119 83.7407 256.909 83.806 256.638 83.806C256.377 83.806 256.176 83.7267 256.036 83.568C255.896 83.4093 255.826 83.1853 255.826 82.896C255.826 82.448 256.069 82.0933 256.554 81.832C257.049 81.5707 257.791 81.44 258.78 81.44C259.825 81.44 260.572 81.6313 261.02 82.014C261.468 82.3873 261.692 83.0173 261.692 83.904V86.97C261.692 87.7633 261.851 88.16 262.168 88.16C262.345 88.16 262.509 88.0993 262.658 87.978L262.868 88.384C262.737 88.6173 262.532 88.804 262.252 88.944C261.981 89.0747 261.673 89.14 261.328 89.14C260.899 89.14 260.572 89.0093 260.348 88.748C260.124 88.4867 260.012 88.118 260.012 87.642H259.942C259.671 88.1273 259.321 88.496 258.892 88.748C258.463 89 257.973 89.126 257.422 89.126C256.834 89.126 256.363 88.9627 256.008 88.636C255.653 88.3 255.476 87.866 255.476 87.334C255.476 86.9233 255.658 86.5407 256.022 86.186C256.386 85.822 256.993 85.4673 257.842 85.122L259.816 84.268ZM264.229 89H263.795V86.452H264.383C264.542 87.124 264.77 87.614 265.069 87.922C265.368 88.23 265.755 88.384 266.231 88.384C266.576 88.384 266.842 88.314 267.029 88.174C267.225 88.0247 267.323 87.824 267.323 87.572C267.323 87.3107 267.206 87.0587 266.973 86.816C266.74 86.564 266.362 86.298 265.839 86.018C265.13 85.6353 264.621 85.2573 264.313 84.884C264.005 84.5013 263.851 84.072 263.851 83.596C263.851 83.288 263.907 83.0033 264.019 82.742C264.14 82.4713 264.299 82.238 264.495 82.042C264.7 81.846 264.943 81.6967 265.223 81.594C265.503 81.482 265.806 81.426 266.133 81.426C266.422 81.426 266.707 81.468 266.987 81.552C267.276 81.636 267.528 81.7527 267.743 81.902L267.995 81.566H268.359V83.68H267.813C267.598 83.148 267.374 82.7653 267.141 82.532C266.917 82.2987 266.642 82.182 266.315 82.182C266.054 82.182 265.844 82.252 265.685 82.392C265.536 82.532 265.461 82.7187 265.461 82.952C265.461 83.2133 265.573 83.4607 265.797 83.694C266.03 83.9273 266.413 84.184 266.945 84.464C267.318 84.6693 267.64 84.87 267.911 85.066C268.182 85.262 268.401 85.4627 268.569 85.668C268.737 85.864 268.858 86.074 268.933 86.298C269.017 86.5127 269.059 86.746 269.059 86.998C269.059 87.3247 268.998 87.6187 268.877 87.88C268.756 88.1413 268.583 88.3653 268.359 88.552C268.135 88.7387 267.864 88.8833 267.547 88.986C267.239 89.0887 266.894 89.14 266.511 89.14C266.11 89.14 265.736 89.0887 265.391 88.986C265.046 88.874 264.761 88.7153 264.537 88.51L264.229 89ZM270.751 89H270.317V86.452H270.905C271.063 87.124 271.292 87.614 271.591 87.922C271.889 88.23 272.277 88.384 272.753 88.384C273.098 88.384 273.364 88.314 273.551 88.174C273.747 88.0247 273.845 87.824 273.845 87.572C273.845 87.3107 273.728 87.0587 273.495 86.816C273.261 86.564 272.883 86.298 272.361 86.018C271.651 85.6353 271.143 85.2573 270.835 84.884C270.527 84.5013 270.373 84.072 270.373 83.596C270.373 83.288 270.429 83.0033 270.541 82.742C270.662 82.4713 270.821 82.238 271.017 82.042C271.222 81.846 271.465 81.6967 271.745 81.594C272.025 81.482 272.328 81.426 272.655 81.426C272.944 81.426 273.229 81.468 273.509 81.552C273.798 81.636 274.05 81.7527 274.265 81.902L274.517 81.566H274.881V83.68H274.335C274.12 83.148 273.896 82.7653 273.663 82.532C273.439 82.2987 273.163 82.182 272.837 82.182C272.575 82.182 272.365 82.252 272.207 82.392C272.057 82.532 271.983 82.7187 271.983 82.952C271.983 83.2133 272.095 83.4607 272.319 83.694C272.552 83.9273 272.935 84.184 273.467 84.464C273.84 84.6693 274.162 84.87 274.433 85.066C274.703 85.262 274.923 85.4627 275.091 85.668C275.259 85.864 275.38 86.074 275.455 86.298C275.539 86.5127 275.581 86.746 275.581 86.998C275.581 87.3247 275.52 87.6187 275.399 87.88C275.277 88.1413 275.105 88.3653 274.881 88.552C274.657 88.7387 274.386 88.8833 274.069 88.986C273.761 89.0887 273.415 89.14 273.033 89.14C272.631 89.14 272.258 89.0887 271.913 88.986C271.567 88.874 271.283 88.7153 271.059 88.51L270.751 89ZM279.68 86.704C279.68 87.0773 279.694 87.376 279.722 87.6C279.75 87.824 279.806 87.9967 279.89 88.118C279.974 88.2393 280.095 88.3233 280.254 88.37C280.413 88.4073 280.627 88.4307 280.898 88.44V89H276.488V88.44C276.749 88.4307 276.959 88.4027 277.118 88.356C277.286 88.3 277.412 88.216 277.496 88.104C277.589 87.9827 277.65 87.8193 277.678 87.614C277.715 87.3993 277.734 87.1287 277.734 86.802V85.08C277.734 84.5387 277.725 84.0953 277.706 83.75C277.687 83.3953 277.664 83.1527 277.636 83.022C277.589 82.7887 277.482 82.6347 277.314 82.56C277.155 82.4853 276.861 82.448 276.432 82.448V81.972L279.68 81.44V86.704ZM277.622 78.472C277.622 78.164 277.725 77.9073 277.93 77.702C278.145 77.4873 278.401 77.38 278.7 77.38C279.008 77.38 279.265 77.4873 279.47 77.702C279.685 77.9073 279.792 78.164 279.792 78.472C279.792 78.7707 279.685 79.0273 279.47 79.242C279.265 79.4473 279.008 79.55 278.7 79.55C278.401 79.55 278.145 79.4473 277.93 79.242C277.725 79.0273 277.622 78.7707 277.622 78.472ZM282.331 89H281.897V86.452H282.485C282.643 87.124 282.872 87.614 283.171 87.922C283.469 88.23 283.857 88.384 284.333 88.384C284.678 88.384 284.944 88.314 285.131 88.174C285.327 88.0247 285.425 87.824 285.425 87.572C285.425 87.3107 285.308 87.0587 285.075 86.816C284.841 86.564 284.463 86.298 283.941 86.018C283.231 85.6353 282.723 85.2573 282.415 84.884C282.107 84.5013 281.953 84.072 281.953 83.596C281.953 83.288 282.009 83.0033 282.121 82.742C282.242 82.4713 282.401 82.238 282.597 82.042C282.802 81.846 283.045 81.6967 283.325 81.594C283.605 81.482 283.908 81.426 284.235 81.426C284.524 81.426 284.809 81.468 285.089 81.552C285.378 81.636 285.63 81.7527 285.845 81.902L286.097 81.566H286.461V83.68H285.915C285.7 83.148 285.476 82.7653 285.243 82.532C285.019 82.2987 284.743 82.182 284.417 82.182C284.155 82.182 283.945 82.252 283.787 82.392C283.637 82.532 283.563 82.7187 283.563 82.952C283.563 83.2133 283.675 83.4607 283.899 83.694C284.132 83.9273 284.515 84.184 285.047 84.464C285.42 84.6693 285.742 84.87 286.013 85.066C286.283 85.262 286.503 85.4627 286.671 85.668C286.839 85.864 286.96 86.074 287.035 86.298C287.119 86.5127 287.161 86.746 287.161 86.998C287.161 87.3247 287.1 87.6187 286.979 87.88C286.857 88.1413 286.685 88.3653 286.461 88.552C286.237 88.7387 285.966 88.8833 285.649 88.986C285.341 89.0887 284.995 89.14 284.613 89.14C284.211 89.14 283.838 89.0887 283.493 88.986C283.147 88.874 282.863 88.7153 282.639 88.51L282.331 89ZM288.012 82.35V81.72C288.572 81.5613 289.039 81.3233 289.412 81.006C289.795 80.6793 290.079 80.306 290.266 79.886H290.98V81.58H292.59V82.35H290.98V86.648C290.98 87.2267 291.041 87.6373 291.162 87.88C291.293 88.1227 291.507 88.244 291.806 88.244C292.17 88.244 292.445 88.076 292.632 87.74L292.926 88.146C292.665 88.8087 292.049 89.14 291.078 89.14C290.434 89.14 289.93 88.9907 289.566 88.692C289.211 88.3933 289.034 87.9733 289.034 87.432V82.35H288.012ZM297.824 85.01C297.04 85.3647 296.447 85.696 296.046 86.004C295.654 86.3027 295.458 86.6153 295.458 86.942C295.458 87.2127 295.532 87.4273 295.682 87.586C295.831 87.7447 296.018 87.824 296.242 87.824C296.466 87.824 296.676 87.7867 296.872 87.712C297.068 87.628 297.236 87.5207 297.376 87.39C297.516 87.2593 297.623 87.1053 297.698 86.928C297.782 86.7413 297.824 86.5453 297.824 86.34V85.01ZM297.824 84.268V83.68C297.824 83.1387 297.726 82.7467 297.53 82.504C297.343 82.252 297.049 82.126 296.648 82.126C296.377 82.126 296.172 82.2007 296.032 82.35C295.892 82.49 295.761 82.728 295.64 83.064C295.556 83.2973 295.434 83.4793 295.276 83.61C295.126 83.7407 294.916 83.806 294.646 83.806C294.384 83.806 294.184 83.7267 294.044 83.568C293.904 83.4093 293.834 83.1853 293.834 82.896C293.834 82.448 294.076 82.0933 294.562 81.832C295.056 81.5707 295.798 81.44 296.788 81.44C297.833 81.44 298.58 81.6313 299.028 82.014C299.476 82.3873 299.7 83.0173 299.7 83.904V86.97C299.7 87.7633 299.858 88.16 300.176 88.16C300.353 88.16 300.516 88.0993 300.666 87.978L300.876 88.384C300.745 88.6173 300.54 88.804 300.26 88.944C299.989 89.0747 299.681 89.14 299.336 89.14C298.906 89.14 298.58 89.0093 298.356 88.748C298.132 88.4867 298.02 88.118 298.02 87.642H297.95C297.679 88.1273 297.329 88.496 296.9 88.748C296.47 89 295.98 89.126 295.43 89.126C294.842 89.126 294.37 88.9627 294.016 88.636C293.661 88.3 293.484 87.866 293.484 87.334C293.484 86.9233 293.666 86.5407 294.03 86.186C294.394 85.822 295 85.4673 295.85 85.122L297.824 84.268ZM304.645 86.718C304.645 87.1007 304.654 87.404 304.673 87.628C304.701 87.8427 304.752 88.0107 304.827 88.132C304.911 88.244 305.032 88.3187 305.191 88.356C305.359 88.3933 305.583 88.4213 305.863 88.44V89H301.453V88.44C301.724 88.4213 301.938 88.3933 302.097 88.356C302.265 88.3187 302.391 88.244 302.475 88.132C302.568 88.02 302.629 87.8613 302.657 87.656C302.685 87.4507 302.699 87.1707 302.699 86.816V85.066C302.699 84.5153 302.69 84.072 302.671 83.736C302.652 83.3907 302.629 83.1573 302.601 83.036C302.573 82.9147 302.536 82.8167 302.489 82.742C302.442 82.658 302.372 82.5973 302.279 82.56C302.186 82.5133 302.069 82.4853 301.929 82.476C301.789 82.4573 301.612 82.448 301.397 82.448V81.972L304.099 81.44L304.281 82.672H304.337C304.645 82.28 305.009 81.9767 305.429 81.762C305.849 81.5473 306.311 81.44 306.815 81.44C307.412 81.44 307.893 81.524 308.257 81.692C308.63 81.8507 308.962 82.1213 309.251 82.504C309.41 82.7187 309.55 82.9987 309.671 83.344C309.792 83.68 309.853 84.1467 309.853 84.744V86.718C309.853 87.1007 309.862 87.404 309.881 87.628C309.909 87.8427 309.96 88.0107 310.035 88.132C310.119 88.244 310.24 88.3187 310.399 88.356C310.558 88.3933 310.772 88.4213 311.043 88.44V89H306.661V88.44C306.941 88.4307 307.16 88.4073 307.319 88.37C307.487 88.3233 307.613 88.244 307.697 88.132C307.781 88.02 307.837 87.8613 307.865 87.656C307.893 87.4413 307.907 87.1613 307.907 86.816V84.912C307.907 84.436 307.879 84.0347 307.823 83.708C307.767 83.3813 307.674 83.12 307.543 82.924C307.422 82.7187 307.258 82.574 307.053 82.49C306.848 82.3967 306.591 82.35 306.283 82.35C305.984 82.35 305.728 82.434 305.513 82.602C305.298 82.77 305.112 83.0033 304.953 83.302C304.869 83.47 304.794 83.6893 304.729 83.96C304.673 84.2213 304.645 84.4967 304.645 84.786V86.718ZM311.569 82.35V81.72C312.129 81.5613 312.595 81.3233 312.969 81.006C313.351 80.6793 313.636 80.306 313.823 79.886H314.537V81.58H316.147V82.35H314.537V86.648C314.537 87.2267 314.597 87.6373 314.719 87.88C314.849 88.1227 315.064 88.244 315.363 88.244C315.727 88.244 316.002 88.076 316.189 87.74L316.483 88.146C316.221 88.8087 315.605 89.14 314.635 89.14C313.991 89.14 313.487 88.9907 313.123 88.692C312.768 88.3933 312.591 87.9733 312.591 87.432V82.35H311.569ZM322.033 86.102C322.033 85.2527 322.005 84.534 321.949 83.946C321.893 83.358 321.828 82.84 321.753 82.392C321.707 82.112 321.66 81.8507 321.613 81.608C321.567 81.356 321.525 81.1133 321.487 80.88C321.45 80.6373 321.417 80.3947 321.389 80.152C321.371 79.9 321.361 79.6293 321.361 79.34C321.361 78.5 321.725 78.08 322.453 78.08C323.181 78.08 323.545 78.5 323.545 79.34C323.545 79.6293 323.531 79.9 323.503 80.152C323.485 80.3947 323.457 80.6373 323.419 80.88C323.382 81.1133 323.34 81.356 323.293 81.608C323.247 81.8507 323.2 82.112 323.153 82.392C323.079 82.84 323.013 83.358 322.957 83.946C322.901 84.5247 322.873 85.2433 322.873 86.102H322.033ZM321.403 88.09C321.403 87.7913 321.506 87.5393 321.711 87.334C321.917 87.1287 322.169 87.026 322.467 87.026C322.766 87.026 323.018 87.1287 323.223 87.334C323.429 87.5393 323.531 87.7913 323.531 88.09C323.531 88.3887 323.429 88.6407 323.223 88.846C323.018 89.042 322.766 89.14 322.467 89.14C322.169 89.14 321.917 89.042 321.711 88.846C321.506 88.6407 321.403 88.3887 321.403 88.09Z" fill="black"/>
</svg>
